<?xml version="1.0" encoding="UTF-8"?>
<svg width="18px" height="18px" viewBox="0 0 18 18" version="1.1" xmlns="http://www.w3.org/2000/svg" xmlns:xlink="http://www.w3.org/1999/xlink">
    <title>提示 </title>
    <g id="个人中心-我的钱包" stroke="none" stroke-width="1" fill="none" fill-rule="evenodd">
        <g id="个人中心-更新插件" transform="translate(-925.000000, -205.000000)" fill="#999999" fill-rule="nonzero">
            <g id="提示-" transform="translate(925.000000, 205.000000)">
                <path d="M9,0 C4.01785714,0 0,4.01785714 0,9 C0,13.9821429 4.01785714,18 9,18 C13.9821429,18 18,13.9821429 18,9 C18,4.01785714 13.9821429,0 9,0 Z M9,16.7142857 C4.725,16.7142857 1.28571429,13.275 1.28571429,9 C1.28571429,4.725 4.725,1.28571429 9,1.28571429 C13.275,1.28571429 16.7142857,4.725 16.7142857,9 C16.7142857,13.275 13.275,16.7142857 9,16.7142857 Z" id="形状"></path>
                <path d="M8.64642857,6.81428571 C8.06785714,6.94285714 7.52142857,7.23214286 7.10357143,7.65 C6.62142857,8.1 7.13571429,8.55 7.425,8.19642857 C7.61785714,7.93928571 7.90714286,7.74642857 8.22857143,7.61785714 C8.45357143,7.58571429 8.58214286,7.65 8.61428571,7.81071429 C8.64642857,8.1 8.61428571,8.35714286 8.51785714,8.64642857 C8.42142857,9.03214286 8.22857143,9.675 8.00357143,10.5428571 C7.55357143,12.0857143 7.32857143,13.05 7.39285714,13.3714286 C7.45714286,13.725 7.65,14.0142857 7.97142857,14.2071429 C8.325,14.3678571 8.74285714,14.4 9.12857143,14.3035714 C9.73928571,14.175 10.2857143,13.8535714 10.7357143,13.4035714 C11.25,12.8892857 10.6714286,12.5357143 10.3821429,12.825 C10.1892857,13.0821429 9.9,13.275 9.57857143,13.3392857 C9.28928571,13.4035714 9.12857143,13.275 9.06428571,13.0178571 C9.03214286,12.7285714 9.09642857,12.4392857 9.19285714,12.1821429 C9.99642857,9.45 10.35,7.90714286 10.2535714,7.52142857 C10.1892857,7.23214286 9.99642857,6.975 9.73928571,6.84642857 C9.41785714,6.71785714 9,6.71785714 8.64642857,6.81428571 L8.64642857,6.81428571 Z M9,4.82142857 C9,5.35398887 9.43172542,5.78571429 9.96428571,5.78571429 C10.496846,5.78571429 10.9285714,5.35398887 10.9285714,4.82142857 C10.9285714,4.28886828 10.496846,3.85714286 9.96428571,3.85714286 C9.43172542,3.85714286 9,4.28886828 9,4.82142857 Z" id="形状"></path>
            </g>
        </g>
    </g>
</svg>