<?xml version="1.0" encoding="UTF-8"?>
<svg width="18px" height="18px" viewBox="0 0 18 18" version="1.1" xmlns="http://www.w3.org/2000/svg" xmlns:xlink="http://www.w3.org/1999/xlink">
    <title>金币</title>
    <g id="个人中心-我的钱包" stroke="none" stroke-width="1" fill="none" fill-rule="evenodd">
        <g id="个人中心-更新插件" transform="translate(-710.000000, -410.000000)" fill="#FDC200" fill-rule="nonzero">
            <g id="金币" transform="translate(710.000000, 410.000000)">
                <path d="M4.56923076,7.69465649 C7.33846152,8.38167939 10.8,8.38167939 13.5692308,7.69465649 C16.3384616,7.00763358 18,5.63358778 18,4.12213739 C18,1.78625954 13.9846154,0 9,0 C4.0153846,0 0,1.92366412 0,4.12213739 C0,5.63358778 1.66153847,7.00763358 4.56923076,7.69465649 Z M9,14.9770992 C5.12307691,14.9770992 1.93846154,13.8778626 0.553846138,12.3664122 C0.138461525,12.7786259 0,13.3282443 0,13.8778626 C0,16.0763359 4.01538462,18 9,18 C13.9846154,18 18,16.2137405 18,13.8778626 C18,13.3282443 17.7230769,12.9160305 17.4461538,12.3664122 C16.0615385,13.8778626 12.8769231,14.9770992 9,14.9770992 Z" id="形状"></path>
                <path d="M9,10.0305343 C5.12307691,10.0305343 1.93846154,8.9312977 0.553846138,7.41984733 C0.138461525,7.96946566 1.63971401e-15,8.38167939 1.63971401e-15,8.9312977 C1.63971401e-15,11.129771 4.01538462,13.0534351 9,13.0534351 C13.9846154,13.0534351 18,11.2671756 18,8.9312977 C18,8.38167937 17.7230769,7.96946564 17.4461538,7.41984733 C16.0615385,8.93129772 12.8769231,10.0305344 9,10.0305343 Z" id="路径"></path>
            </g>
        </g>
    </g>
</svg>