<?xml version="1.0" encoding="UTF-8"?>
<svg width="12px" height="16px" viewBox="0 0 12 16" version="1.1" xmlns="http://www.w3.org/2000/svg" xmlns:xlink="http://www.w3.org/1999/xlink">
    <title>地址</title>
    <g id="联系我们" stroke="none" stroke-width="1" fill="none" fill-rule="evenodd">
        <g transform="translate(-362.000000, -530.000000)" fill="#116FEC" fill-rule="nonzero" id="地址">
            <g transform="translate(362.000000, 530.000000)">
                <path d="M5.76108597,0 C2.57918552,0 0,2.43619909 0,5.43891402 C0,9.47330316 3.53846154,13.2361991 5.06968326,14.6751131 C5.45520362,15.038914 6.07782805,15.0425339 6.47058823,14.6859728 C8.01085972,13.2886878 11.5239819,9.64162895 11.5239819,5.43891402 C11.5221719,2.43619909 8.94298642,0 5.76108597,0 Z M5.76108597,7.2597285 C4.73122172,7.2597285 3.89502262,6.42352941 3.89502262,5.39366516 C3.89502262,4.3638009 4.73122172,3.52760181 5.76108597,3.52760181 C6.79095022,3.52760181 7.62714932,4.3638009 7.62714932,5.39366516 C7.62714932,6.42352941 6.79095022,7.2597285 5.76108597,7.2597285 Z" id="形状"></path>
                <path d="M0.76108597,15.6108597 C0.76108597,15.7498862 1.71408054,15.8783519 3.26108597,15.9478651 C4.80809134,16.0173783 6.7140806,16.0173783 8.26108597,15.9478651 C9.8080914,15.8783519 10.761086,15.7498862 10.761086,15.6108597 C10.761086,15.3959435 8.52250972,15.2217194 5.76108597,15.2217194 C2.99966222,15.2217194 0.76108597,15.3959435 0.76108597,15.6108597 Z" id="路径"></path>
            </g>
        </g>
    </g>
</svg>