<?xml version="1.0" encoding="UTF-8"?>
<svg width="12px" height="14px" viewBox="0 0 12 14" version="1.1" xmlns="http://www.w3.org/2000/svg" xmlns:xlink="http://www.w3.org/1999/xlink">
    <title>作者 (1)</title>
    <g id="个人中心" stroke="none" stroke-width="1" fill="none" fill-rule="evenodd">
        <g id="社区-个人中心-我的主页" transform="translate(-710.000000, -558.000000)" fill="#999999" fill-rule="nonzero">
            <g id="作者-(1)" transform="translate(710.000000, 558.000000)">
                <path d="M6.00003372,0 C3.81135565,0 2.03088052,1.82952734 2.03088052,4.07841846 C2.03088052,5.70706563 2.96689084,7.11166748 4.31326249,7.7648659 C1.82416539,8.51595745 0,10.8805531 0,13.6778363 C0,13.8558632 0.140412508,14 0.313537911,14 C0.486663313,14 0.627075821,13.8558632 0.627075821,13.6778363 C0.627075821,10.6335851 3.03764512,8.15683693 6.00001686,8.15683693 C8.18869494,8.15683693 9.96932183,6.32730958 9.96932183,4.07841846 C9.96932183,1.82952734 8.18869494,0 6.00001686,0 L6.00003372,0 Z M6.00003372,7.5124922 C4.15708372,7.5124922 2.65797321,5.97189687 2.65797321,4.07840114 C2.65797321,2.18481877 4.15708372,0.64431007 6.00003372,0.64431007 C7.84305118,0.64431007 9.342246,2.18481877 9.342246,4.07840114 C9.342246,5.97198351 7.84313549,7.5124922 6.00003372,7.5124922 Z M9.63956237,8.77569478 C9.50171293,8.66776977 9.30518263,8.69450412 9.20018099,8.8361113 C9.09487582,8.9776665 9.12116417,9.1796209 9.2589293,9.28787511 C10.6025355,10.3427992 11.3729073,11.9429621 11.3729073,13.6777497 C11.3729073,13.8558459 11.5134041,13.9999827 11.6864621,13.9999827 C11.8597224,13.9999827 12,13.8558459 12,13.6777497 C12,11.7403666 11.1396172,9.95363504 9.6395455,8.77569478 L9.63956237,8.77569478 Z" id="形状"></path>
            </g>
        </g>
    </g>
</svg>