<?xml version="1.0" encoding="UTF-8"?>
<svg width="100px" height="45px" viewBox="0 0 100 45" version="1.1" xmlns="http://www.w3.org/2000/svg" xmlns:xlink="http://www.w3.org/1999/xlink">
    <title>bilibili</title>
    <g id="联系我们" stroke="none" stroke-width="1" fill="none" fill-rule="evenodd">
        <g transform="translate(-362.000000, -661.000000)" fill="#FB7299" fill-rule="nonzero" id="bilibili">
            <g transform="translate(362.000000, 661.000000)">
                <path d="M27.7006536,32.6609377 C26.219411,31.5355769 24.5470402,30.74543 22.8268875,30.0510584 C19.314909,28.6623154 15.6356934,28.1594946 11.8848047,28.2552699 C11.0008374,28.2552699 10.1168699,28.3271015 9.20901156,28.3749892 C9.20901156,28.3031576 9.13733852,28.2073822 9.13733852,28.087663 C8.89842839,25.4059522 8.61173629,22.7242414 8.42060819,20.0904183 C8.2533711,17.8875844 8.18169807,15.6847505 8.13391609,13.4819167 C8.06224305,9.24385581 8.06224305,5.02973882 8.06224305,0.791677975 C8.06224305,-0.213963577 7.99057001,-0.0942443334 7.2260577,0.240969502 C4.8608477,1.19872336 2.51952866,2.13253336 0.154318654,3.04239956 C0.0826456163,3.11423111 -0.0368094461,3.35366955 0.0109725788,3.47338879 C0.727702907,6.15509961 1.25330514,8.90864198 1.61167028,11.6382404 C1.97003542,14.0086812 2.28061858,16.3072905 2.61509271,18.6298437 C2.90178481,20.6650706 3.09291291,22.7002976 3.33182304,24.7594684 C3.57073316,26.842583 3.85742527,28.9256977 4.09633539,31.0327562 C4.33524552,33.0440393 4.57415559,34.9834908 4.81306572,36.994774 C4.98030281,38.4314047 5.12364884,39.8440917 5.2431039,41.2807225 C5.31477694,42.4060833 5.41034099,43.5314441 5.434232,44.6089172 C5.434232,44.8483557 5.50590504,44.9680749 5.74481511,44.9680749 C6.27041734,44.9680749 6.74823755,45.0399064 7.24994876,44.9680749 C9.68683181,44.7286364 12.1237149,44.5610295 14.5128159,44.2018718 C16.3524237,43.9145456 18.1442495,43.4835563 19.9121843,42.8849602 C22.4207404,42.0469256 24.5709313,40.6102948 26.6494492,38.9581694 C27.5334166,38.2877416 28.2501469,37.4736509 28.56073,36.4440655 C29.2296783,34.7440524 28.9429862,33.5947478 27.7006536,32.6609377 L27.7006536,32.6609377 Z M13.9394316,40.6342386 C13.5810665,37.9525278 13.2227013,35.3426485 12.8643361,32.7567131 C14.2500147,33.0679831 20.0794213,35.3905362 20.3661134,35.7496939 C18.2398135,37.3539316 16.1374046,38.9821132 13.9394316,40.6342386 L13.9394316,40.6342386 Z M41.7485677,33.9539055 C41.6291126,32.5651624 41.5096576,31.1045877 41.3424205,29.7158446 C41.1751835,27.8003369 40.9840554,25.8848292 40.8168183,23.9453776 C40.6495812,22.1735329 40.5779082,20.4256322 40.4584532,18.6537875 C40.2912161,16.2115152 40.100088,13.7692428 39.9328509,11.3269705 L39.5744858,5.91566113 C39.5267038,5.24523341 39.2639027,5.07762651 38.5710634,5.12551421 C37.734878,5.19734576 36.9225836,5.24523346 36.0863983,5.29312115 C35.369668,5.3649527 34.6529377,5.46072809 33.9600984,5.53255964 C36.1102893,16.9777183 37.0659297,28.4468208 38.1888072,39.8201479 C39.5028128,39.9398672 40.6973633,40.0116987 41.9396958,40.1314179 C42.178606,40.1793056 42.298061,40.1314179 42.298061,39.8919794 L42.1786059,38.5750679 C42.0830418,36.994774 41.9158048,35.4623678 41.7485677,33.9539055 L41.7485677,33.9539055 Z M35.2024309,35.3905362 C35.0351938,33.9539055 34.8918478,32.5412185 34.7246107,31.1045877 C34.5573736,29.4764061 34.4140276,27.8242807 34.1990084,26.1960991 C34.0795534,25.1904576 33.9123163,24.2327037 33.7689703,23.2749499 C33.7211882,22.9157922 33.4822782,22.7481853 33.100022,22.796073 C32.4310737,22.8679045 31.7143434,22.8679045 31.0215041,22.9636799 C30.0658637,23.0833991 29.1102233,23.251006 28.1068008,23.3707253 C29.3013514,29.6200692 30.4959018,35.7257501 31.7382344,41.9272064 C33.171695,41.7356556 34.5334826,41.5680487 35.9191612,41.4004417 C35.8713792,40.9215648 35.7997061,40.4426879 35.7519241,40.0116987 C35.560796,38.4314047 35.3696679,36.8989986 35.2024309,35.3905362 L35.2024309,35.3905362 Z M49.4892551,41.7835433 C49.441473,39.4131025 49.3698,37.1144932 49.322018,34.7440524 C49.2742359,31.8229031 49.322018,28.8538661 49.322018,25.9327168 C49.322018,25.286233 49.2742359,24.6876368 49.2503449,24.041153 C49.2503449,23.7538269 49.0831078,23.5143884 48.7725247,23.5143884 C47.5301922,23.4665007 46.2639686,23.4425568 45.0216361,23.4425568 C44.5438159,23.4425568 44.1137777,23.5143884 43.6359575,23.6101638 C43.6837395,23.7777707 43.6837395,23.8974899 43.6837395,24.0172091 C43.8509766,26.0284922 44.0421047,28.0158315 44.2093418,29.9792269 C44.3765788,31.8947347 44.5677069,33.8581301 44.734944,35.7736378 C44.9260721,37.8567525 45.0933091,39.9398671 45.2844372,42.0229818 C45.2844372,42.142701 45.4755653,42.3342517 45.5950203,42.3342517 C46.8612439,42.3821394 48.1991405,42.3342517 49.537037,42.3342517 C49.4892551,42.0708694 49.4892551,41.9032625 49.4892551,41.7835433 L49.4892551,41.7835433 Z M33.3628231,20.4974637 C33.1239129,18.2227983 32.9327849,16.0678521 32.7177658,13.8650182 C32.6699837,13.5776921 32.5505287,13.434029 32.3116186,13.434029 C31.5471062,13.434029 30.7587029,13.434029 29.9464086,13.4819167 C30.2569917,15.924189 30.5436839,18.270686 30.854267,20.6890145 C31.7382343,20.6171829 32.5266377,20.5932391 33.3628231,20.4974637 L33.3628231,20.4974637 Z M49.1308899,20.8566214 L49.1308899,14.7748844 C49.1308899,14.3438952 48.9636528,14.2241759 48.6052877,14.2241759 L46.5267698,14.2241759 L46.5267698,21.2157791 C47.4346282,21.2636668 48.2947046,21.2876107 49.1308899,21.3354984 L49.1308899,20.8566214 L49.1308899,20.8566214 Z M29.8508445,20.7847898 L29.8508445,20.3059129 C29.7313895,19.0608329 29.5641524,17.8636406 29.4446974,16.6185606 C29.3730243,15.8284136 29.2774603,15.0622105 29.2057873,14.2481198 C29.1580052,14.056569 29.2535693,13.7692428 28.9190952,13.8171305 C28.1545828,13.8889621 27.4139615,14.056569 26.6494491,14.1284005 C27.0794873,16.4988413 27.4856345,18.7974506 27.9156727,21.1200037 L29.8508445,20.7847898 L29.8508445,20.7847898 Z M45.6666934,21.1918352 L45.6666934,17.5523706 C45.6666934,16.5946167 45.6189114,15.5889752 45.6666934,14.6312213 C45.6666934,14.2720636 45.5472384,14.2002321 45.2366553,14.2002321 L43.1103553,14.2002321 C43.3014834,16.6903921 43.4687205,19.0368891 43.6598486,21.3594422 C44.3049058,21.3115545 44.9499631,21.2636668 45.6666934,21.1918352 L45.6666934,21.1918352 Z" id="形状"></path>
                <path d="M78.1706786,32.6783254 C76.689915,31.5523655 75.0180851,30.7617979 73.2984887,30.0670567 C69.787646,28.6775743 66.1096203,28.1744858 62.3599447,28.2703122 C61.4762632,28.2703122 60.5925817,28.3421819 59.6850169,28.3900951 C59.6850169,28.3182254 59.613367,28.222399 59.613367,28.102616 C59.3745342,25.4194776 59.0879348,22.7363391 58.8968685,20.1011138 C58.7296855,17.8971072 58.6580356,15.6931006 58.6102691,13.489094 C58.5386193,9.24877695 58.5386193,5.03241649 58.5386193,0.792099439 C58.5386193,-0.214077484 58.4669694,-0.0942945062 57.7027043,0.241097786 C55.3382593,1.19936152 52.9976974,2.13366866 50.6332523,3.04401924 C50.5616025,3.09193243 50.4421861,3.33149834 50.4660693,3.45128132 C51.1825679,6.1344198 51.7080001,8.88942806 52.0662494,11.6204797 C52.4244986,13.9921824 52.7349813,16.2920154 53.0693473,18.615805 C53.3559467,20.6521154 53.547013,22.6884259 53.7858458,24.7486929 C54.0246787,26.8329166 54.3112781,28.9171402 54.5501109,31.0253204 C54.7889438,33.0376743 55.0277766,34.9781583 55.2666094,36.9905122 C55.4337924,38.4279078 55.5770921,39.8413469 55.6965085,41.2787425 C55.7681584,42.4047024 55.8636916,43.5306623 55.8875748,44.608709 C55.8875748,44.8482749 55.9592247,44.9680579 56.1980575,44.9680579 C56.7234898,44.9680579 57.2011554,45.0399277 57.7027044,44.9680579 C60.1387993,44.7284919 62.5748943,44.5607958 64.9632227,44.2014469 C66.8022355,43.9139678 68.5934818,43.482749 70.3608448,42.8838342 C72.8685896,42.0453535 75.0180852,40.6079578 77.0959309,38.9549529 C77.9796124,38.2841683 78.6961109,37.4696441 79.0065936,36.4395106 C79.6992088,34.762549 79.4126094,33.6126326 78.1706786,32.6783254 L78.1706786,32.6783254 Z M64.4139071,40.655871 C64.0556579,37.9727326 63.6974086,35.3614639 63.3391593,32.7741518 C64.7243898,33.0855875 70.551911,35.4093771 70.8385105,35.7687259 C68.7128982,37.3738177 66.6111692,39.0028661 64.4139071,40.655871 L64.4139071,40.655871 Z M92.2140495,33.9719815 C92.0946331,32.582499 91.9752167,31.1211468 91.8080337,29.7316644 C91.6408507,27.8151369 91.4497845,25.8986094 91.2826015,23.9581254 C91.1154185,22.1853374 91.0437686,20.4365061 90.9243522,18.6637182 C90.7571692,16.2201457 90.566103,13.7765731 90.39892,11.3330006 L90.0406707,5.91881044 C89.9929041,5.24802581 89.730188,5.08032968 89.0375728,5.12824288 C88.2016579,5.20011266 87.3896262,5.24802585 86.5537113,5.29593905 C85.8372128,5.36780883 85.1207143,5.46363521 84.428099,5.535505 C86.5775946,16.9867567 87.5329259,28.461965 88.6554403,39.8413469 C89.9690209,39.9611299 91.1631851,40.0329997 92.4051158,40.1527826 C92.6439487,40.2006958 92.7633651,40.1527826 92.7633651,39.9132167 L92.6439487,38.595604 C92.5484155,37.0144688 92.3812325,35.4812468 92.2140495,33.9719815 L92.2140495,33.9719815 Z M85.6700298,35.4093771 C85.5028468,33.9719815 85.3595471,32.5585424 85.1923641,31.1211468 C85.0251811,29.4920984 84.8818814,27.8390935 84.6669318,26.2100451 C84.5475154,25.2038682 84.3803325,24.2456045 84.2370327,23.2873407 C84.1892662,22.9279918 83.9504334,22.7602957 83.5683008,22.8082089 C82.8995688,22.8800787 82.1830703,22.8800787 81.4904551,22.975905 C80.5351237,23.095688 79.5797924,23.2633841 78.5766945,23.3831671 C79.7708587,29.635838 80.9650228,35.7447693 82.2069536,41.9495271 C83.6399506,41.7578743 85.0012978,41.5901782 86.3865283,41.422482 C86.3387617,40.9433502 86.2671119,40.4642183 86.2193453,40.0329996 C86.028279,38.4518644 85.8372127,36.9186424 85.6700298,35.4093771 L85.6700298,35.4093771 Z M99.9522335,41.8057875 C99.9044669,39.4340848 99.832817,37.1342518 99.7850505,34.762549 C99.7372839,31.8398446 99.7850505,28.869227 99.7850505,25.9465226 C99.7850505,25.2996946 99.7372839,24.7007797 99.7134006,24.0539517 C99.7134006,23.7664726 99.5462176,23.5269067 99.2357349,23.5269067 C97.9938042,23.4789935 96.7279901,23.4550369 95.4860594,23.4550369 C95.0083937,23.4550369 94.5784946,23.5269067 94.1008289,23.6227331 C94.1485955,23.7904292 94.1485955,23.9102122 94.1485955,24.0299952 C94.3157785,26.042349 94.5068447,28.0307463 94.6740277,29.995187 C94.8412107,31.9117144 95.032277,33.8761551 95.19946,35.7926826 C95.3905263,37.8769062 95.5577092,39.9611299 95.7487755,42.0453535 C95.7487755,42.1651365 95.9398418,42.3567892 96.0592582,42.3567892 C97.3250722,42.4047024 98.6625361,42.3567892 100,42.3567892 C99.9522335,42.0932666 99.9522335,41.9255705 99.9522335,41.8057875 L99.9522335,41.8057875 Z M83.8310169,20.5083759 C83.592184,18.2324995 83.4011178,16.0764061 83.1861682,13.8723995 C83.1384016,13.5849204 83.0189852,13.4411809 82.7801524,13.4411809 C82.0158873,13.4411809 81.2277389,13.4411809 80.4157073,13.4890941 C80.72619,15.9326666 81.0127894,18.2804128 81.3232721,20.7000287 C82.2069536,20.6281589 82.995102,20.6042023 83.8310169,20.5083759 L83.8310169,20.5083759 Z M99.5939842,20.8677248 L99.5939842,14.7827501 C99.5939842,14.3515314 99.4268012,14.2317484 99.068552,14.2317484 L96.9907063,14.2317484 L96.9907063,21.2270737 C97.8982711,21.2749869 98.7580693,21.2989435 99.5939842,21.3468567 L99.5939842,20.8677248 L99.5939842,20.8677248 Z M80.3201742,20.795855 L80.3201742,20.3167232 C80.2007577,19.0709803 80.0335748,17.8731506 79.9141583,16.6274078 C79.8425085,15.8368402 79.7469753,15.0702292 79.6753255,14.255705 C79.6275589,14.0640523 79.7230921,13.7765732 79.3887261,13.8244863 C78.624461,13.8963561 77.8840792,14.0640523 77.1198141,14.135922 C77.5497132,16.5076248 77.955729,18.8074578 78.3856282,21.1312474 L80.3201742,20.795855 L80.3201742,20.795855 Z M96.1309081,21.2031171 L96.1309081,17.5617149 C96.1309081,16.6034512 96.0831415,15.5972742 96.1309081,14.6390105 C96.1309081,14.2796616 96.0114917,14.2077918 95.701009,14.2077918 L93.5753967,14.2077918 C93.766463,16.6992775 93.933646,19.0470237 94.1247123,21.3708133 C94.7695609,21.3229001 95.4144096,21.2749869 96.1309081,21.2031171 L96.1309081,21.2031171 Z" id="形状"></path>
            </g>
        </g>
    </g>
</svg>