<?xml version="1.0" encoding="UTF-8"?>
<svg width="53px" height="54px" viewBox="0 0 53 54" version="1.1" xmlns="http://www.w3.org/2000/svg" xmlns:xlink="http://www.w3.org/1999/xlink">
    <title>维护</title>
    <g id="页面-1" stroke="none" stroke-width="1" fill="none" fill-rule="evenodd">
        <g id="首页" transform="translate(-692.000000, -1312.000000)" fill="#000000" fill-rule="nonzero">
            <g id="维护" transform="translate(692.000000, 1312.000000)">
                <path d="M45.8068966,54 C44.3172414,54 43.0137931,53.4413793 41.8965517,52.3241379 L29.2344828,39.8482759 C29.0482759,39.662069 28.862069,39.2896552 28.862069,39.1034483 C28.862069,38.7310345 29.0482759,38.5448276 29.2344828,38.3586207 L33.8896552,33.7034483 C34.0758621,33.5172414 34.4482759,33.3310345 34.6344828,33.3310345 C35.0068966,33.3310345 35.1931034,33.5172414 35.3793103,33.7034483 L48.0413793,46.1793103 C50.0896552,48.2275862 50.462069,51.2068966 48.7862069,53.0689655 C47.8551724,53.4413793 46.9241379,54 45.8068966,54 L45.8068966,54 Z M31.4689655,38.9172414 L43.3862069,50.6482759 C44.1310345,51.3931034 45.062069,51.7655172 45.8068966,51.7655172 C46.3655172,51.7655172 46.737931,51.5793103 47.1103448,51.2068966 C47.4827586,50.8344828 47.6689655,50.0896552 47.4827586,49.5310345 C47.2965517,48.7862069 46.9241379,48.2275862 46.3655172,47.6689655 L34.4482759,35.937931 L31.4689655,38.9172414 L31.4689655,38.9172414 Z M6.33103448,51.9517241 C4.65517241,51.9517241 2.97931034,51.3931034 1.86206897,50.0896552 C0.55862069,48.7862069 -0.186206897,46.9241379 0.186206897,44.6896552 C0.372413793,42.6413793 1.48965517,40.7793103 2.97931034,39.1034483 L25.5103448,16.5724138 L25.5103448,16.2 C25.137931,14.5241379 24.3931034,11.1724138 27,6.33103448 C28.862069,2.79310345 35.937931,0.186206897 36.8689655,0 L37.0551724,0 C37.6137931,0 37.9862069,0.186206897 38.1724138,0.744827586 C38.5448276,1.48965517 38.1724138,2.04827586 37.0551724,3.35172414 C35.7517241,4.84137931 33.8896552,7.07586207 33.5172414,9.31034483 C33.3310345,10.9862069 33.7034483,14.1517241 35.5655172,16.0137931 C37.2413793,17.6896552 40.0344828,18.6206897 41.8965517,18.6206897 L42.6413793,18.6206897 C44.3172414,18.2482759 46.737931,16.3862069 48.7862069,14.7103448 C50.2758621,13.4068966 50.6482759,13.2206897 51.2068966,13.2206897 C51.5793103,13.2206897 51.9517241,13.4068966 52.137931,13.7793103 C52.3241379,13.9655172 52.5103448,14.337931 52.3241379,14.8965517 L52.3241379,15.0827586 C50.462069,21.2275862 47.6689655,24.0206897 45.6206897,25.137931 C43.7586207,26.2551724 41.5241379,26.6275862 38.7310345,26.6275862 L35.3793103,26.6275862 L12.8482759,49.1586207 C10.9862069,51.0206897 8.56551724,51.9517241 6.33103448,51.9517241 Z M6.51724138,42.2689655 C4.84137931,42.2689655 3.35172414,43.7586207 3.35172414,45.4344828 C3.35172414,47.1103448 4.84137931,48.6 6.51724138,48.6 C8.19310345,48.6 9.68275862,47.1103448 9.68275862,45.4344828 C9.68275862,43.7586207 8.37931034,42.2689655 6.51724138,42.2689655 Z M31.8413793,4.65517241 C30.3517241,5.5862069 29.2344828,6.51724138 28.862069,7.44827586 C26.6275862,11.7310345 27.1862069,14.1517241 27.5586207,15.6413793 C27.7448276,16.5724138 27.9310345,17.3172414 27.3724138,17.8758621 L5.4,40.0344828 L6.70344828,40.0344828 C9.68275862,40.0344828 11.9172414,42.4551724 11.9172414,45.4344828 L11.9172414,46.737931 L12.8482759,45.9931034 L33.8896552,24.7655172 C34.262069,24.3931034 34.8206897,24.3931034 35.3793103,24.3931034 L38.5448276,24.3931034 C40.9655172,24.3931034 43.0137931,24.0206897 44.5034483,23.0896552 C45.8068966,22.3448276 47.1103448,21.0413793 48.0413793,19.1793103 L47.2965517,18.4344828 C45.4344828,19.737931 44.1310345,20.4827586 43.0137931,20.6689655 C42.6413793,20.6689655 42.2689655,20.8551724 41.8965517,20.8551724 C39.662069,20.8551724 36.1241379,19.9241379 33.8896552,17.5034483 C31.2827586,14.8965517 30.9103448,10.8 31.2827586,8.93793103 C31.4689655,7.82068966 31.8413793,6.70344828 32.7724138,5.4 L31.8413793,4.65517241 Z M7.63448276,12.1034483 L3.91034483,10.0551724 L0,4.46896552 L2.04827586,2.60689655 L7.26206897,6.51724138 L9.12413793,10.2413793 L19.3655172,20.4827586 L17.6896552,22.1586207 L7.63448276,12.1034483 Z" id="形状"></path>
            </g>
        </g>
    </g>
</svg>