<?xml version="1.0" encoding="UTF-8"?>
<svg width="53px" height="58px" viewBox="0 0 53 58" version="1.1" xmlns="http://www.w3.org/2000/svg" xmlns:xlink="http://www.w3.org/1999/xlink">
    <title>权限设置</title>
    <g id="页面-1" stroke="none" stroke-width="1" fill="none" fill-rule="evenodd">
        <g id="首页" transform="translate(-994.000000, -1310.000000)" fill="#000000" fill-rule="nonzero">
            <g id="权限设置" transform="translate(994.000000, 1310.000000)">
                <path d="M26.2361128,41.4285714 C26.9934788,41.4285714 27.6149074,40.8071429 27.6149074,40.0497768 L27.6149074,30.2558036 C31.531202,29.5955357 34.521827,26.1970982 34.521827,22.0930804 C34.521827,17.5165179 30.8126753,13.8073661 26.2361128,13.8073661 C21.6595503,13.8073661 17.9503985,17.5165179 17.9503985,22.0930804 C17.9503985,26.1970982 20.9410235,29.5955357 24.8573181,30.2558036 L24.8573181,40.0497768 C24.8573181,40.8071429 25.4787467,41.4285714 26.2361128,41.4285714 Z M20.714461,22.0930804 C20.714461,19.0441964 23.1872288,16.5714286 26.2361128,16.5714286 C29.2849967,16.5714286 31.7577645,19.0441964 31.7577645,22.0930804 C31.7577645,25.1419643 29.2849967,27.6147321 26.2361128,27.6147321 C23.1872288,27.6147321 20.714461,25.1484375 20.714461,22.0930804 L20.714461,22.0930804 Z" id="形状"></path>
                <path d="M51.0932556,24.8571429 C50.3294163,24.8571429 49.714461,25.4785714 49.714461,26.2359375 L49.714461,32.5667411 C49.7727199,43.9337054 30.9421395,53.2357143 26.2361128,55.0805804 C21.530086,53.2421875 2.69950561,43.9337054 2.75776454,32.5537946 L2.75776454,8.36339286 C14.1247288,7.53482143 18.176961,6.04598214 26.2231663,2.7640625 L26.242586,2.7640625 C34.2887913,6.04598214 38.3474967,7.53482143 49.714461,8.36339286 L49.714461,15.1926339 C49.714461,15.9564732 50.3358895,16.5714286 51.0932556,16.5714286 C51.8570949,16.5714286 52.4722255,15.95 52.4722255,15.1926339 L52.4722255,7.07522321 C52.4722255,6.34375 51.8959342,5.74821429 51.1709342,5.69642857 C38.962452,4.89375 35.1820949,3.42433036 27.2847735,0.207142857 C26.9481663,0.0647321429 26.5921395,0 26.2361128,0 C25.880086,0 25.5240592,0.0647321429 25.187452,0.200669643 C17.2901306,3.41785714 13.5097735,4.88727679 1.30129133,5.68995536 C0.576291328,5.73526786 0,6.33727679 0,7.06875 L0,32.5537946 C-0.0775033146,47.5004464 25.6923628,58 26.2296395,58 C26.2361128,58 26.2361128,58 26.2361128,57.9935268 C26.2361128,57.9935268 26.2361128,58 26.242586,58 C26.7798628,58 52.5497288,47.5004464 52.4722255,32.5537946 L52.4722255,26.2359375 C52.4722255,25.4785714 51.8570949,24.8571429 51.0932556,24.8571429 Z" id="路径"></path>
            </g>
        </g>
    </g>
</svg>