<?xml version="1.0" encoding="UTF-8"?>
<svg width="25px" height="25px" viewBox="0 0 25 25" version="1.1" xmlns="http://www.w3.org/2000/svg" xmlns:xlink="http://www.w3.org/1999/xlink">
    <title>github-fill</title>
    <g id="页面-1" stroke="none" stroke-width="1" fill="none" fill-rule="evenodd">
        <g id="首页" transform="translate(-1500.000000, -3477.000000)" fill="#666666" fill-rule="nonzero">
            <g id="github-fill" transform="translate(1500.000000, 3477.000000)">
                <path d="M12.5013965,3.96906902e-16 C5.594347,-0.00279193816 0,5.58876208 0,12.4902256 C0,17.9477164 3.49960898,22.5868628 8.3733661,24.2905831 C9.02971735,24.4553692 8.92916993,23.9889408 8.92916993,23.6705407 L8.92916993,21.505978 C5.1390906,21.9500625 4.98547648,19.4419628 4.73131494,19.0230152 C4.21740588,18.1460183 3.00245783,17.9225795 3.36554575,17.5036319 C4.22857781,17.0595475 5.10836778,17.6153513 6.12780695,19.1207697 C6.86515473,20.2128264 8.3035415,20.0284895 9.03251033,19.8469455 C9.19171042,19.1905943 9.53245447,18.6040676 10.0016758,18.1488112 C6.07474025,17.4449793 4.43805161,15.048599 4.43805161,12.1997553 C4.43805161,10.8172282 4.89330801,9.54642044 5.7870629,8.5213953 C5.21729416,6.83163997 5.84012959,5.38487424 5.92391912,5.16981447 C7.54664283,5.02457931 9.23360518,6.33169583 9.36487543,6.43503624 C10.2865602,6.18646066 11.3395151,6.05519041 12.5181544,6.05519041 C13.7023796,6.05519041 14.7581276,6.19204663 15.6881913,6.44341519 C16.0037985,6.20321856 17.5678695,5.08043899 19.0760809,5.2172952 C19.1570774,5.43235497 19.7659479,6.84560489 19.229695,8.51301635 C20.1346218,9.54083447 20.5954642,10.8228141 20.5954642,12.2081342 C20.5954642,15.0625639 18.9476036,17.4617372 15.0094961,18.1543972 C15.6658474,18.8023695 16.0736231,19.7017104 16.0736231,20.6960127 L16.0736231,23.8381197 C16.0959669,24.0894883 16.0736231,24.3380638 16.4925707,24.3380638 C21.4389454,22.6706524 25,17.9979901 25,12.4930186 C25,5.58876208 19.40286,3.96906902e-16 12.5013965,3.96906902e-16 Z" id="路径"></path>
            </g>
        </g>
    </g>
</svg>