<?xml version="1.0" encoding="UTF-8"?>
<svg width="28px" height="28px" viewBox="0 0 28 28" version="1.1" xmlns="http://www.w3.org/2000/svg" xmlns:xlink="http://www.w3.org/1999/xlink">
    <title>首页</title>
    <g id="手机显示" stroke="none" stroke-width="1" fill="none" fill-rule="evenodd">
        <g id="首页-手机版-侧边栏" transform="translate(-32.000000, -41.000000)" fill="#999999" fill-rule="nonzero">
            <g id="首页" transform="translate(32.000000, 41.000000)">
                <path d="M24.2300566,28 L3.76994345,28 C1.69125256,28 0,26.3772925 0,24.3862404 L0,10.5318361 C0,9.36043376 0.596318133,8.25539984 1.59691974,7.57844212 L11.8286608,0.659536014 C13.129106,-0.219845338 14.874263,-0.219845338 16.1747082,0.659536014 L26.4030803,7.57844212 C27.4036819,8.25539984 28,9.35711534 28,10.5318361 L28,24.3862404 C28,26.3772925 26.3087474,28 24.2300566,28 Z M13.9983155,1.66501733 C13.5738178,1.66501733 13.1459511,1.78779888 12.782096,2.03336197 L2.55372398,8.95226808 C2.01467934,9.3172943 1.69125256,9.9079731 1.69125256,10.5318361 L1.69125256,24.3862404 C1.69125256,25.4580901 2.62110456,26.3308346 3.76657442,26.3308346 L24.2300566,26.3308346 C25.3755264,26.3308346 26.3053784,25.4580901 26.3053784,24.3862404 L26.3053784,10.5318361 C26.3053784,9.9079731 25.9819516,9.3172943 25.442907,8.95226808 L15.214535,2.03336197 C14.8506798,1.78779888 14.4261822,1.66501733 13.9983155,1.66501733 Z" id="形状"></path>
                <path d="M18.7991818,19.6608101 L9.20081819,19.6608101 C8.73252316,19.6608101 8.35519191,19.2858286 8.35519191,18.8278866 C8.35519191,18.3699446 8.73589219,17.9949631 9.20081819,17.9949631 L18.7958128,17.9949631 C19.2641078,17.9949631 19.6414391,18.3699446 19.6414391,18.8278866 C19.6414391,19.2858286 19.2641078,19.6608101 18.7991818,19.6608101 L18.7991818,19.6608101 Z" id="路径"></path>
            </g>
        </g>
    </g>
</svg>