<?xml version="1.0" encoding="UTF-8"?>
<svg width="20px" height="20px" viewBox="0 0 20 20" version="1.1" xmlns="http://www.w3.org/2000/svg" xmlns:xlink="http://www.w3.org/1999/xlink">
    <title>退出登陆</title>
    <g id="个人中心" stroke="none" stroke-width="1" fill="none" fill-rule="evenodd">
        <g id="社区-个人中心-我的主页" transform="translate(-610.000000, -445.000000)" fill="#777888" fill-rule="nonzero">
            <g id="退出登陆" transform="translate(610.000000, 445.000000)">
                <path d="M12.9875501,5 L12.9875501,2.01793722 C12.9875501,1.64786996 12.6844774,1.34529148 12.3074808,1.34529148 L2.02129645,1.34529148 C1.64429984,1.34529148 1.3412272,1.64786996 1.3412272,2.01793722 L1.3412272,17.9820628 C1.3412272,18.35213 1.64429984,18.6547085 2.02129645,18.6547085 L12.3074808,18.6547085 C12.6844774,18.6547085 12.9875501,18.35213 12.9875501,17.9820628 L12.9875501,15.2017937 C12.9875501,14.8302915 13.2877838,14.529148 13.6581637,14.529148 C14.0285436,14.529148 14.3287773,14.8302915 14.3287773,15.2017937 L14.3287773,17.9820628 C14.3287773,19.0965471 13.4238066,20 12.3074808,20 L2.02129645,20 C0.904948346,20 0,19.0965471 0,17.9820628 L0,2.01793722 C0,0.903452915 0.9049707,0 2.02129645,0 L12.3074808,0 C13.4238289,0 14.3287773,0.903452915 14.3287773,2.01793722 L14.3287773,5 C14.3287773,5.37150224 14.0285436,5.67264574 13.6581637,5.67264574 C13.2877838,5.67264574 12.9875501,5.37150224 12.9875501,5 Z" id="路径"></path>
                <path d="M17.4188083,10.6531839 L15.5258449,12.5393274 L16.4710748,13.4937444 L20,9.97753363 L16.4681017,6.50224215 L15.5288403,7.46257848 L17.4042112,9.30786996 L6.19199891,9.30786996 C5.82161902,9.30786996 5.52138531,9.60903587 5.52138531,9.9805157 C5.52138531,10.3520404 5.82161902,10.6531614 6.19199891,10.6531614 L17.4188083,10.6531614 L17.4188083,10.6531839 Z" id="路径"></path>
            </g>
        </g>
    </g>
</svg>