<?xml version="1.0" encoding="UTF-8"?>
<svg width="14px" height="14px" viewBox="0 0 14 14" version="1.1" xmlns="http://www.w3.org/2000/svg" xmlns:xlink="http://www.w3.org/1999/xlink">
    <title>修改</title>
    <g id="个人中心" stroke="none" stroke-width="1" fill="none" fill-rule="evenodd">
        <g id="社区-个人中心-我的主页" transform="translate(-1036.000000, -152.000000)" fill="#FFFFFF" fill-rule="nonzero">
            <g id="修改" transform="translate(1036.000000, 152.000000)">
                <path d="M13.4946457,5.46624955 C13.2150162,5.46624955 12.9892913,5.69197449 12.9892913,5.9716039 L12.9892913,12.428348 C12.9892913,12.7366141 12.7382986,12.9876068 12.4300325,12.9876068 L1.56996751,12.9876068 C1.26170136,12.9876068 1.0107087,12.7366141 1.0107087,12.428348 L1.0107087,1.56996751 C1.0107087,1.26170136 1.26170136,1.0107087 1.56996751,1.0107087 L8.05871736,1.0107087 C8.33834677,1.0107087 8.56407171,0.784983756 8.56407171,0.50535435 C8.56407171,0.225724943 8.33834677,0 8.05871736,0 L1.56996751,0 C0.704127061,0 0,0.704127061 0,1.56996751 L0,12.4300325 C0,13.2958729 0.704127061,14 1.56996751,14 L12.4300325,14 C13.2958729,14 14,13.2958729 14,12.4300325 L14,5.9716039 C14,5.69365901 13.7725905,5.46624955 13.4946457,5.46624955 L13.4946457,5.46624955 Z" id="路径"></path>
                <path d="M4.77728312,9.20081819 C4.99458549,9.41812056 5.3449645,9.41812056 5.56226688,9.20081819 L13.7843821,0.978702924 C14.0016845,0.761400553 14.0016845,0.411021538 13.7843821,0.193719167 C13.5670798,-0.023583203 13.2167008,-0.023583203 12.9993984,0.193719167 L4.77728312,8.41751895 C4.56166526,8.63313681 4.56166526,8.98520034 4.77728312,9.20081819 Z" id="路径"></path>
            </g>
        </g>
    </g>
</svg>
