<?xml version="1.0" encoding="UTF-8"?>
<svg width="18px" height="22px" viewBox="0 0 18 22" version="1.1" xmlns="http://www.w3.org/2000/svg" xmlns:xlink="http://www.w3.org/1999/xlink">
    <title>social-paypal</title>
    <g id="插件购买弹窗" stroke="none" stroke-width="1" fill="none" fill-rule="evenodd">
        <g id="插件详情页-微信支付" transform="translate(-771.000000, -668.000000)" fill-rule="nonzero">
            <g id="social-paypal" transform="translate(771.000000, 668.000000)">
                <path d="M7.69172119,5.17779167 L13.7167038,5.17779167 C16.9516834,5.17779167 18.1691392,6.86445835 17.9813591,9.345875 C17.6712105,13.4374167 15.269672,15.69975 12.0840848,15.69975 L10.4759395,15.69975 C10.0398625,15.69975 9.74573299,15.99675 9.62692425,16.8043333 L8.93721058,21.4949167 C8.89226794,21.79925 8.73697113,21.9784583 8.50291346,22 L4.72506248,22 C4.36952622,22 4.24315287,21.7199583 4.33615296,21.113125 L6.64335643,6.067875 C6.73546657,5.46470833 7.0558497,5.17779167 7.69216616,5.17779167 L7.69172119,5.17779167 Z" id="路径" fill="#009DE2"></path>
                <path d="M3.92543961,0 L9.95665188,0 C11.6555724,0 13.6699813,0.0568333262 15.0178152,1.28104167 C15.9180028,2.09870835 16.3901229,3.40175 16.2815487,4.80104167 C15.9104382,9.54341667 13.1560333,12.2008333 9.4627279,12.2008333 L6.48805959,12.2008333 C5.98167628,12.2008333 5.64616394,12.5459583 5.50332648,13.481875 L4.6734452,18.9204583 C4.62004801,19.273375 4.47098086,19.4814583 4.19999013,19.5062083 L0.484880847,19.5062083 C0.0728325473,19.5062083 -0.0735647264,19.1817083 0.0341196076,18.4781667 L2.70931868,1.03216667 C2.81611305,0.33275 3.18766847,0 3.92543961,0 Z" id="路径" fill="#113984"></path>
                <path d="M5.59009691,12.9337083 L6.64335643,6.067875 C6.73546657,5.46470833 7.0558497,5.17779167 7.69216616,5.17779167 L13.7167038,5.17779167 C14.7138962,5.17779167 15.5197488,5.33820835 16.1511705,5.63383333 C15.5460024,9.85508333 12.8952771,12.2008333 9.42356995,12.2008333 L6.45023659,12.2008333 C6.05865723,12.2008333 5.76630763,12.4070833 5.59054188,12.9337083 L5.59009691,12.9337083 Z" id="路径" fill="#172C70"></path>
            </g>
        </g>
    </g>
</svg>