<?xml version="1.0" encoding="UTF-8"?>
<svg width="38px" height="50px" viewBox="0 0 38 50" version="1.1" xmlns="http://www.w3.org/2000/svg" xmlns:xlink="http://www.w3.org/1999/xlink">
    <title>编组备份 2</title>
    <g id="手机显示" stroke="none" stroke-width="1" fill="none" fill-rule="evenodd">
        <g id="首页-手机版" transform="translate(-238.000000, -30.000000)" fill-rule="nonzero">
            <g id="编组备份-2" transform="translate(238.000000, 30.000000)">
                <path d="M6.14307461,45.2471751 L6.14307461,49.9999978 L7.30595517,49.9999978 L7.30595517,45.2471751 L6.14307461,45.2471751 Z M25.2758359,28.6220564 C16.1057729,28.6328138 8.6746485,36.0698351 8.66389957,45.2471751 L8.66389957,49.9999978 L13.4084523,49.9999978 L13.4084523,45.2471751 L13.4084523,45.2471751 C13.416721,38.6923023 18.7246592,33.3808238 25.2743354,33.3733774 L25.2743354,33.3733774 L30.0233896,33.3733774 L30.0233896,28.6220564 L25.2758359,28.6220564 Z M25.2758359,25 L25.2758359,25.9745915 L30.0248901,25.9745915 L30.0248901,25.0030034 L25.2758359,25 Z M25.2758359,26.8020181 L25.2758359,27.7766096 L30.0248901,27.7766096 L30.0248901,26.8050215 L25.2758359,26.8020181 Z M33.2464444,8.58661846 L33.2464444,9.50865105 L37.993998,9.50865105 L37.993998,8.58661846 L33.2464444,8.58661846 Z M15.1940366,1.10126348e-06 C10.6256691,-0.00195277898 6.45374667,2.59618618 4.43752672,6.69881021 C2.42130678,10.8014342 2.91170687,15.6944929 5.70193025,19.3146329 C2.00677907,23.8091684 -0.00926713929,29.4511438 3.20263143e-05,35.2715032 L3.20263143e-05,50.0000011 L4.74761794,50.0000011 L4.74761794,45.2471751 L4.74761794,45.2471751 L4.74761794,35.2684998 C4.75576229,33.6633187 4.94910591,32.0644485 5.3238065,30.5036636 L5.3073011,30.5201821 C5.49712679,29.7240723 5.73514369,28.9402499 6.02003435,28.1730535 L6.04254171,28.1129863 C6.80084597,26.0512866 7.89778041,24.1307624 9.28810385,22.4306225 C10.2636521,22.984799 11.3122748,23.398818 12.4031233,23.6604999 L12.5456699,23.6905335 L12.5726787,23.6905335 L12.6807141,23.7145604 L12.8127573,23.740089 L12.860773,23.7506008 L12.8892824,23.7506008 C13.1578703,23.801658 13.3874454,23.8407017 13.5615023,23.8647286 L13.61552,23.8647286 L13.8255888,23.8932605 L13.8510971,23.8932605 L13.8961118,23.8932605 L13.9036143,23.8932605 C14.332233,23.9390928 14.7629783,23.9621509 15.1940366,23.9623379 L25.2758359,23.9623379 L25.2758359,23.9623379 L30.0248901,23.9623379 L30.0248901,19.2380471 L15.2915685,19.2380471 C15.1745302,19.2380471 15.0935037,19.2380471 14.9749649,19.2380471 C14.7873765,19.2353601 14.6000581,19.2228288 14.4137813,19.2005051 L14.3327547,19.2005051 C14.2067135,19.1854883 14.0836732,19.1674681 13.9621335,19.1479462 L13.7295573,19.1013941 C13.6560333,19.0863773 13.5795082,19.0698588 13.5119861,19.0503369 C13.361937,19.0157982 13.2403973,18.9797579 13.1548693,18.9572326 L13.1098545,18.9422158 L13.0303285,18.9196906 C16.4079339,16.4764544 20.5868014,15.0318365 25.1317888,14.8816684 L38,14.8816684 L38,10.1168322 L24.6576336,10.1168322 L24.6576336,10.1168322 C18.9669793,10.2162381 13.47992,12.2527433 9.10054247,15.8907985 C7.67175056,13.6623047 7.57285042,10.8308709 8.84266498,8.50796682 C10.1124795,6.18506279 12.548332,4.74145041 15.1940366,4.74381486 L21.829208,4.74381486 L21.829208,4.75282495 L33.0288732,4.75282495 L38,4.75282495 L38,1.10126348e-06 L15.1940366,1.10126348e-06 Z M33.2464444,6.39566478 L37.993998,6.39566478 L37.993998,5.4811406 L33.2464444,5.4811406 L33.2464444,6.39566478 Z M33.2464444,7.97092894 L37.993998,7.97092894 L37.993998,7.05039803 L33.2464444,7.05039803 L33.2464444,7.97092894 Z" id="形状" fill="#FFFFFF"></path>
                <path d="M5.41839968,19.558832 C1.72396161,24.0046612 -0.00900337293,29.6996408 4.54747351e-13,35.4534739 L4.54747351e-13,50 L4.75865944,50 L4.75865944,45.2955158 L4.75865944,35.4401257 C4.76754797,33.8548228 4.96083453,32.2757909 5.33470876,30.7341584 L5.31820734,30.7504729 C5.5081842,29.9624716 5.74562783,29.1864004 6.02926821,28.4264102 C6.03676886,28.4056464 6.0442695,28.3863657 6.05027001,28.3670851 C6.8092575,26.3309454 7.63319104,24.5838494 9.02548608,22.6550746 C10.1773869,21.399173 11.424206,20.1083047 12.7616249,19.0472286 C16.1399141,16.6341782 20.5879778,14.9271071 25.1318668,14.7787943 L38,14.7787943 L38,10 L24.6577143,10 C18.8196994,10 13.0363681,12.2554152 8.89585654,15.9950177 C8.89585654,15.9950177 6.7445132,17.9881987 5.41839968,19.558832 Z" id="路径" fill="#FFCE05"></path>
            </g>
        </g>
    </g>
</svg>