<svg xmlns="http://www.w3.org/2000/svg" viewBox="0 0 919.451 87.653"><g id="图层_2" data-name="图层 2"><g id="图层_1-2" data-name="图层 1"><path d="M907.143,54.14c3.028-.188,3.064-.224,4.2-4.456l8.1,4.435c-4.051,2.245-7.307,4.167-10.674,5.872a5.009,5.009,0,0,0-3.008,4.634c-.455,6.035-1.218,12.034.085,18.074a24.3,24.3,0,0,1,.05,4.954,6.773,6.773,0,0,1-4.915-7.27c.666-5.334.99-10.713,1.372-16.079.119-1.673-1.072-1.278-2.072-1.041-3.622.856-7.25,1.687-10.867,2.562-1.961.474-2.822-.655-3.676-2.15-.932-1.632.06-2.477,1.068-3.353,3.067-2.664,6.161-5.3,9.249-7.936,2.272-1.942,2.342-2.709-.066-4.277-2.156-1.4-3.019-3.047-2.418-5.642.851-3.676.736-3.7-3.3-5.053-.814,2.2-1.581,4.437-2.463,6.628q-4.4,10.935-8.89,21.835a4.45,4.45,0,0,1-1.369,2.015,12.39,12.39,0,0,1-2.886,1.044c-.271-1.216-1.169-2.775-.717-3.6,5.526-10.026,8.171-21.078,11.684-31.819a16.176,16.176,0,0,0,.394-1.7c.346-1.634-.4-1.911-1.806-1.488-3.257.98-5.028.135-6.285-2.993-.609-1.515.025-2.263,1.547-2.7,2.193-.63,4.35-1.4,6.483-2.218,3.139-1.195,6.244-2.479,9.364-3.725l-.156-.743-6.3,1.333-.336-.361a48.587,48.587,0,0,0,4-3.762,35.318,35.318,0,0,0,4.717-6.29c1.18-2.244.206-4.512-1.425-6.4A12.333,12.333,0,0,1,894.044,0a17.174,17.174,0,0,1,10.4,7.481c1.888,2.869,1.132,5.526-1.618,7.493-.667.477-1.332.957-2.6,1.868,1.371.65,2.343,1.044,3.246,1.56.964.551,1.861,1.218,3.368,2.222l-5.928,3.33c1.015,2.083,1.584,4.254,4.566,4.526,1.822.166,3.572,1.116,5.377,1.722-.138.526-.137.913-.268.964-3.782,1.487-2.861,4.73-2.614,7.514.082.92,1.265,2.009,2.215,2.537,3.382,1.881,3.7,3.011.415,5.135-2.523,1.63-3.053,3.9-3.572,6.378A4.974,4.974,0,0,0,907.143,54.14ZM898.26,25.619l-.548-.783c-1.857.766-3.735,1.484-5.566,2.308-3.7,1.668-3.692,1.691-2.367,5.364a4.17,4.17,0,0,1,.189.72c.386,2.242,1.766,2.28,3.5,1.582C897.769,33.073,897.658,29.172,898.26,25.619Zm-5.341,34.073.437.776c2.122-.773,4.264-1.5,6.364-2.331,3-1.189,3.395-2.361,1.824-5.7C898.785,55.07,894.9,56.255,892.919,59.692Zm10.119-23.064c-2.9,2-3.424,4.7-4.015,7.549C903.331,43.949,904.194,42.346,903.038,36.628Z"/><path d="M538.627,47.025c-1.96.385-4.434.975-6.941,1.335-3.324.477-3.369-2.64-4.474-4.44-1.036-1.686.612-2.382,1.67-3.3,3.424-2.972,6.779-6.023,10.16-9.045.371-.332.743-.663,1.1-1.009,2.6-2.51,5.249-4.974,7.781-7.552,1.812-1.846,3.468-3.845,5.7-6.345a36.1,36.1,0,0,0-5.514.043c-4.611.812-6.84-2.6-9.578-5.127-.225-.208-.339-.92-.185-1.068a1.73,1.73,0,0,1,1.26-.478c5.421.83,10.457-1.269,15.678-1.933a8.009,8.009,0,0,1,4.1.731c2.162.984,4.113,2.42,6.248,3.475,1.89.934,2.141,2.332.693,3.851-1.53,1.6-2.855,3.4-4.409,5.279.305,1.263.673,3.193,1.268,5.051a3.919,3.919,0,0,0,1.52,2.029,53.393,53.393,0,0,0,5.325,2.7c1.75.806,1.445,1.61.04,2.363a18.983,18.983,0,0,1-3.625,1.618c-2.036.586-2.386,2.023-2.411,3.818-.086,6.287-.237,12.574-.315,18.861-.03,2.4.125,4.8.1,7.2q-.087,7.944-.307,15.884c-.013.458-.57,1.3-.791,1.278a2.842,2.842,0,0,1-1.846-.819c-2.33-3.195-2.97-6.689-2.715-10.72.6-9.483.724-19,.887-28.5.049-2.811-.592-3.054-3.394-2.1a15.092,15.092,0,0,1-3.337.986c-3.763.339-4.512,3.127-5.144,6.027-.51,2.343-.877,4.717-1.429,7.049-.4,1.675-1.745,1.774-2.54.635C541.524,52.4,540.2,49.75,538.627,47.025Zm19.624-22.651-1.071-.612c-3.3,2.539-6.677,4.983-9.815,7.7-.573.5-.423,2.221-.074,3.187.148.411,1.751.635,2.548.417,2.385-.652,4.714-1.523,7.027-2.406.538-.2,1.3-.774,1.323-1.21C558.32,29.1,558.251,26.735,558.251,24.374Zm-16.6,11.949-.957-.652c-3.115,1.623-6.553,2.782-8.5,6.156a52.966,52.966,0,0,0,8.016-3.157C540.911,38.319,541.184,37.128,541.651,36.323Z"/><path d="M201.905,75.974c-8.833,4.5-18.213,3.794-27.431,1.638-9.418-2.2-16.192-9.112-23.825-15.189-2.385,5.783-5.507,10.538-12.448,11.439.172-.666.146-1.161.38-1.378,3.49-3.241,5.185-7.4,6.331-11.886.674-2.64,1.646-5.209,2.229-7.866.466-2.124,1.423-2,2.728-.906,1.874,1.574,2.808,3.688,1.985,6-.958,2.688-.018,3.8,2.51,4.424a36.329,36.329,0,0,1,4.48,1.72l.443-.54a29.356,29.356,0,0,0-1.949-2.956c-1.285-1.536-1.012-2.794-.038-4.472a72.747,72.747,0,0,0,3.694-8.074,6.617,6.617,0,0,0,.028-2.036c-1.632.822-2.9,1.554-4.246,2.118-2.094.878-5.627-1.375-5.677-3.633a1.768,1.768,0,0,1,.891-1.233,99.251,99.251,0,0,1,9.918-4.995,26.431,26.431,0,0,0,7.7-4.217c1.643-1.393,3.275-2.752,3.673-5.293-3.2-.724-6.053.123-8.839,1.028-1.96.637-3.735,1.881-5.713,2.411a26.781,26.781,0,0,1-5.342.377l-.4-1.1a10.627,10.627,0,0,1,2.371-2.086c4.076-1.82,8.212-3.509,12.351-5.184,1.537-.621,3.137-1.093,4.72-1.594,2.346-.744,4.466-.692,6.521,1.072a29.606,29.606,0,0,0,4.912,2.883c2.373,1.335,2.538,2.778.2,4.21-4.31,2.639-8.744,5.077-13.125,7.6-.639.368-1.27.749-1.121,1.311a25.807,25.807,0,0,1-.331,4.927c-.91,3.533-.9,3.592,2.761,4.33a23.066,23.066,0,0,1,3.948,1.566,36.424,36.424,0,0,1-2.82,3.225c-2.564,2.344-5.24,4.566-7.836,6.876a5.57,5.57,0,0,0-1.19,1.581c-1.578,3.048-1.168,3.161,1.646,5.1,6.328,4.362,13.513,3.7,20.485,3.785a29.162,29.162,0,0,1,12.45,2.937c.968.461,1.959.872,2.94,1.306Z"/><path d="M226.081,66.584a12.556,12.556,0,0,1,1.86-1.04c5.752-1.825,8.246-6.9,11.326-11.352a2.43,2.43,0,0,0-.525-1.968c-6.127-.523-11.007-3.992-16.269-6.586a29.655,29.655,0,0,0-5.3-1.509l.013-.958a10.468,10.468,0,0,1,3.113-.392c6.672,1.217,13.326,2.537,19.973,3.888,1.186.241,2.165.751,2.756-.945,2.089-6,4-12.082,6.557-17.879,1.773-4.018,1.777-7.047-2.046-9.622-.488-.329-.762-.972-1.483-1.934,1.867,0,3.524-.5,4.519.094a60.5,60.5,0,0,1,8.629,6.2c1.5,1.309,1.349,3.341.741,5.348-1.318,4.347-2.227,8.82-3.622,13.14a39.063,39.063,0,0,1-3.537,7.607c-.956,1.635-1.123,2.4.8,3.417a126.523,126.523,0,0,0,23.048,9.834c2.22.659,4.867,1.278,5.907,4.034,1.21,3.21-.718,5.92-4.124,5.478a38.489,38.489,0,0,1-16.369-5.573c-3.755-2.437-7.668-4.633-11.421-7.073-1.929-1.255-2.972-.839-4.208,1.025a23.208,23.208,0,0,1-11.235,9.354,5.98,5.98,0,0,1-6.083-1.04A20.488,20.488,0,0,0,226.081,66.584Z"/><path d="M93.327,74.867a51.084,51.084,0,0,1-2.818-5.517c-.644-1.714-1.762-1.309-2.807-.94-2.893,1.021-5.748,2.157-8.6,3.291-2.938,1.168-3.321.823-4.2-2.229-.8-2.789-.6-4.86,2.068-6.579a4.706,4.706,0,0,0,2.143-4.749c-2.319-1.479-4.37-2.4-5.9-3.865-1.684-1.615-1.3-2.691.777-3.708a13.6,13.6,0,0,1,2.525-1.045c5.028-1.293,4.986-1.282,5.44-6.441.15-1.7-.5-2.216-2.1-2.207a25.724,25.724,0,0,1-3.407-.411l-.126-.883c1.4-.769,2.767-1.6,4.2-2.292a4.531,4.531,0,0,0,2.811-4.543c-.033-3.149.338-6.32.075-9.443-.211-2.508-1.172-4.946-1.666-7.442a12.177,12.177,0,0,1,.08-2.782c.8.555,1.937.932,2.338,1.695,2.42,4.6,5.306,9.1,4.346,14.7-.042.244-.029.5-.056.744-.447,4.08-.306,4.209,3.631,2.575,1.683-.7,3.269-1.627,4.918-2.411,2.079-.99,3.684-.644,5.212,1.29a21.088,21.088,0,0,0,4.591,4.059,5.137,5.137,0,0,1,2.015,6.636c-2.126,5.556-4.208,11.142-5.97,16.82-1.8,5.814-5.637,10.389-8.464,15.573ZM87.636,63.394c1.649-.458,4.1.457,5.333-2.124a117.482,117.482,0,0,0,7.519-22.2c.391-1.55-.435-2.418-1.866-1.93a75.767,75.767,0,0,0-10.355,4.132c-.868.448-.843,2.616-1.228,3.994.9.045,1.8.126,2.693.127,1.481,0,3.065-.376,4.407.041.861.268,2.117,2.02,1.891,2.505a9.77,9.77,0,0,1-3.142,3.907c-1.606,1.085-3.669,1.477-5.452,2.336A3.7,3.7,0,0,0,85.6,55.944a25.967,25.967,0,0,0-.964,4.6C84.208,63.243,84.482,63.511,87.636,63.394Z"/><path d="M801.3,38.14c1.306,0,2.385.272,3.242-.049,2.949-1.1,5.82-2.413,8.721-3.646.076-.032.14-.09.215-.125,2.149-1,10.79,2.417,11.485,4.644a3.874,3.874,0,0,1-.135,2.4c-2.062,5.216-4.23,10.391-6.323,15.6-.768,1.91-1.408,3.871-2.142,5.8-.4,1.055-1.071,1.963-2.134.745-2.895-3.315-5.682-6.722-8.684-10.3,2.3-.61,5.455.765,6.776-2.242,1.036-2.358,1.8-4.835,2.685-7.259l-.766-.516c-1.87,1.1-3.715,2.24-5.617,3.279-3.845,2.1-4.722,1.867-7.112-1.726a6.7,6.7,0,0,0-1.444-2,2.964,2.964,0,0,0-2.386-.484,38.708,38.708,0,0,0-4.157,2.865c-1.45.993-2.828,2.673-4.81,1.2-1.528-1.138-1.462-3.912.189-5.858,2.465-2.908,5.038-5.73,7.638-8.52,4.77-5.118,9.419-10.3,11.276-17.292.473-1.783.847-3.593,1.277-5.436,2.356.844,4.318,1.471,6.215,2.252,1.3.535,2,1.565,1.375,3-1.079,2.475-2.239,4.916-3.364,7.371-.165.361-.329.723-.644,1.415,1.571.578,2.991,1.174,4.455,1.626,5.382,1.66,10.813,3.172,16.156,4.946,2.566.852,4.978,2.167,7.46,3.27,2.3,1.021,1.936,2.994,1.375,4.691-.6,1.808-1.814,3.234-4.149,2.323-2.235-.872-4.638-1.452-6.684-2.643-6.064-3.528-12.866-5.867-17.963-10.979-1.431-1.435-2.569-1.111-3.763.606C807.063,30.677,804.335,34.106,801.3,38.14Z"/><path d="M640.688,30.251c1.536-.622,2.78-1.168,4.055-1.633,3.445-1.258,7.784,1.254,7.878,4.866.113,4.3-.968,8.483-4,11.674-1.823,1.915-2.588,3.9-1.981,6.268,1.479,5.769.288,11.347-.9,16.946a8.444,8.444,0,0,1-.61,1.627c-1.107,2.487-2.237,2.67-3.9.5-1.612-2.1-3.121-4.277-4.592-6.476a8.238,8.238,0,0,1-.727-2.013c.363-.3.429-.4.491-.4,4.846.175,4.845.175,5.752-4.882.3-1.681.609-3.361,1.056-5.829-1.639,1.109-2.655,1.742-3.609,2.456-1.27.95-2.162,1.006-2.856-.693-.875-2.141-2.088-4.153-2.858-6.325a10.362,10.362,0,0,1-.1-3.6,6.668,6.668,0,0,0-.31-3.12c-1.58,4.622-3.159,9.245-4.782,13.992,3.752,1.561,5.087,4.554,5.5,8.067a6.627,6.627,0,0,1-.564,2.227c-.786-.352-1.985-.5-2.286-1.091-1.2-2.372-2.116-4.884-3.053-7.137-2.54,6.033-3.724,13.244-7.63,19.511-2.315-1.256-3.162-2.714-2.311-5.165q3.9-11.232,7.577-22.541c2.355-7.231,4.575-14.506,6.882-21.753.45-1.414,1.022-2.79,1.544-4.18.619-1.649-.116-2.156-1.663-1.942a22.092,22.092,0,0,1-3.7.508c-.683-.024-1.341-.723-2.011-1.118.378-.579.626-1.473,1.152-1.687,4.361-1.772,8.663-3.989,13.217-4.859,2.234-.426,4.964,1.719,7.469,2.7l.051.848a12.952,12.952,0,0,1-2.032,1.223c-1.393.532-2.849.9-4.266,1.375-3.415,1.142-3.822,4.131-4.615,6.88l.537.361c.8-1.167,1.553-2.371,2.416-3.491.986-1.279,2.294-1.751,3.7-.744,1.222.875,1.956,1.875.048,2.994C642.644,25.776,640.854,27.212,640.688,30.251Zm-1.472,8.077c1.822-.322,3.419-.716,5.039-.867,2.652-.249,4.223-1.911,3.8-4.478a2.311,2.311,0,0,0-1.43-1.58C643.789,30.963,639.285,35.056,639.216,38.328Zm.945,7.058q1.281-1.644,2.561-3.289a5.163,5.163,0,0,0-1.74-.211C639.372,42.266,638.66,43.226,640.161,45.386Z"/><path d="M455.87,59.8a39.57,39.57,0,0,0-4.274,1.679,1.965,1.965,0,0,1-2.94-.753c-.419-.615-.91-1.182-1.377-1.764-1.965-2.449-1.826-3.207.763-4.838a6.16,6.16,0,0,0,1.615-1.489c2.92-3.9,5.8-7.829,8.844-11.96l-4.774-2.736c2.121-2.539,6.665-3.506,9.36-2.15.591.3,1.231.5,1.836.768,3.155,1.414,3.329,2.365.936,5.025-2.579,2.867-2.192,4.952,1.329,6.769,1.172.6,2.436,1.033,3.655,1.55,1.413.6,1.363,1.678.174,2.116-4.951,1.82-6.466,5.92-7.46,10.467a18.525,18.525,0,0,1-.853,2.24,16.74,16.74,0,0,0,2.216-.014c3.946-.574,7.871-1.355,11.835-1.705a8.563,8.563,0,0,1,4.558,1.167,65.25,65.25,0,0,1,6.8,4.571c.509.371.717,1.15,1.064,1.742a5.726,5.726,0,0,1-1.923.812c-4.388.051-8.88.561-13.134-.207-3.4-.613-6.281.4-9.411.744-6.173.688-12.38,1.333-18.581,1.412-2.617.033-5.288-1.343-7.637-3.477,4.016-.617,7.553-1.322,11.125-1.659,2.885-.272,4.861-1.32,5.6-4.253.3-1.171.775-2.3,1.171-3.441Zm-2.437-7.341c5.546-1.426,8-3.075,5.982-5.665Z"/><path d="M357.273,77.216a4.831,4.831,0,0,1,.16-5.44c1.734-2.627,3.447-5.27,5.092-7.952a29.918,29.918,0,0,0,1.492-3.19l-.492-.456c-2.191.863-4.363,1.78-6.578,2.578-3.4,1.224-5.407.218-6.271-3.041-.443-1.674.422-2.444,2.067-2.357a9.161,9.161,0,0,0,4.37-.654c3.635-1.789,7.118-3.881,10.662-5.854a.81.81,0,0,0,.218-.117c4.458-4.84,8.46-.8,12.934.443a6.792,6.792,0,0,0-1,1.689c-.159.817-.47,2.09-.068,2.451,2.374,2.13,2.014,4.732,1.663,7.391-.26,1.968-.556,3.933-.748,5.908-.321,3.307,1.332,5.517,4.715,5.565a37.281,37.281,0,0,0,9.351-.951c5.6-1.376,10.315.637,15.108,2.693l.1.74a33.481,33.481,0,0,1-5.168,2.064c-7.11,1.583-14.291,2.577-21.44.3-4.6-1.465-10.829-8.379-8.814-14.933a56.483,56.483,0,0,0,1.207-6.234l-.7-.443a37.335,37.335,0,0,0-3.434,3.578c-2.568,3.46-4.941,7.064-7.494,10.537C362.441,73.924,360.446,76.115,357.273,77.216Z"/><path d="M714.526,31.043c1.6-2.634,3.564-3.321,5.861-2.808a4.722,4.722,0,0,1,3.689,4.218,41.6,41.6,0,0,1-.053,15.527c-.892,4.325-.731,8.859-1.2,13.284a15.949,15.949,0,0,1-1.282,3.6,19.465,19.465,0,0,1-3.317-2.221c-1.491-1.5-2.744-3.233-4.349-5.173-.375.992-.756,1.993-1.132,3-.327.871-.649,1.742-.973,2.613l-2.4-1.293v2.357c-2.393-.144-4.44-2.53-4.646-5.255-.324-4.294-.559-8.595-.939-12.883-.254-2.862-.692-5.708-1.047-8.547l-2.6-.373c.661-1.063.98-2.09,1.679-2.619,5.147-3.894,7.252-9.733,9.979-15.179.3-.592.544-1.209.863-1.787.521-.945,1.239-2.72,1.6-2.654A19.168,19.168,0,0,1,719.3,16.7c.276.139.294,1.522-.038,2.018-4.053,6.059-6.9,13.165-14.117,16.535-1.248.583-1.631,1.251-.687,2.478a7.867,7.867,0,0,1,1.208,2.43c.892,2.853.782,2.65,3.713,1.6a22.1,22.1,0,0,1,6.683-1.13c1.3-.039,1.973.933,1.072,2.446-.918,1.543-1.55,3.255-2.42,5.134,2.421.542,2.226,1.818,1.531,3.542-.871,2.156.08,3.906,2.19,5.94.519-3.939,1.025-7.232,1.369-10.542.324-3.122.511-6.259.69-9.393a23.608,23.608,0,0,0-.061-3.971c-.313-2.8-.87-3.166-3.627-2.761A18.6,18.6,0,0,1,714.526,31.043ZM707.952,55.39l1.416.159,4.279-11.423c-1.984.584-3.333.933-4.643,1.4-.406.143-1,.584-1.006.9C707.921,49.41,707.952,52.4,707.952,55.39Z"/><path d="M11.067,66.993C6.352,64.937,5.124,62.5,6.172,57.8c1.4-6.3,2.836-12.591,4.17-18.9a29.381,29.381,0,0,0,.485-4.936c.023-.59-.264-1.632-.576-1.7a2.715,2.715,0,0,0-2.009.485C6.48,34.127,4.872,35.706,3.114,37.1c-.577.456-1.794.984-2.086.737a2.789,2.789,0,0,1-.99-2.275,15.243,15.243,0,0,1,2.149-4.288c3.926-5.515,7.95-10.962,11.948-16.427.9-1.232,1.019-2.326-.181-3.511-1.182-1.168-.675-2.028.748-2.574,1.909-.732,3.721-.9,5.317.693a2.467,2.467,0,0,0,.562.489c5.127,2.584,4.351,4.335.822,8.352-2.4,2.738-4.958,5.348-7.436,8.023-.594.642-1.153,1.316-1.454,1.66,1.333,1.463,2.884,2.5,3.409,3.924.553,1.494.124,3.348.124,5.652,3.849-2.026,6.9-1.864,9.963,1.468-2.357.951-4.354,2.175-6.5,2.531-3.769.626-4.023.631-4.614,4.417-.3,1.931-.694,3.847-1.113,6.138,4.2-.066,7.284-5.4,11.752-1.385a9.461,9.461,0,0,1-1.9,1.267A33.766,33.766,0,0,1,19.8,53.037c-8.454,1.985-5.927,1.006-7.608,8.379C11.769,63.245,11.445,65.1,11.067,66.993Z"/><path d="M353.66,56.339,366.572,43.3a38.932,38.932,0,0,1-3.87-1.249,2.032,2.032,0,0,1-.864-1.3c-.042-.165.633-.634,1.045-.766,3.605-1.154,7.473-1.8,10.759-3.537,2.549-1.349,4.376-4.051,6.524-6.152l-.516-1c-1.413.109-2.833.163-4.238.338-3.784.472-7.547,1.373-11.3-.367-.786-.365-1.889-.053-3.232-.053,1.106-2.525,2.139-4.924,3.209-7.306.541-1.205,1.18-2.367,1.721-3.573,1.375-3.059,1.5-5.884-1.453-8.233a9.976,9.976,0,0,1-1.553-2.088l.491-.765a68.58,68.58,0,0,1,7.189,3.228,49.79,49.79,0,0,1,5.716,4.4c1.74,1.395,1.459,2.961-.032,4.2-1.638,1.365-3.529,2.427-5.278,3.665-.707.5-1.329,1.12-1.99,1.684l.3.781a50.048,50.048,0,0,0,5.983-1.39c6.469-2.333,12.034-.327,17.266,3.349,1.91,1.341,1.833,2.048-.231,3.121-4.7,2.445-9.447,4.821-14.166,7.239-.2.1-.326.344-.621.671,2.421,1.737,1.038,3.07-.592,4.114-3.194,2.046-6.552,3.839-9.724,5.917-4.08,2.671-8.043,5.52-12.058,8.289-.248.171-.518.31-.777.464Z"/><path d="M435.6,47.417a68.778,68.778,0,0,0,4.743-5.668c4.531-6.812,8.951-13.7,13.357-20.592a34.687,34.687,0,0,0,2.828-5.219c1.044-2.5,2.622-.768,3.932-.612,1.228.146,2.118.7,1.774,2.361a2.73,2.73,0,0,0,1.068,2.276c5.318,3.194,10.636,6.411,16.137,9.273a25.276,25.276,0,0,0,8.155,2.6c4.353.582,7.526,3.264,11.076,5.287,1.3.744.957,1.7-.246,2.462-4.366,2.775-8.809,1.979-13.078.007-5.592-2.582-10.829-5.7-14.982-10.463-2.212-2.536-5-4.568-7.456-6.9-1.381-1.309-2.182-1.164-3.248.476-4.37,6.725-8.745,13.457-13.41,19.978a44.728,44.728,0,0,1-6.635,6.684C437.746,51.062,436.184,49.969,435.6,47.417Z"/><path d="M799.7,49.328c3.007,2.326,3.123,5.436,3.626,8.261.646,3.626.946,7.313,1.378,10.975.232,1.974,1.378,2.79,3.269,2.435,1.459-.274,2.859-.864,4.319-1.125,3.76-.672,7.52-1.463,11.316-1.772a5.8,5.8,0,0,0,5.445-3.939A30.154,30.154,0,0,1,830.68,61.3c1.209,1.411,2.116,2.456,3.008,3.514,1.377,1.635,2.767,3.259,4.1,4.928.539.672,1.5,1.766,1.3,2.115a4.2,4.2,0,0,1-2.361,1.881c-5.086,1.221-10.185,2.436-15.339,3.3a93.409,93.409,0,0,1-11.875,1.107,8.582,8.582,0,0,1-7.158-3.437,8.9,8.9,0,0,0-1.684-1.825c-3.865-2.663-4.392-6.11-3.238-10.468.946-3.57,1.061-7.357,1.579-11.043A14.053,14.053,0,0,1,799.7,49.328Z"/><path d="M25.4,68.685c-3.939,1.179-7.53,2.1-11.006,3.337-3.769,1.343-7.124.639-10.36-2.965,7.658-.439,13.882-5.665,21.743-4.119.368-6.022.729-11.858,1.081-17.694q.492-8.171.963-16.343c.033-.576-.04-1.158-.05-1.737-.088-4.964-2.864-6.142-7.017-3.888-1.928-2.834-1.426-3.241,1.7-4.4,4.007-1.483,6.149,1.519,9,2.841.412.191.663,1.159.653,1.761q-.252,14.016-.6,28.029c-.141,6.029-.318,12.057-.456,18.086-.044,1.9.06,3.813-.064,5.709-.04.629-.483,1.628-.917,1.733a2.461,2.461,0,0,1-1.831-.866C25.694,75.454,24.9,72.917,25.4,68.685Z"/><path d="M739.655,25.011c4.364-1.69,7.957-.2,11.412,1.626A3.494,3.494,0,0,1,752.673,29a84.065,84.065,0,0,1,.573,11.324,82.025,82.025,0,0,1-1.5,13.046c-1.2,5.813-2.807,11.553-4.475,17.255-.855,2.924-1.743,2.955-4.181.913-1.458-1.221-3.116-2.2-4.584-3.414-1.228-1.012-2.31-2.2-3.457-3.308l.432-.777a25.031,25.031,0,0,1,2.6.563c2.769.9,3.841.571,4.732-2.1,2.943-8.836,4.867-17.866,4.738-27.241-.009-.662,0-1.325.027-1.987.173-4.7.617-6.8-5.77-7.2C741.069,26.026,740.371,25.38,739.655,25.011Z"/><path d="M71.938,71.049c-3.138-.467-7.916-5.387-8.223-8.223C62.978,56.014,62.266,49.2,61.433,42.4a22.435,22.435,0,0,0-1.288-4.027c1.829-.639,2.451.715,3.411,1.7,5.329,5.47,5.41,12.728,6.794,19.53.658,3.236,1.078,6.521,1.577,9.787A11.348,11.348,0,0,1,71.938,71.049Z"/><path d="M731.059,37.592c4.152,3.3,8.176,6.441,12.106,9.692.628.519.834,1.545,1.407,2.678a7.858,7.858,0,0,1-7.228-2.1c-2.6-2.644-4.923-5.564-7.412-8.322a3.7,3.7,0,0,0-1.565-.912,2.848,2.848,0,0,1-1.4-4.528q4.131-6.29,8.061-12.707a10.281,10.281,0,0,0,1.2-3.49c.2-1.112.4-2.176,1.754-1.611,1.214.506,3.548.754,2.542,2.83C737.5,25.381,736.018,32.448,731.059,37.592Z"/><path d="M245.805,31.264c-.459,1.137-1.225,2.771-1.779,4.474-.7,2.145-1.184,4.359-1.846,6.517-.223.727-.6,1.839-1.089,1.949a2.924,2.924,0,0,1-2.339-.759,81.185,81.185,0,0,1-6.038-6.878,4.516,4.516,0,0,1-.732-3.225,2.6,2.6,0,0,0-1.479-3.207c-.77-.45-1.191-1.491-1.77-2.265.911.062,1.827.086,2.731.2a3.112,3.112,0,0,1,1.142.458c4.04,2.423,3.8,2.762,8.667-1.044a15.875,15.875,0,0,1,1.3-1.147,16.279,16.279,0,0,1,1.919-.879,10.667,10.667,0,0,1,.837,1.953C245.556,28.461,245.605,29.544,245.805,31.264Z"/><path d="M145.95,50.144c-.922-1.231-1.609-2.137-2.283-3.053-1.858-2.526-2.562-4.746-.84-8.077,2.244-4.344,3.278-9.309,5.1-14.822.99,1.235,1.966,2.021,2.371,3.033,1.629,4.068.687,8.2-.195,12.234a71.487,71.487,0,0,1-2.767,8.477A12.9,12.9,0,0,1,145.95,50.144Z"/><path d="M614.489,48.443c.572,1.735,1.144,3.471,1.9,5.776l4.586-8.226,1.161.454c-.718,2.877-1.469,5.747-2.148,8.634-.977,4.158-1.882,8.333-2.869,12.488a12.657,12.657,0,0,1-.91,2.1,11.179,11.179,0,0,1-1.7-1.262,55.721,55.721,0,0,1-3.879-4.485,3.05,3.05,0,0,1-.485-2.226c.885-3.93,1.9-7.83,2.9-11.733a9.663,9.663,0,0,1,.634-1.457Z"/><path d="M155.8,26.216c1.45-2.39,2.549-4.2,3.642-6.006,1.4-2.309,1.477-4.386-.644-6.458A37.929,37.929,0,0,1,155.257,8.9a7.724,7.724,0,0,1,1.876.016c4.808,2.254,9.534,4.623,13.235,8.592,1.1,1.18,1.071,2.059-.14,3.1C166.265,24.013,161.566,25.484,155.8,26.216Z"/><path d="M354.547,47.013c-3.526-2.168-4.1-4.043-2.937-7.689,1.174-3.685,2.093-7.449,3.179-11.161a28.854,28.854,0,0,1,1.2-2.909c2.629,1.515,4.36,5.321,3.574,7.66-1.416,4.21-2.886,8.4-4.345,12.6C355.054,45.97,354.82,46.4,354.547,47.013Z"/><path d="M653.467,51.529c2.7,2.535,5.723,4.815,8.01,7.678,2.371,2.967,1.58,6.729,1.315,10.262-2.847-.168-5.162-1.759-5.761-4.477-.894-4.05-1.673-8.083-4.108-11.581-.218-.314-.029-.908-.029-1.372Z"/><path d="M617.993,19.277c2.871.632,5.6,1.642,7.393,4.206,1.225,1.75.676,3.478-1.165,4.537-1.917,1.1-3.816,2.24-5.757,3.3a15.025,15.025,0,0,1-2.114.782l-.485-.633c1-1.233,1.933-2.519,3-3.687,2.707-2.958,2.729-3.469.034-6.25-.489-.5-.913-1.074-1.367-1.613Z"/><path d="M614.914,43.707a20.05,20.05,0,0,1,.345-3.255c.483-1.564-.188-2.06-1.625-2.3a27.5,27.5,0,0,1-4.745-1.221c-.424-.152-.681-1.024-.794-1.608-.031-.161.8-.753,1.119-.675a59.715,59.715,0,0,1,9.22,2.526c2.134.9,2.016,2.223.18,3.788C617.642,41.788,616.564,42.491,614.914,43.707Z"/></g></g></svg>
