<?xml version="1.0" encoding="UTF-8"?>
<svg width="16px" height="16px" viewBox="0 0 16 16" version="1.1" xmlns="http://www.w3.org/2000/svg" xmlns:xlink="http://www.w3.org/1999/xlink">
    <title>电话备份</title>
    <g id="联系我们" stroke="none" stroke-width="1" fill="none" fill-rule="evenodd">
        <g transform="translate(-360.000000, -431.000000)" fill="#116FEC" fill-rule="nonzero" id="电话备份">
            <g transform="translate(360.000000, 431.000000)">
                <path d="M14.4313596,11.0021878 C12.947155,10.0706316 12.7185411,9.95418713 12.2041597,10.0124094 C11.6897783,10.0706316 11.5183179,10.1870762 10.7771086,11.2914797 C10.6628016,11.4079242 9.69119239,12.9781058 6.09409491,9.48840904 C3.46682063,6.69555998 4.26696943,5.70760099 4.72419731,5.06715612 C5.18142519,4.6596003 5.63865308,4.42671126 5.75296005,3.72986357 C5.75296005,3.38053001 5.69580656,2.68186288 4.60989034,1.16990355 C3.86689503,0.0655000432 3.75258806,0.00727778258 3.23999274,0.00727778258 C2.78276486,-0.0509444781 1.98440211,0.240166825 1.18425331,0.880611693 C0.38410452,1.40461204 0.155490579,2.04505691 0.0429696548,2.80012685 C-0.0713373159,3.73168302 -0.242797772,6.93026846 3.69722062,11.3515214 C7.63723902,15.7727743 12.7203271,16.7625527 14.5474526,15.481663 C15.2904479,14.8994404 15.9173502,13.6785924 15.9745037,12.921703 C16.0888107,12.3394804 15.8601967,11.9319245 14.4313596,11.0021878 Z" id="路径"></path>
            </g>
        </g>
    </g>
</svg>