<?xml version="1.0" encoding="UTF-8"?>
<svg width="25px" height="20px" viewBox="0 0 25 20" version="1.1" xmlns="http://www.w3.org/2000/svg" xmlns:xlink="http://www.w3.org/1999/xlink">
    <title>微信</title>
    <g id="页面-1" stroke="none" stroke-width="1" fill="none" fill-rule="evenodd">
        <g id="首页" transform="translate(-1394.000000, -3479.000000)" fill="#666666" fill-rule="nonzero">
            <g id="微信" transform="translate(1394.000000, 3479.000000)">
                <path d="M16.923648,6.05121952 C17.2112935,6.05121952 17.4949713,6.0721052 17.7758863,6.10241278 C17.0105265,2.60163904 13.1989224,0 8.84858919,0 C3.98456759,0 0,3.25627117 0,7.39076216 C0,9.77692278 1.32592613,11.7367353 3.5407994,13.2567816 L2.65593753,15.8716055 L5.74888344,14.3478255 C6.85632009,14.5626622 7.74385647,14.784208 8.84858919,14.784208 C9.12612432,14.784208 9.40092614,14.7707898 9.67440541,14.7492624 C9.50135374,14.1687219 9.40092617,13.5599158 9.40092617,12.9288239 C9.40095555,9.13241262 12.7205321,6.05121952 16.923648,6.05121952 Z M12.1668138,3.69472477 C12.8331568,3.69472477 13.2742211,4.12574 13.2742211,4.77970122 C13.2742211,5.43094961 12.8331568,5.8673613 12.1668138,5.8673613 C11.5031454,5.8673613 10.8381544,5.43094961 10.8381544,4.77970122 C10.8381544,4.12574 11.5031748,3.69472477 12.1668138,3.69472477 Z M5.97416218,5.86733211 C5.31049375,5.86733211 4.64141744,5.43092042 4.64141744,4.77967203 C4.64141744,4.12571081 5.31049375,3.69469558 5.97416218,3.69469558 C6.63709586,3.69469558 7.07886549,4.12571081 7.07886549,4.77967203 C7.07886549,5.43094961 6.63709586,5.86733211 5.97416218,5.86733211 Z M25,12.8244246 C25,9.34993296 21.4598766,6.51793879 17.4841262,6.51793879 C13.2742211,6.51793879 9.9587298,9.34993299 9.9587298,12.8244246 C9.9587298,16.3039626 13.2742211,19.1298894 17.4841262,19.1298894 C18.3649027,19.1298894 19.2538499,18.9129816 20.138653,18.6948195 L22.5659907,20 L21.9002649,17.8287053 C23.6768366,16.5194702 25,14.784208 25,12.8244246 Z M15.0439448,11.7367353 C14.6035859,11.7367353 14.1591123,11.306391 14.1591123,10.8672665 C14.1591123,10.4342385 14.6035859,9.99849773 15.0439448,9.99849773 C15.7130211,9.99849773 16.1513814,10.4342385 16.1513814,10.8672665 C16.1513814,11.306391 15.7130211,11.7367353 15.0439448,11.7367353 Z M19.9106703,11.7367353 C19.4737207,11.7367353 19.0319511,11.306391 19.0319511,10.8672665 C19.0319511,10.4342385 19.4737207,9.99849773 19.9106703,9.99849773 C20.5743387,9.99849773 21.018107,10.4342385 21.018107,10.8672665 C21.018107,11.306391 20.5743387,11.7367353 19.9106703,11.7367353 Z" fill="#ffffff" id="形状"></path>
            </g>
        </g>
    </g>
</svg>
