<?xml version="1.0" encoding="UTF-8"?>
<svg width="64px" height="45px" viewBox="0 0 64 45" version="1.1" xmlns="http://www.w3.org/2000/svg" xmlns:xlink="http://www.w3.org/1999/xlink">
    <title>youtube (1)</title>
    <g id="联系我们" stroke="none" stroke-width="1" fill="none" fill-rule="evenodd">
        <g transform="translate(-601.000000, -661.000000)" fill="#FF0000" fill-rule="nonzero" id="youtube-(1)">
            <g transform="translate(601.000000, 661.000000)">
                <path d="M26.4705883,31.7647059 L26.4705883,13.2352941 L42.3529412,22.5317647 L26.4705883,31.7647059 Z M62.8941177,9.70676467 C62.8941177,9.70676467 62.2720588,5.29941173 60.3688236,3.35647057 C57.9520588,0.807352921 55.2441177,0.796764665 54.0026471,0.648529391 C45.1138236,1.76329539e-15 31.7779412,1.76329539e-15 31.7779412,1.76329539e-15 L31.7514706,1.76329539e-15 C31.7514706,1.76329539e-15 18.4155882,1.76329539e-15 9.52676469,0.648529391 C8.28264706,0.796764665 5.5773529,0.807352921 3.15794116,3.35647057 C1.25470588,5.29941173 0.635294118,9.70941175 0.635294118,9.70941175 C0.635294118,9.70941175 0,14.8817647 0,20.0567647 L0,24.9141176 C0,30.0917647 0.635294118,35.2694117 0.635294118,35.2694117 C0.635294118,35.2694117 1.25470588,39.6767647 3.15794116,41.6197059 C5.5773529,44.1688235 8.75117647,44.0867647 10.1647059,44.3541176 C15.2470588,44.8491176 31.7647059,45 31.7647059,45 C31.7647059,45 45.1138236,44.9788236 54.0026471,44.3329412 C55.2467647,44.1820588 57.9520589,44.1714706 60.3688236,41.6223529 C62.2747059,39.6794118 62.8941177,35.2694117 62.8941177,35.2694117 C62.8941177,35.2694117 63.5294118,30.0944118 63.5294118,24.9167647 L63.5294118,20.0620588 C63.5294118,14.8844117 62.8941177,9.70676467 62.8941177,9.70676467 Z" id="形状"></path>
            </g>
        </g>
    </g>
</svg>