<?xml version="1.0" encoding="UTF-8"?>
<svg width="22px" height="22px" viewBox="0 0 22 22" version="1.1" xmlns="http://www.w3.org/2000/svg" xmlns:xlink="http://www.w3.org/1999/xlink">
    <title>支付-支付宝</title>
    <g id="插件购买弹窗" stroke="none" stroke-width="1" fill="none" fill-rule="evenodd">
        <g id="插件详情页-微信支付" transform="translate(-769.000000, -596.000000)" fill="#02A9F1" fill-rule="nonzero">
            <g id="支付-支付宝" transform="translate(769.000000, 596.000000)">
                <path d="M22.0000016,14.9722233 L14.9233344,12.592557 C14.9233344,12.592557 15.4672232,11.7785571 16.0477787,10.1823351 C16.6283341,8.58611312 16.7114452,7.70977992 16.7114452,7.70977992 L12.130557,7.67311325 L12.130557,6.10622462 L17.6794451,6.0671135 L17.6794451,4.96222479 L12.130557,4.96222479 L12.130557,2.44444737 L9.41111299,2.44444737 L9.41111299,4.96222479 L4.2362249,4.96222479 L4.2362249,6.06833573 L9.41233522,6.03166907 L9.41233522,7.70977992 L5.26044695,7.70977992 L5.26044695,8.58611312 L13.8062235,8.58611312 C13.8062235,8.58611312 13.7121124,9.29744634 13.3845569,10.1823351 C13.1767275,10.7410231 12.9550293,11.2944536 12.7196681,11.8421126 C12.7196681,11.8421126 8.7071131,10.4377795 6.59266898,10.4377795 C4.47822486,10.4377795 1.90666969,11.2872238 1.65733639,13.7524457 C1.40922533,16.2164453 2.85511398,17.5511118 4.89255814,18.042445 C6.93000226,18.5362227 8.81100198,18.0375561 10.4487795,17.2357785 C12.086557,16.435223 13.693779,14.6153344 13.693779,14.6153344 L21.9413333,18.6205561 C21.6049018,20.5746744 19.9092007,22.0019539 17.9263339,22.0000016 L4.07366936,22.0000016 C2.99423827,22.0009729 1.95863144,21.5731034 1.19467077,20.810518 C0.430710094,20.0479326 0.000975327811,19.0130984 1.64989754e-06,17.9336673 L1.64989754e-06,4.07366936 C-0.000969593065,2.99423827 0.426899911,1.95863144 1.18948532,1.19467077 C1.95207073,0.430710094 2.98690494,0.000975327811 4.06633603,1.64989754e-06 L17.9263339,1.64989754e-06 C19.005765,-0.000969593065 20.0413719,0.426899911 20.8053325,1.18948532 C21.5692932,1.95207073 21.999028,2.98690494 22.0000016,4.06633603 L22.0000016,14.9722233 Z M11.6856682,13.5935568 C11.6856682,13.5935568 9.1116686,16.8446674 6.07811349,16.8446674 C3.04333618,16.8446674 2.40655851,15.2997788 2.40655851,14.1887789 C2.40655851,13.0790013 3.03722508,11.8726682 5.61978023,11.6978904 C8.19989094,11.5231127 11.6881127,13.5935568 11.6881127,13.5935568 L11.6856682,13.5935568 L11.6856682,13.5935568 Z" id="形状"></path>
            </g>
        </g>
    </g>
</svg>