<?xml version="1.0" encoding="UTF-8"?>
<svg width="37px" height="37px" viewBox="0 0 37 37" version="1.1" xmlns="http://www.w3.org/2000/svg" xmlns:xlink="http://www.w3.org/1999/xlink">
    <title>关闭</title>
    <g id="首页-网页" stroke="none" stroke-width="1" fill="none" fill-rule="evenodd">
        <g id="首页-软件演示备份-3" transform="translate(-1253.000000, -285.000000)" fill="#BABABA" fill-rule="nonzero">
            <g id="关闭" transform="translate(1253.482094, 285.000000)">
                <path d="M18.5179063,0 C8.57650634,0 0.517906336,8.05860001 0.517906336,18 C0.517906336,27.9414 8.57650634,36 18.5179063,36 C28.4593063,36 36.5179063,27.9414 36.5179063,18 C36.5179063,8.05860001 28.4593063,0 18.5179063,0 Z M18.5179063,34.2 C9.57010631,34.2 2.31790632,26.9478 2.31790632,18 C2.31790632,9.05219997 9.57010631,1.79999998 18.5179063,1.79999998 C27.4657064,1.79999998 34.7179064,9.05219997 34.7179064,18 C34.7179064,26.9478 27.4657064,34.2 18.5179063,34.2 Z M26.7907063,9.7272 C26.4397063,9.37619998 25.8691063,9.37619998 25.5181064,9.7272 L18.5179063,16.7274 L11.5177063,9.7272 C11.1667063,9.37619998 10.5961063,9.37619998 10.2451063,9.7272 C9.89410632,10.0782 9.89410632,10.6488 10.2451063,10.9998 L17.2453063,18 L10.2451063,25.0002 C9.89410632,25.3512 9.89410632,25.9218 10.2451063,26.2728 C10.5961063,26.6238 11.1667063,26.6238 11.5177063,26.2728 L18.5179063,19.2726 L25.5181064,26.2728 C25.8691064,26.6238001 26.4397064,26.6238001 26.7907063,26.2728 C27.1417064,25.9218 27.1417064,25.3512 26.7907063,25.0002001 L19.7905063,18 L26.7907063,10.9998 C27.1417064,10.6488 27.1417064,10.0782 26.7907063,9.7272 Z" id="形状"></path>
            </g>
        </g>
    </g>
</svg>