<?xml version="1.0" encoding="UTF-8"?>
<svg width="28px" height="24px" viewBox="0 0 28 24" version="1.1" xmlns="http://www.w3.org/2000/svg" xmlns:xlink="http://www.w3.org/1999/xlink">
    <title>联系我们 (1)</title>
    <g id="手机显示" stroke="none" stroke-width="1" fill="none" fill-rule="evenodd">
        <g id="首页-手机版-侧边栏" transform="translate(-32.000000, -480.000000)" fill="#666666" fill-rule="nonzero">
            <g id="联系我们-(1)" transform="translate(32.000000, 480.000000)">
                <path d="M2.48883197,1.40995817e-06 L25.511168,1.40995817e-06 C26.8876266,1.40995817e-06 28.0000014,1.09762955 28.0000014,2.45452783 L28.0000014,19.0307971 C28.000706,19.6823408 27.7387185,20.3074001 27.2718187,20.7681114 C26.804919,21.2288226 26.1714636,21.4873377 25.511168,21.4866382 L18.6875616,21.4866382 C18.2740905,21.4866382 17.8739572,21.6182481 17.5498492,21.868307 L15.2424139,23.6187189 C14.5265153,24.1612873 13.5197802,24.1208425 12.8509505,23.5226437 L11.1170396,21.9670144 C10.7728162,21.6586012 10.3242388,21.4882137 9.85928728,21.4892704 L2.48883197,21.4892704 C1.8285364,21.4899699 1.19508104,21.2314548 0.728181292,20.7707436 C0.261281548,20.3100323 -0.000705986177,19.6849731 1.42889739e-06,19.0334293 L1.42889739e-06,2.45584391 C-0.000705986177,1.80430019 0.261281548,1.17924092 0.728181292,0.718529663 C1.19508104,0.257818409 1.8285364,-0.000696628732 2.48883197,1.40995817e-06 Z M5.90863786,12.2792083 C7.11191489,12.2792083 8.08736366,11.3166885 8.08736366,10.1293602 C8.08736366,8.94203196 7.11191489,7.97951221 5.90863786,7.97951221 C4.70536083,7.97951221 3.72991206,8.94203196 3.72991206,10.1293602 C3.72991206,11.3166885 4.70536083,12.2792083 5.90863786,12.2792083 L5.90863786,12.2792083 Z M13.9979993,12.2792083 C15.2012764,12.2792083 16.1767251,11.3166885 16.1767251,10.1293602 C16.1767251,8.94203196 15.2012764,7.97951221 13.9979993,7.97951221 C12.7947223,7.97951221 11.8192736,8.94203196 11.8192736,10.1293602 C11.8192736,11.3166885 12.7947223,12.2792083 13.9979993,12.2792083 L13.9979993,12.2792083 Z M22.0886946,12.2792083 C23.2919716,12.2792083 24.2674204,11.3166885 24.2674204,10.1293602 C24.2674204,8.94203196 23.2919716,7.97951221 22.0886946,7.97951221 C20.8854176,7.97951221 19.9099688,8.94203196 19.9099688,10.1293602 C19.9099688,11.3166885 20.8854176,12.2792083 22.0886946,12.2792083 L22.0886946,12.2792083 Z" id="形状"></path>
            </g>
        </g>
    </g>
</svg>