<?xml version="1.0" encoding="UTF-8"?>
<svg width="28px" height="26px" viewBox="0 0 28 26" version="1.1" xmlns="http://www.w3.org/2000/svg" xmlns:xlink="http://www.w3.org/1999/xlink">
    <title>演示 (1)</title>
    <g id="手机显示" stroke="none" stroke-width="1" fill="none" fill-rule="evenodd">
        <g id="首页-手机版-侧边栏" transform="translate(-32.000000, -370.000000)" fill-rule="nonzero">
            <g id="演示-(1)" transform="translate(32.000000, 370.000000)">
                <path d="M22.3524954,25.9999999 L5.6292793,25.9999999 C5.26534881,26.0001284 4.91682556,25.8579678 4.66294156,25.6058363 C4.40905756,25.3537048 4.27138451,25.0130253 4.28122049,24.6612465 C4.28115403,23.9384261 4.88182975,23.3497458 5.6292793,23.3401082 L22.3524954,23.3401082 C23.092803,23.3592043 23.6824622,23.9451417 23.6824622,24.6612465 C23.6872883,25.0130799 23.5449322,25.3519054 23.2876247,25.6007123 C23.0303172,25.8495191 22.6799155,25.9871722 22.3160614,25.9823846 L22.3524954,25.9999999 Z M1.4940178,0 C0.669017666,0 0.000108897167,0.646699813 0.000108897167,1.44444444 L0.000108897167,20.2750676 C-0.00471768994,20.6596028 0.151076792,21.0297851 0.432295806,21.3017135 C0.713514821,21.5736419 1.09634474,21.7242894 1.4940178,21.719512 L26.4877569,21.719512 C26.888559,21.7291154 27.2761477,21.5806019 27.5613575,21.3081373 C27.8465673,21.0356727 28.0048415,20.6627163 27.9998871,20.2750676 L27.9998871,1.44444444 C27.9897929,0.64385875 27.3157552,0 26.4877569,0 L1.4940178,0 Z" id="形状" fill="#666666"></path>
                <path d="M19.4013396,11.8902438 L11.786629,17.0338752 C11.5381183,17.1954244 11.2024078,17.1413212 11.0215146,16.910569 C10.9929277,16.8066853 10.9929277,16.6973795 11.0215146,16.5934958 L11.0215146,6.30623303 C11.0163708,6.1646117 11.0722959,6.02728773 11.1759226,5.92708459 C11.2795492,5.82688145 11.421565,5.77280393 11.5680249,5.77777775 C11.677491,5.78015122 11.78435,5.81054202 11.8777141,5.86585361 L19.4924247,11.009485 C19.6112316,11.0909186 19.6915134,11.2148352 19.7154544,11.3537356 C19.7393955,11.4926361 19.7050154,11.6350317 19.6199437,11.7493224 C19.5616379,11.8145939 19.486074,11.8633056 19.4013396,11.8902438 L19.4013396,11.8902438 Z" id="路径" fill="#FFFFFF"></path>
            </g>
        </g>
    </g>
</svg>