<?xml version="1.0" encoding="UTF-8"?>
<svg width="60px" height="46px" viewBox="0 0 60 46" version="1.1" xmlns="http://www.w3.org/2000/svg" xmlns:xlink="http://www.w3.org/1999/xlink">
    <title>网约车平台_多平台备份</title>
    <g id="手机显示" stroke="none" stroke-width="1" fill="none" fill-rule="evenodd">
        <g id="首页-手机版" transform="translate(-166.000000, -1032.000000)" fill="#000000" fill-rule="nonzero">
            <g id="网约车平台_多平台备份" transform="translate(166.000000, 1032.000000)">
                <path d="M21.2563712,11.4998591 L37.4644433,11.4998591 C39.531702,11.4998591 41.060328,12.4104041 41.9821399,14.2842598 C42.3230467,14.9769776 42.4485004,15.7332846 42.438955,16.516651 C42.428046,20.886726 42.438955,25.2635658 42.438955,29.6322878 L42.438955,36.6947619 C42.438955,39.6306946 40.4071506,41.6831416 37.4821704,41.6831416 C26.6686073,41.6939653 15.8454988,41.6831416 5.03057199,41.6831416 C2.83104142,41.6831416 1.04196265,40.4857681 0.326058403,38.5672646 C0.111745071,37.9907534 0.00276718817,37.3809426 0.0042423939,36.766469 C0.0042423939,30.0016471 -0.00530299237,23.2462959 0.0042423939,16.480121 C0.0042423939,13.5983069 2.11513718,11.4998591 5.00466305,11.4998591 L21.2563712,11.4998591 Z M21.2740983,39.1436275 C26.6863344,39.1436275 32.1067523,39.1260389 37.5189883,39.153161 C38.9412514,39.1625689 40.0144259,38.0991389 40.0062907,36.6487611 C39.9871534,29.9191162 39.9953352,23.2002951 39.9953352,16.4720032 C39.9953352,14.9133882 39.048978,13.9595483 37.4917158,13.9595483 L5.00466305,13.9595483 C3.49376417,13.9595483 2.53649797,14.8957997 2.53649797,16.4192376 C2.52831619,23.165118 2.53649797,29.9218222 2.53649797,36.6677026 C2.53649797,37.0546505 2.56377052,37.4321275 2.74240564,37.793369 C3.22512966,38.7296204 3.98466996,39.153161 5.0319356,39.1436275 C10.4523534,39.1355097 15.8645895,39.1436275 21.275462,39.1436275 L21.2740983,39.1436275 Z" id="形状"></path>
                <path d="M59.9983815,23.0352335 L59.9983815,42.0335594 C59.9983815,43.3689352 59.5592936,44.5094842 58.4220286,45.315851 C57.7732331,45.7710461 56.9951893,46.0094107 56.20068,45.9963921 C52.7016128,46.0045099 49.2080001,45.9963921 45.7075693,45.9963921 C45.1703002,45.9963921 44.9548471,45.7745059 44.9371199,45.2346731 C44.9289381,44.9086087 44.9289381,44.5717206 44.9371199,44.2443032 C44.9548471,43.7410004 45.1784819,43.5191143 45.6980239,43.5109965 C46.4139281,43.5015257 47.1298324,43.5109965 47.8471002,43.5109965 L56.0138631,43.5109965 C57.0338562,43.5109965 57.4647624,43.0875186 57.4729441,42.0687364 C57.4729441,40.3342361 57.4647623,38.6010887 57.4824895,36.8679414 C57.4824895,36.5675833 57.3843084,36.4958762 57.096583,36.4958762 C53.337063,36.5066999 49.5761794,36.5066999 45.8139322,36.5066998 C45.0434828,36.5066998 44.8648477,36.3375793 44.8648477,35.5677426 C44.8648477,35.3106793 44.8566659,35.0468513 44.8648477,34.7897881 C44.8743931,34.259426 45.0980279,34.0375398 45.635297,34.0294221 L45.9216587,34.0294221 C49.6389063,34.0294221 53.3452448,34.0294221 57.0624924,34.0375398 C57.3761266,34.0375398 57.4824895,33.9766564 57.4824895,33.6397683 C57.4729441,23.7685402 57.4729441,13.9000179 57.4729441,4.02743677 C57.4729441,3.67296011 57.4552169,3.3198364 57.2315821,3.00865456 C57.0003657,2.66630363 56.6076375,2.46636137 56.1924982,2.47964548 L37.2462629,2.47964548 C36.1089979,2.47964548 35.6426374,2.93965339 35.6426374,4.07073163 L35.6426374,8.07144731 C35.6426374,8.70734058 35.4367297,8.91975599 34.7835523,8.92922674 C34.4521909,8.92922674 34.1112841,8.93734454 33.7799228,8.91975599 C33.3503802,8.89269669 33.1349271,8.68975203 33.1349271,8.26492122 C33.1267453,6.67248214 33.0817457,5.08139604 33.1621997,3.48895695 C33.2590172,1.50686411 34.8994606,0.0131914122 36.9312651,0.0131914122 C43.3525852,-0.0043971374 49.7807235,-0.0043971374 56.20068,0.0131914122 C58.4220286,0.0213092147 59.9806544,1.70169096 59.9806544,4.01120121 C60.007927,10.3525453 59.9983816,16.6938894 59.9983815,23.0365864 L59.9983815,23.0352335 L59.9983815,23.0352335 Z M21.2618257,45.9246849 L0.988781149,45.9246849 C0.184241126,45.9246849 0.00424234862,45.7487996 0.0042423939,44.9437858 C0.0042423939,44.6880755 -0.00393938517,44.4215415 0.0042423939,44.1658312 C0.0315149455,43.6787641 0.25378618,43.4663487 0.747419142,43.4392894 L41.4721434,43.4392894 C41.5798699,43.4392894 41.6875965,43.4311716 41.7939594,43.4392894 C42.2153202,43.4758194 42.438955,43.6692933 42.4566822,44.0860063 C42.4839547,44.4837779 42.4744093,44.8910202 42.4566822,45.2887917 C42.438955,45.6865632 42.223502,45.8732723 41.8212319,45.9165672 C41.6780511,45.9246849 41.5348703,45.9246849 41.3916894,45.9246849 L21.2618257,45.9246849 Z" id="形状"></path>
                <path d="M48.2930063,40.2544112 C48.2712354,41.0431105 47.6276591,41.6750961 46.8325616,41.6885535 C46.0402943,41.6885535 45.3734806,41.0323658 45.3652988,40.2544112 C45.3652988,39.4683389 46.048476,38.8067393 46.8489251,38.8135042 C47.6474792,38.8187067 48.2922743,39.4620846 48.2930063,40.2544112 L48.2930063,40.2544112 Z" id="路径"></path>
            </g>
        </g>
    </g>
</svg>