<?xml version="1.0" encoding="UTF-8"?>
<svg width="46px" height="50px" viewBox="0 0 46 50" version="1.1" xmlns="http://www.w3.org/2000/svg" xmlns:xlink="http://www.w3.org/1999/xlink">
    <title>权限设置备份</title>
    <g id="手机显示" stroke="none" stroke-width="1" fill="none" fill-rule="evenodd">
        <g id="首页-手机版" transform="translate(-173.000000, -1305.000000)" fill="#000000" fill-rule="nonzero">
            <g id="权限设置备份" transform="translate(173.000000, 1305.000000)">
                <path d="M23,35.7142857 C23.6639482,35.7142857 24.2087262,35.1785714 24.2087262,34.5256696 L24.2087262,26.0825893 C27.6419626,25.5133929 30.2637067,22.5837054 30.2637067,19.0457589 C30.2637067,15.1004464 27.012063,11.9029018 23,11.9029018 C18.987937,11.9029018 15.7362933,15.1004464 15.7362933,19.0457589 C15.7362933,22.5837054 18.3580374,25.5133929 21.7912738,26.0825893 L21.7912738,34.5256696 C21.7912738,35.1785714 22.3360518,35.7142857 23,35.7142857 Z M18.1594204,19.0457589 C18.1594204,16.4174107 20.3271829,14.2857143 23,14.2857143 C25.6728171,14.2857143 27.8405796,16.4174107 27.8405796,19.0457589 C27.8405796,21.6741071 25.6728171,23.8058036 23,23.8058036 C20.3271829,23.8058036 18.1594204,21.6796875 18.1594204,19.0457589 L18.1594204,19.0457589 Z" id="形状"></path>
                <path d="M44.7911202,21.4285714 C44.1214972,21.4285714 43.582394,21.9642857 43.582394,22.6171875 L43.582394,28.0747768 C43.6334669,37.8738839 27.1255584,45.8928571 23,47.4832589 C18.8744416,45.8984375 2.36653309,37.8738839 2.41760603,28.0636161 L2.41760603,7.20982143 C12.3825037,6.49553571 15.9349103,5.21205357 22.9886505,2.3828125 L23.0056748,2.3828125 C30.059415,5.21205357 33.6174963,6.49553571 43.582394,7.20982143 L43.582394,13.0970982 C43.582394,13.7555804 44.127172,14.2857143 44.7911202,14.2857143 C45.4607431,14.2857143 46,13.75 46,13.0970982 L46,6.09933036 C46,5.46875 45.4947918,4.95535714 44.8592174,4.91071429 C34.1565995,4.21875 30.8425334,2.95200893 23.9193129,0.178571429 C23.6242248,0.0558035714 23.3121124,0 23,0 C22.6878876,0 22.3757752,0.0558035714 22.0806871,0.172991071 C15.1574666,2.94642857 11.8434005,4.21316964 1.14078259,4.90513393 C0.505208248,4.94419643 0,5.46316964 0,6.09375 L0,28.0636161 C-0.0679436108,40.9486607 22.5233192,50 22.9943252,50 C23,50 23,50 23,49.9944196 C23,49.9944196 23,50 23.0056748,50 C23.4766808,50 46.0679436,40.9486607 46,28.0636161 L46,22.6171875 C46,21.9642857 45.4607431,21.4285714 44.7911202,21.4285714 Z" id="路径"></path>
            </g>
        </g>
    </g>
</svg>