<?xml version="1.0" encoding="UTF-8"?>
<svg width="46px" height="46px" viewBox="0 0 46 46" version="1.1" xmlns="http://www.w3.org/2000/svg" xmlns:xlink="http://www.w3.org/1999/xlink">
    <title>gitee-fill-round备份</title>
    <g id="手机显示" stroke="none" stroke-width="1" fill="none" fill-rule="evenodd">
        <g id="首页-手机版" transform="translate(-358.000000, -4429.000000)" fill="#666666" fill-rule="nonzero">
            <g id="gitee-fill-round备份" transform="translate(358.000000, 4429.000000)">
                <path d="M23,46 C10.35,46 0,35.65 0,23 C0,10.35 10.35,0 23,0 C35.65,0 46,10.35 46,23 C46,35.65 35.65,46 23,46 Z M34.64375,20.4125 L21.5625,20.4125 C20.9875,20.4125 20.4125,20.9875 20.4125,21.5625 L20.4125,24.4375 C20.4125,25.0125 20.9875,25.5875 21.5625,25.5875 L29.46875,25.5875 C30.04375,25.5875 30.61875,26.1625 30.61875,26.7375 L30.61875,27.3125 C30.61875,29.18125 29.0375,30.7625 27.16875,30.7625 L16.3875,30.7625 C15.8125,30.7625 15.2375,30.1875 15.2375,29.6125 L15.2375,18.6875 C15.2375,16.81875 16.81875,15.2375 18.6875,15.2375 L34.64375,15.2375 C35.21875,15.2375 35.79375,14.6625 35.79375,14.0875 L35.79375,11.2125 C35.79375,10.6375 35.21875,10.0625 34.64375,10.0625 L18.6875,10.0625 C13.94375,10.0625 10.20625,13.94375 10.20625,18.54375 L10.20625,34.5 C10.20625,35.075 10.78125,35.65 11.35625,35.65 L28.175,35.65 C32.34375,35.65 35.79375,32.2 35.79375,28.03125 L35.79375,21.5625 C35.79375,20.9875 35.21875,20.4125 34.64375,20.4125 Z" id="形状"></path>
            </g>
        </g>
    </g>
</svg>