<?xml version="1.0" encoding="UTF-8"?>
<svg width="30px" height="30px" viewBox="0 0 30 30" version="1.1" xmlns="http://www.w3.org/2000/svg" xmlns:xlink="http://www.w3.org/1999/xlink">
    <title>gitee-fill-round</title>
    <g id="手机显示" stroke="none" stroke-width="1" fill="none" fill-rule="evenodd">
        <g id="首页-手机版" transform="translate(-283.000000, -378.000000)" fill="#333333" fill-rule="nonzero">
            <g id="gitee-fill-round" transform="translate(283.000000, 378.000000)">
                <path d="M15,30 C6.75,30 0,23.25 0,15 C0,6.75 6.75,0 15,0 C23.25,0 30,6.75 30,15 C30,23.25 23.25,30 15,30 Z M22.59375,13.3125 L14.0625,13.3125 C13.6875,13.3125 13.3125,13.6875 13.3125,14.0625 L13.3125,15.9375 C13.3125,16.3125 13.6875,16.6875 14.0625,16.6875 L19.21875,16.6875 C19.59375,16.6875 19.96875,17.0625 19.96875,17.4375 L19.96875,17.8125 C19.96875,19.03125 18.9375,20.0625 17.71875,20.0625 L10.6875,20.0625 C10.3125,20.0625 9.9375,19.6875 9.9375,19.3125 L9.9375,12.1875 C9.9375,10.96875 10.96875,9.9375 12.1875,9.9375 L22.59375,9.9375 C22.96875,9.9375 23.34375,9.5625 23.34375,9.1875 L23.34375,7.3125 C23.34375,6.9375 22.96875,6.5625 22.59375,6.5625 L12.1875,6.5625 C9.09375,6.5625 6.65625,9.09375 6.65625,12.09375 L6.65625,22.5 C6.65625,22.875 7.03125,23.25 7.40625,23.25 L18.375,23.25 C21.09375,23.25 23.34375,21 23.34375,18.28125 L23.34375,14.0625 C23.34375,13.6875 22.96875,13.3125 22.59375,13.3125 Z" id="形状"></path>
            </g>
        </g>
    </g>
</svg>