<?xml version="1.0" encoding="UTF-8"?>
<svg width="46px" height="46px" viewBox="0 0 46 46" version="1.1" xmlns="http://www.w3.org/2000/svg" xmlns:xlink="http://www.w3.org/1999/xlink">
    <title>github-fill备份</title>
    <g id="手机显示" stroke="none" stroke-width="1" fill="none" fill-rule="evenodd">
        <g id="首页-手机版" transform="translate(-562.000000, -4429.000000)" fill="#666666" fill-rule="nonzero">
            <g id="github-fill备份" transform="translate(562.000000, 4429.000000)">
                <path d="M23.0025695,7.50171321e-16 C10.2935985,-0.00527688464 0,10.5630036 0,23.60707 C0,33.9219652 6.43928053,42.6901539 15.4069936,45.9102594 C16.6146799,46.2217122 16.4296727,45.3401423 16.4296727,44.7383521 L16.4296727,40.6472346 C9.45592671,41.4865735 9.17327673,36.746156 8.70561948,35.9543268 C7.76002681,34.2967643 5.5245224,33.8744554 6.19260418,33.0826262 C7.78058318,32.2432873 9.39939672,33.2937807 11.2751648,36.139087 C12.6318847,38.2031217 15.2785164,37.8547169 16.619819,37.5115909 C16.9127472,36.2710585 17.5397162,35.1624976 18.4030835,34.3020432 C11.1775221,32.9717701 8.16601497,28.4425071 8.16601497,23.0580685 C8.16601497,20.4450321 9.00368674,18.0431502 10.6481957,16.105808 C9.59982125,12.9120969 10.7458385,10.1776467 10.9000112,9.77117438 C13.8858228,9.49667359 16.9898335,11.9671807 17.2313708,12.1624986 C18.9272707,11.6926799 20.8647079,11.4445734 23.0334041,11.4445734 C25.2123785,11.4445734 27.1549548,11.7032376 28.8662719,12.1783352 C29.4469892,11.7243531 32.3248799,9.60225082 35.0999888,9.86091503 C35.2490225,10.2673874 36.3693442,12.9384912 35.3826388,16.0899714 C37.0477042,18.0325924 37.8956541,20.4555898 37.8956541,23.073905 C37.8956541,28.4689014 34.8635907,33.0034433 27.6174729,34.3126009 C28.8251592,35.5372968 29.5754664,37.2370901 29.5754664,39.1163648 L29.5754664,45.0550838 C29.6165792,45.5301813 29.5754664,46 30.34633,46 C39.4476595,42.8485198 46,34.0169847 46,23.6123489 C46,10.5630036 35.7012624,7.50171321e-16 23.0025695,7.50171321e-16 Z" id="路径"></path>
            </g>
        </g>
    </g>
</svg>