<?xml version="1.0" encoding="UTF-8"?>
<svg width="28px" height="28px" viewBox="0 0 28 28" version="1.1" xmlns="http://www.w3.org/2000/svg" xmlns:xlink="http://www.w3.org/1999/xlink">
    <title>说明</title>
    <g id="手机显示" stroke="none" stroke-width="1" fill="none" fill-rule="evenodd">
        <g id="首页-手机版-侧边栏" transform="translate(-32.000000, -589.000000)" fill="#666666" fill-rule="nonzero">
            <g id="说明" transform="translate(32.000000, 589.000000)">
                <path d="M24.22616,27.9540682 C22.26448,28.1886872 20.4526,27.4481444 20.4526,27.4481444 C19.8778244,27.7807668 19.2274861,27.9551624 18.56596,27.9540682 L3.47228,27.9540682 C1.38852,27.9540682 0,26.2753339 0,24.1867985 L0,3.22522877 C0,1.13612459 1.61476,0 3.69852,0 L18.4926,0 C20.57636,0 22.19112,1.13612459 22.19112,3.22522877 L22.19112,5.37490731 L24.30456,5.37490731 C26.38832,5.37490731 28,6.95467504 28,9.04349484 L28,24.1720104 C28,26.2602614 26.18784,27.7188805 24.22616,27.9540682 Z M15.85052,6.98681073 L6.34004,6.98681073 C6.05946049,6.98703683 5.79046946,7.10049866 5.59227989,7.30221987 C5.39409033,7.50394108 5.28294848,7.77738591 5.28331907,8.06236097 C5.28309713,8.34723753 5.39430462,8.62053621 5.59247809,8.82213436 C5.79065155,9.02373251 6.05955762,9.13711625 6.34004,9.13734243 L15.85052,9.13734243 C16.1310024,9.13711625 16.3999085,9.02373251 16.5980819,8.82213436 C16.7962554,8.62053621 16.9074629,8.34723753 16.9072409,8.06236097 C16.9076115,7.77738591 16.7964697,7.50394108 16.5982801,7.30221987 C16.4000905,7.10049866 16.1310995,6.98703683 15.85052,6.98681073 Z M15.85052,12.3620024 L6.34004,12.3620024 C6.05955762,12.3622286 5.79065155,12.4756124 5.59247809,12.6772105 C5.39430462,12.8788087 5.28309713,13.1521073 5.28331941,13.4369839 C5.28302282,13.7218835 5.39420642,13.995226 5.59239597,14.1968406 C5.79058553,14.3984551 6.05953479,14.5118146 6.34004,14.5119654 L15.85052,14.5119654 C16.1310252,14.5118146 16.3999745,14.3984551 16.598164,14.1968406 C16.7963536,13.995226 16.9075372,13.7218835 16.9072406,13.4369839 C16.9075372,13.1520843 16.7963536,12.8787418 16.598164,12.6771272 C16.3999745,12.4755127 16.1310252,12.3621532 15.85052,12.3620024 L15.85052,12.3620024 Z M15.85052,18.2741161 L6.34004,18.2741161 C6.05946049,18.2743422 5.79046946,18.387804 5.59227989,18.5895252 C5.39409033,18.7912464 5.28294848,19.0646913 5.28331907,19.3496663 C5.28309713,19.6345429 5.39430462,19.9078416 5.59247809,20.1094397 C5.79065155,20.3110379 6.05955762,20.4244216 6.34004,20.4246478 L15.85052,20.4246478 C16.1310024,20.4244216 16.3999085,20.3110379 16.5980819,20.1094397 C16.7962554,19.9078416 16.9074629,19.6345429 16.9072409,19.3496663 C16.9076115,19.0646913 16.7964697,18.7912464 16.5982801,18.5895252 C16.4000905,18.387804 16.1310995,18.2743422 15.85052,18.2741161 Z M25.88936,10.2120395 C25.88936,8.40134983 24.5252,6.98681073 22.7192,6.98681073 L22.19084,6.98681073 L22.19084,24.1865141 C22.19084,24.8750142 21.98364,25.2421573 21.66248,25.7987019 L23.24756,25.7987019 C25.05356,25.7987019 25.88936,24.3841628 25.88936,22.5740419 L25.88936,10.2120395 Z" id="形状"></path>
            </g>
        </g>
    </g>
</svg>