<?xml version="1.0" encoding="UTF-8"?>
<svg width="64px" height="84px" viewBox="0 0 64 84" version="1.1" xmlns="http://www.w3.org/2000/svg" xmlns:xlink="http://www.w3.org/1999/xlink">
    <title>编组备份 2</title>
    <g id="手机显示" stroke="none" stroke-width="1" fill="none" fill-rule="evenodd">
        <g id="首页-手机版" transform="translate(-32.000000, -3973.000000)" fill-rule="nonzero">
            <g id="编组备份-2" transform="translate(32.000000, 3973.000000)">
                <path d="M10.3462309,76.0152541 L10.3462309,83.9999963 L12.3047666,83.9999963 L12.3047666,76.0152541 L10.3462309,76.0152541 Z M42.5698289,48.0850547 C27.1255122,48.1031272 14.6099343,60.597323 14.5918309,76.0152541 L14.5918309,83.9999963 L22.5826564,83.9999963 L22.5826564,76.0152541 L22.5826564,76.0152541 C22.5965827,65.0030679 31.5362681,56.0797839 42.5673018,56.0672741 L42.5673018,56.0672741 L50.5657088,56.0672741 L50.5657088,48.0850547 L42.5698289,48.0850547 Z M42.5698289,42 L42.5698289,43.6373136 L50.5682359,43.6373136 L50.5682359,42.0050457 L42.5698289,42 Z M42.5698289,45.0273904 L42.5698289,46.6647041 L50.5682359,46.6647041 L50.5682359,45.0324361 L42.5698289,45.0273904 Z M55.9940116,14.425519 L55.9940116,15.9745338 L63.9898914,15.9745338 L63.9898914,14.425519 L55.9940116,14.425519 Z M25.5899564,1.85012277e-06 C17.8958637,-0.00328066869 10.8694681,4.36159279 7.47372922,11.2540012 C4.07799036,18.1464095 4.90392736,26.366748 9.60325094,32.4485833 C3.37983844,39.9994029 -0.0156078135,49.4779216 5.39390558e-05,59.2561253 L5.39390558e-05,84.0000019 L7.99598811,84.0000019 L7.99598811,76.0152541 L7.99598811,76.0152541 L7.99598811,59.2510797 C8.00970491,56.5543754 8.33533627,53.8682735 8.96641095,51.2461549 L8.93861238,51.273906 C9.25831881,49.9364415 9.65918938,48.6196199 10.1390052,47.3307299 L10.1769124,47.2298169 C11.4540564,43.7661614 13.3015249,40.5396809 15.6431223,37.6834458 C17.2861509,38.6144623 19.0522524,39.3100143 20.8894707,39.7496398 L21.1295493,39.8000963 L21.1750379,39.8000963 L21.3569922,39.8404615 L21.5793807,39.8833495 L21.6602493,39.9010093 L21.708265,39.9010093 C22.1606236,39.9867854 22.5472764,40.0523788 22.840425,40.092744 L22.9314021,40.092744 L23.2852021,40.1406777 L23.3281636,40.1406777 L23.4039778,40.1406777 L23.4166136,40.1406777 C24.1384977,40.2176758 24.8639635,40.2564135 25.5899564,40.2567277 L42.5698289,40.2567277 L42.5698289,40.2567277 L50.5682359,40.2567277 L50.5682359,32.3199192 L25.7542207,32.3199192 C25.5571035,32.3199192 25.4206378,32.3199192 25.2209935,32.3199192 C24.9050552,32.3154049 24.5895715,32.2943525 24.2758421,32.2568485 L24.1393764,32.2568485 C23.9270964,32.2316203 23.7198707,32.2013464 23.5151721,32.1685496 L23.123465,32.0903421 C22.999635,32.0651138 22.8707507,32.0373627 22.7570293,32.004566 C22.504315,31.946541 22.2996164,31.8859932 22.1555693,31.8481508 L22.079755,31.8229226 L21.9458164,31.7850802 C27.6344149,27.6804434 34.6725077,25.2534854 42.3272232,25.0012028 L64,25.0012028 L64,16.996278 L41.5286461,16.996278 L41.5286461,16.996278 C31.9443862,17.1632801 22.7030231,20.5846087 15.3272294,26.6965415 C12.920843,22.9526719 12.7542744,18.195863 14.8929094,14.2933843 C17.0315445,10.3909055 21.1340328,7.96563669 25.5899564,7.96960896 L36.7649819,7.96960896 L36.7649819,7.98474591 L55.6275759,7.98474591 L64,7.98474591 L64,1.85012277e-06 L25.5899564,1.85012277e-06 Z M55.9940116,10.7447168 L63.9898914,10.7447168 L63.9898914,9.2083162 L55.9940116,9.2083162 L55.9940116,10.7447168 Z M55.9940116,13.3911606 L63.9898914,13.3911606 L63.9898914,11.8446687 L55.9940116,11.8446687 L55.9940116,13.3911606 Z" id="形状" fill="#000000"></path>
                <path d="M9.12572577,33.0110436 C2.9035143,40.4578076 -0.0151635755,49.9968983 9.09494702e-13,59.6345688 L9.09494702e-13,84 L8.01458432,84 L8.01458432,76.119989 L8.01458432,59.6122106 C8.02955448,56.9568282 8.35508974,54.3119498 8.98477264,51.7297154 L8.95698079,51.757042 C9.27694181,50.4371399 9.67684687,49.1372207 10.154557,47.8642371 C10.1671897,47.8294578 10.1798223,47.7971626 10.1899284,47.7648675 C11.4682232,44.3543335 12.8559007,41.4279478 15.2008187,38.19725 C17.1408621,36.0936147 19.240768,33.9314104 21.493263,32.1541079 C27.1830132,28.1122485 34.674489,25.2529044 42.3273546,25.0044804 L64,25.0044804 L64,17 L41.528782,17 C31.6963358,17 21.9559883,20.7778205 14.9824952,27.0416547 C14.9824952,27.0416547 11.3591801,30.3802329 9.12572577,33.0110436 Z" id="路径" fill="#FFCE05"></path>
            </g>
        </g>
    </g>
</svg>