<?xml version="1.0" encoding="UTF-8"?>
<svg width="18px" height="24px" viewBox="0 0 18 24" version="1.1" xmlns="http://www.w3.org/2000/svg" xmlns:xlink="http://www.w3.org/1999/xlink">
    <title>地址</title>
    <g id="联系我们" stroke="none" stroke-width="1" fill="none" fill-rule="evenodd">
        <g id="首页-手机版" transform="translate(-34.000000, -640.000000)" fill="#116FEC" fill-rule="nonzero">
            <g id="地址" transform="translate(34.000000, 640.000000)">
                <path d="M8.64162895,0 C3.86877828,0 0,3.65429864 0,8.15837104 C0,14.2099547 5.3076923,19.8542986 7.60452488,22.0126697 C8.18280543,22.558371 9.11674208,22.5638009 9.70588235,22.0289593 C12.0162896,19.9330317 17.2859728,14.4624434 17.2859728,8.15837104 C17.2832579,3.65429864 13.4144796,0 8.64162895,0 Z M8.64162895,10.8895928 C7.09683258,10.8895928 5.84253393,9.63529411 5.84253393,8.09049773 C5.84253393,6.54570135 7.09683258,5.29140271 8.64162895,5.29140271 C10.1864253,5.29140271 11.440724,6.54570135 11.440724,8.09049773 C11.440724,9.63529411 10.1864253,10.8895928 8.64162895,10.8895928 Z" id="形状"></path>
                <path d="M1.14162895,23.4162896 C1.14162895,23.6248292 2.57112081,23.8175278 4.89162891,23.9217976 C7.21213701,24.0260675 10.0711209,24.0260675 12.391629,23.9217976 C14.7121371,23.8175278 16.141629,23.6248292 16.141629,23.4162896 C16.141629,23.0939152 12.7837646,22.8325792 8.64162895,22.8325792 C4.49949333,22.8325792 1.14162895,23.0939152 1.14162895,23.4162896 Z" id="路径"></path>
            </g>
        </g>
    </g>
</svg>