<?xml version="1.0" encoding="UTF-8"?>
<svg width="178px" height="80px" viewBox="0 0 178 80" version="1.1" xmlns="http://www.w3.org/2000/svg" xmlns:xlink="http://www.w3.org/1999/xlink">
    <title>bilibili</title>
    <g id="联系我们" stroke="none" stroke-width="1" fill="none" fill-rule="evenodd">
        <g id="首页-手机版" transform="translate(-104.000000, -923.000000)" fill="#FB7299" fill-rule="nonzero">
            <g id="bilibili" transform="translate(104.000000, 923.000000)">
                <path d="M49.2456064,58.0638893 C46.6122862,56.0632479 43.6391826,54.6585422 40.5811333,53.4241039 C34.3376159,50.9552273 27.7967882,50.0613237 21.1285417,50.231591 C19.5570442,50.231591 17.9855466,50.3592915 16.3715761,50.4444252 C16.3715761,50.3167247 16.2441574,50.1464573 16.2441574,49.9336232 C15.8194283,45.1661373 15.3097534,40.3986514 14.9699701,35.7162992 C14.6726597,31.80015 14.545241,27.8840009 14.4602953,23.9678518 C14.3328765,16.4335214 14.3328765,8.9417579 14.3328765,1.40742751 C14.3328765,-0.380379692 14.2054578,-0.167545482 12.8463248,0.428390225 C8.64150702,2.13106374 4.47916206,3.79117042 0.274344273,5.40871034 C0.14692554,5.53641086 -0.0654390154,5.9620792 0.0195068068,6.17491341 C1.29369406,10.9423993 2.22809802,15.8375857 2.8651916,20.6902052 C3.50228519,24.9043222 4.05443303,28.9907387 4.64905371,33.1197221 C5.15872856,36.7379033 5.49851185,40.3560845 5.92324096,44.0168326 C6.34797007,47.7201476 6.85764492,51.4234625 7.28237403,55.1693443 C7.70710314,58.7449587 8.13183217,62.1928726 8.55656128,65.768487 C8.85387166,68.3224973 9.10870904,70.8339408 9.3210736,73.3879511 C9.44849233,75.3885925 9.61838397,77.3892339 9.66085689,79.3047417 C9.66085689,79.7304101 9.78827562,79.9432442 10.2130046,79.9432442 C11.1474086,79.9432442 11.9968667,80.0709447 12.8887978,79.9432442 C17.2210343,79.5175758 21.5532709,79.219608 25.8005616,78.5811053 C29.0709754,78.0703033 32.2564435,77.3041002 35.3994387,76.2399293 C39.859094,74.75009 43.6816556,72.1960796 47.3767986,69.2589678 C48.9482961,68.0670963 50.2224834,66.6198238 50.7746311,64.7894498 C51.9638725,61.7672042 51.4541976,59.723996 49.2456064,58.0638893 L49.2456064,58.0638893 Z M24.7812118,72.2386465 C24.1441182,67.4711606 23.5070245,62.8313752 22.8699309,58.2341566 C25.3333595,58.7875255 35.6967489,62.9165089 36.2064239,63.5550114 C32.4263351,66.4069896 28.6887192,69.3015346 24.7812118,72.2386465 L24.7812118,72.2386465 Z M74.2196759,60.3624986 C74.0073114,57.893622 73.7949468,55.2970448 73.4976365,52.8281682 C73.2003261,49.4228212 72.8605429,46.017474 72.5632325,42.5695602 C72.2659222,39.4196141 72.1385034,36.312235 71.926139,33.1622889 C71.6288286,28.8204714 71.2890454,24.4786539 70.991735,20.1368364 L70.3546414,10.5167309 C70.2696956,9.32485939 69.8024937,9.02689158 68.5707793,9.11202527 C67.0842276,9.23972579 65.6401487,9.32485948 64.153597,9.40999316 C62.8794097,9.53769369 61.6052226,9.70796105 60.3735082,9.83566158 C64.1960699,30.1826103 65.8949862,50.5721258 67.8912128,70.7913741 C70.2272227,71.0042083 72.3508681,71.1319088 74.5594593,71.3447429 C74.9841884,71.4298766 75.1965529,71.3447429 75.1965529,70.9190745 L74.9841883,68.5778984 C74.8142966,65.768487 74.5169863,63.0442094 74.2196759,60.3624986 L74.2196759,60.3624986 Z M62.5820993,62.9165089 C62.284789,60.3624986 62.0299516,57.8510551 61.7326412,55.2970448 C61.4353308,52.4024998 61.1804934,49.4653879 60.7982372,46.5708429 C60.5858727,44.7830357 60.2885624,43.0803622 60.0337249,41.3776887 C59.9487791,40.7391861 59.5240501,40.4412182 58.8444835,40.5263519 C57.6552421,40.6540524 56.3810549,40.6540524 55.1493406,40.8243198 C53.4504243,41.037154 51.751508,41.3351218 49.9676459,41.547956 C52.0912913,52.6579008 54.2149366,63.5124446 56.4235278,74.5372558 C58.9719022,74.196721 61.392858,73.8987532 63.8562866,73.6007853 C63.7713408,72.7494486 63.643922,71.8981118 63.5589762,71.1319087 C63.2191929,68.3224973 62.8794096,65.5982197 62.5820993,62.9165089 L62.5820993,62.9165089 Z M87.9808979,74.2818547 C87.8959521,70.0677378 87.7685333,65.9813212 87.6835875,61.7672042 C87.5986417,56.57405 87.6835875,51.295762 87.6835875,46.1026077 C87.6835875,44.9533031 87.5986417,43.8891321 87.5561688,42.7398275 C87.5561688,42.2290255 87.2588584,41.8033571 86.7067106,41.8033571 C84.4981194,41.7182234 82.2470554,41.6756566 80.0384642,41.6756566 C79.189006,41.6756566 78.4244937,41.8033571 77.5750356,41.9736245 C77.6599814,42.2715924 77.6599814,42.4844265 77.6599814,42.6972607 C77.9572918,46.2728751 78.297075,49.8059227 78.5943854,53.2964035 C78.8916957,56.7017505 79.2314789,60.1922313 79.5287893,63.5975783 C79.8685726,67.3008933 80.1658829,71.0042082 80.5056662,74.7075231 C80.5056662,74.9203573 80.8454495,75.260892 81.0578139,75.260892 C83.3088781,75.3460257 85.6873608,75.260892 88.0658436,75.260892 C87.9808979,74.7926567 87.9808979,74.4946889 87.9808979,74.2818547 L87.9808979,74.2818547 Z M59.3116854,36.4399355 C58.8869563,32.3960858 58.5471731,28.5650704 58.1649169,24.6489213 C58.0799711,24.1381193 57.8676065,23.8827182 57.4428775,23.8827182 C56.0837444,23.8827182 54.6821385,23.8827182 53.2380597,23.9678519 C53.7902075,28.3096694 54.2998824,32.4812196 54.8520302,36.7804702 C56.4235277,36.6527696 57.8251337,36.6102028 59.3116854,36.4399355 L59.3116854,36.4399355 Z M87.3438043,37.078438 L87.3438043,26.2664611 C87.3438043,25.5002581 87.0464939,25.2874239 86.4094003,25.2874239 L82.7142574,25.2874239 L82.7142574,37.7169407 C84.3282279,37.8020743 85.8572526,37.8446412 87.3438043,37.9297749 L87.3438043,37.078438 L87.3438043,37.078438 Z M53.0681681,36.9507375 L53.0681681,36.0994007 C52.8558035,33.8859251 52.5584932,31.7575833 52.3461287,29.5441076 C52.2187099,28.139402 52.0488183,26.7772632 51.9213996,25.3299907 C51.8364537,24.989456 52.0063454,24.4786539 51.4117247,24.5637876 C50.0525916,24.6914881 48.7359316,24.989456 47.3767985,25.1171565 C48.1413108,29.3312734 48.8633502,33.4176899 49.6278626,37.5466733 L53.0681681,36.9507375 L53.0681681,36.9507375 Z M81.1852328,37.6743737 L81.1852328,31.2042143 C81.1852328,29.5015408 81.1002869,27.7137336 81.1852328,26.0110601 C81.1852328,25.3725575 80.9728682,25.244857 80.4207204,25.244857 L76.6406317,25.244857 C76.980415,29.6718082 77.2777253,33.8433584 77.6175086,37.9723416 C78.764277,37.887208 79.9110455,37.8020743 81.1852328,37.6743737 L81.1852328,37.6743737 Z" id="形状"></path>
                <path d="M138.970095,58.0948007 C136.337627,56.0930942 133.365485,54.6876407 130.308424,53.4525452 C124.066926,50.9823543 117.528214,50.0879748 110.862124,50.2583327 C109.291135,50.2583327 107.720145,50.3861012 106.106697,50.4712802 C106.106697,50.3435117 105.979319,50.1731537 105.979319,49.9602063 C105.554727,45.1901823 105.045217,40.4201584 104.705544,35.7353134 C104.40833,31.8170794 104.280952,27.8988455 104.196034,23.9806116 C104.068656,16.4422701 104.068656,8.94651821 104.068656,1.40817678 C104.068656,-0.380582194 103.941279,-0.167634678 102.582585,0.428618287 C98.3791276,2.13219826 94.2181287,3.79318872 90.0146708,5.41158976 C89.8872933,5.49676877 89.6749974,5.92266372 89.7174566,6.13561124 C90.9912318,10.9056352 91.9253335,15.8034277 92.5622211,20.6586306 C93.1991086,24.874991 93.7510779,28.963583 94.3455063,33.0947645 C94.8550163,36.7148719 95.1946897,40.3349794 95.6192814,43.9976763 C96.0438732,47.7029628 96.5533832,51.4082492 96.977975,55.1561252 C97.4025667,58.7336432 97.8271584,62.1833926 98.2517501,65.7609106 C98.5489644,68.3162806 98.8037193,70.8290611 99.0160152,73.3844311 C99.1433927,75.3861376 99.3132294,77.387844 99.3556886,79.3043715 C99.3556886,79.7302666 99.4830661,79.943214 99.9076578,79.943214 C100.84176,79.943214 101.690943,80.0709825 102.582586,79.943214 C106.913421,79.517319 111.244257,79.2191925 115.490174,78.58035 C118.75953,78.069276 121.943968,77.302665 125.085946,76.2379275 C129.544159,74.7472951 133.365485,72.191925 137.059433,69.2532496 C138.630422,68.0607436 139.904197,66.6127006 140.456166,64.7813521 C141.687482,61.8000871 141.177972,59.7557912 138.970095,58.0948007 L138.970095,58.0948007 Z M114.513613,72.2771041 C113.876725,67.5070801 113.239837,62.8648246 112.60295,58.2651587 C115.065582,58.8188222 125.42562,62.9500037 125.93513,63.5888461 C122.156263,66.4423426 118.419856,69.3384286 114.513613,72.2771041 L114.513613,72.2771041 Z M163.936088,60.3946337 C163.723792,57.9244428 163.511496,55.3264832 163.214282,52.8562923 C162.917068,49.4491323 162.577395,46.0419723 162.28018,42.5922229 C161.982966,39.4405999 161.855589,36.3315665 161.643293,33.1799435 C161.346079,28.8358145 161.006405,24.4916855 160.709191,20.1475566 L160.072304,10.5223297 C159.987385,9.32982366 159.520334,9.03169722 158.289018,9.11687622 C156.802947,9.24464473 155.359335,9.32982374 153.873265,9.41500275 C152.599489,9.54277126 151.325714,9.71312927 150.094398,9.84089778 C153.915724,30.1986786 155.614091,50.5990488 157.609672,70.8290612 C159.944926,71.0420087 162.067885,71.1697772 164.275762,71.3827247 C164.700353,71.4679037 164.912649,71.3827247 164.912649,70.9568296 L164.700353,68.6144072 C164.530516,65.8035001 164.233302,63.0777722 163.936088,60.3946337 L163.936088,60.3946337 Z M152.302275,62.9500037 C152.005061,60.3946337 151.750306,57.8818532 151.453092,55.3264832 C151.155877,52.4303972 150.901123,49.4917218 150.51899,46.5956358 C150.306694,44.8068768 150.00948,43.1032968 149.754725,41.3997169 C149.669807,40.7608744 149.245215,40.4627479 148.565868,40.5479269 C147.377011,40.6756954 146.103236,40.6756954 144.87192,40.8460534 C143.173553,41.0590009 141.475186,41.3571274 139.691901,41.5700749 C141.81486,52.6859343 143.937818,63.5462566 146.145695,74.5769371 C148.693246,74.236221 151.113418,73.9380946 153.57605,73.6399681 C153.491132,72.7881781 153.363754,71.9363881 153.278836,71.1697771 C152.939163,68.3588701 152.599489,65.6331421 152.302275,62.9500037 L152.302275,62.9500037 Z M177.69286,74.3214001 C177.607941,70.1050396 177.480564,66.0164476 177.395645,61.8000871 C177.310727,56.6041682 177.395645,51.3230702 177.395645,46.1271513 C177.395645,44.9772348 177.310727,43.9124973 177.268268,42.7625809 C177.268268,42.2515069 176.971054,41.8256119 176.419084,41.8256119 C174.211207,41.7404329 171.960871,41.6978434 169.752994,41.6978434 C168.903811,41.6978434 168.139546,41.8256119 167.290363,41.9959699 C167.375281,42.2940964 167.375281,42.5070439 167.375281,42.7199914 C167.672495,46.2975093 168.012168,49.8324378 168.309383,53.3247768 C168.606597,56.7319367 168.94627,60.2242758 169.243484,63.6314357 C169.583158,67.3367222 169.880372,71.0420086 170.220045,74.7472951 C170.220045,74.9602426 170.559719,75.3009585 170.772015,75.3009585 C173.022351,75.3861376 175.400064,75.3009585 177.777778,75.3009585 C177.69286,74.832474 177.69286,74.5343476 177.69286,74.3214001 L177.69286,74.3214001 Z M149.032919,36.459335 C148.608327,32.4133325 148.268654,28.5802775 147.886521,24.6620436 C147.801603,24.1509697 147.589307,23.8954326 147.164715,23.8954326 C145.806022,23.8954326 144.404869,23.8954326 142.961257,23.9806116 C143.513227,28.3247406 144.022737,32.4985116 144.574706,36.800051 C146.145695,36.6722824 147.546848,36.6296929 149.032919,36.459335 L149.032919,36.459335 Z M177.055972,37.0981774 L177.055972,26.2804446 C177.055972,25.5138336 176.758758,25.3008861 176.12187,25.3008861 L172.427922,25.3008861 L172.427922,37.73702 C174.041371,37.822199 175.569901,37.8647885 177.055972,37.9499675 L177.055972,37.0981774 L177.055972,37.0981774 Z M142.791421,36.9704089 L142.791421,36.1186189 C142.579125,33.9039649 142.281911,31.77449 142.069615,29.559836 C141.942237,28.1543826 141.772401,26.7915185 141.645023,25.3434756 C141.560105,25.0027596 141.729941,24.4916856 141.135513,24.5768646 C139.77682,24.7046331 138.460585,25.0027596 137.101892,25.1305281 C137.866157,29.3468885 138.587963,33.4354805 139.352228,37.566662 L142.791421,36.9704089 L142.791421,36.9704089 Z M170.899392,37.6944304 L170.899392,31.2208265 C170.899392,29.5172465 170.814474,27.7284875 170.899392,26.0249076 C170.899392,25.3860651 170.687096,25.2582966 170.135127,25.2582966 L166.356261,25.2582966 C166.695934,29.6876045 166.993148,33.8613755 167.332822,37.9925569 C168.479219,37.9073779 169.625617,37.8221989 170.899392,37.6944304 L170.899392,37.6944304 Z" id="形状"></path>
            </g>
        </g>
    </g>
</svg>