<?xml version="1.0" encoding="UTF-8"?>
<svg width="24px" height="24px" viewBox="0 0 24 24" version="1.1" xmlns="http://www.w3.org/2000/svg" xmlns:xlink="http://www.w3.org/1999/xlink">
    <title>关闭</title>
    <g id="手机显示" stroke="none" stroke-width="1" fill="none" fill-rule="evenodd">
        <g id="首页-手机版-侧边栏" transform="translate(-418.000000, -43.000000)" fill="#666666" fill-rule="nonzero">
            <g id="关闭" transform="translate(418.000000, 43.000000)">
                <path d="M13.8579585,11.9998372 L23.629938,2.224206 C24.123354,1.73058921 24.123354,0.917228557 23.629938,0.423611768 L23.5765606,0.370212591 C23.0831446,-0.123404197 22.2701149,-0.123404197 21.7766989,0.370212591 L12.0047193,10.1595192 L2.23306528,0.370212591 C1.73964931,-0.123404197 0.926619565,-0.123404197 0.433203599,0.370212591 L0.379826147,0.423611768 C-0.126608716,0.917228557 -0.126608716,1.73058921 0.379826147,2.224206 L10.1518057,12.0001628 L0.379826147,21.775794 C-0.113264353,22.2694108 -0.113264353,23.0827714 0.379826147,23.5763882 L0.433203599,23.6297874 C0.926619565,24.1234042 1.73964931,24.1234042 2.23306528,23.6297874 L12.0047193,13.8538306 L21.7766989,23.6294618 C22.2701149,24.1230786 23.0831446,24.1230786 23.5765606,23.6294618 L23.629938,23.5760626 C24.123354,23.0824458 24.123354,22.2690852 23.629938,21.7754684 L13.8579585,11.9998372 Z" id="路径"></path>
            </g>
        </g>
    </g>
</svg>