<?xml version="1.0" encoding="UTF-8"?>
<svg width="28px" height="24px" viewBox="0 0 28 24" version="1.1" xmlns="http://www.w3.org/2000/svg" xmlns:xlink="http://www.w3.org/1999/xlink">
    <title>社区3</title>
    <g id="手机显示" stroke="none" stroke-width="1" fill="none" fill-rule="evenodd">
        <g id="首页-手机版-侧边栏" transform="translate(-32.000000, -153.000000)" fill="#231815" fill-rule="nonzero">
            <g id="社区3" transform="translate(32.000000, 153.000000)">
                <path d="M25.6097561,0 L2.3902439,0 C1.07560976,0 0,1.06254392 0,2.36120871 L0,18.8896697 C0,20.1883345 1.07560976,21.2508784 2.3902439,21.2508784 L10.6365854,21.2508784 L13.0268293,23.6120871 C13.3,23.8819396 13.6414634,24 14,24 C14.3414634,24 14.7,23.8650738 14.9731707,23.6120871 L17.3634146,21.2508784 L25.6097561,21.2508784 C26.9243902,21.2508784 28,20.1883345 28,18.8896697 L28,2.36120871 C28,1.06254392 26.9414634,0 25.6097561,0 Z M26.6341463,18.8896697 C26.6341463,19.4462403 26.1731707,19.9016163 25.6097561,19.9016163 L16.8170732,19.9016163 L16.8170732,20.1040056 L16.697561,19.9859452 L14,22.6507379 L11.2341463,19.9184821 L11.1487805,20.002811 L11.1487805,19.9016163 L2.3902439,19.9016163 C1.82682927,19.9016163 1.36585366,19.4462403 1.36585366,18.8896697 L1.36585366,2.36120871 C1.36585366,1.80463809 1.82682927,1.34926212 2.3902439,1.34926212 L25.6097561,1.34926212 C26.1731707,1.34926212 26.6341463,1.80463809 26.6341463,2.36120871 L26.6341463,18.8896697 Z" id="形状"></path>
                <path d="M7.59756098,10.3555868 C7.97317073,10.3555868 8.2804878,10.0520028 8.2804878,9.68095573 L8.2804878,6.30780042 C8.2804878,5.93675334 7.97317073,5.63316936 7.59756098,5.63316936 C7.22195122,5.63316936 6.91463415,5.93675334 6.91463415,6.30780042 L6.91463415,9.68095573 C6.91463415,10.0520028 7.22195122,10.3555868 7.59756098,10.3555868 Z M20.402439,10.3555868 C20.7780488,10.3555868 21.0853659,10.0520028 21.0853659,9.68095573 L21.0853659,6.30780042 C21.0853659,5.93675334 20.7780488,5.63316936 20.402439,5.63316936 C20.0268293,5.63316936 19.7195122,5.93675334 19.7195122,6.30780042 L19.7195122,9.68095573 C19.7195122,10.0520028 20.0268293,10.3555868 20.402439,10.3555868 Z M21.7341463,13.4588897 C21.2902439,13.7118763 20.7609756,13.9479972 20.1634146,14.1672523 C18.4731707,14.7575545 16.304878,15.0780042 14.0512195,15.0780042 C11.7463415,15.0780042 9.52682927,14.7406887 7.8195122,14.1335207 C7.13658537,13.8973999 6.57317073,13.6106817 6.11219512,13.3070977 C5.80487805,13.1047084 5.37804878,13.1721715 5.15609756,13.4926212 C4.95121951,13.7962052 5.0195122,14.2178496 5.34390244,14.4371047 C5.8902439,14.8081518 6.57317073,15.1286015 7.34146341,15.4153197 C9.18536585,16.073085 11.5756098,16.4441321 14.0341463,16.4441321 C16.4414634,16.4441321 18.7804878,16.0899508 20.6073171,15.4659171 C21.2902439,15.2297962 21.904878,14.943078 22.4170732,14.639494 C22.7414634,14.4539705 22.8439024,14.0323261 22.6560976,13.7118763 C22.4682927,13.3914266 22.0585366,13.2733661 21.7341463,13.4588897 L21.7341463,13.4588897 Z" id="形状"></path>
            </g>
        </g>
    </g>
</svg>