<?xml version="1.0" encoding="UTF-8"?>
<svg width="48px" height="46px" viewBox="0 0 48 46" version="1.1" xmlns="http://www.w3.org/2000/svg" xmlns:xlink="http://www.w3.org/1999/xlink">
    <title>仓库库存备份</title>
    <g id="手机显示" stroke="none" stroke-width="1" fill="none" fill-rule="evenodd">
        <g id="首页-手机版" transform="translate(-527.000000, -1307.000000)" fill="#000000" fill-rule="nonzero">
            <g id="仓库库存备份" transform="translate(527.000000, 1307.000000)">
                <path d="M21.4214907,0.950945706 C22.9278197,-0.316981902 25.0962249,-0.316981902 26.6025539,0.950945706 L47.6089438,18.6136818 C48.0686104,19.0113206 48.1320467,19.7143484 47.7513554,20.1919475 C47.3706642,20.6695465 46.6870083,20.7446199 46.2165789,20.3604837 L25.2092729,2.69868835 C24.513028,2.11192075 23.5101006,2.11192075 22.8138556,2.69868835 L1.80746573,20.3595431 C1.5042833,20.6218139 1.0870675,20.696134 0.715577485,20.5540449 C0.344087471,20.4119559 0.0758778027,20.0754714 0.0136506057,19.6734372 C-0.0485765913,19.271403 0.104819477,18.8661059 0.415100801,18.6127411 L21.4214907,0.951886364 L21.4214907,0.950945706 Z M12.8538662,17.7793181 C12.852947,17.2066897 13.0736067,16.6571453 13.4673995,16.2517063 C13.8611923,15.8462673 14.3957696,15.6181843 14.953406,15.6176859 L20.4523314,15.6176859 C21.009809,15.6184337 21.5441509,15.8466268 21.9377456,16.2520387 C22.3313404,16.6574506 22.5519277,17.2068525 22.5509584,17.7793181 L22.5509584,23.4552487 C22.5519277,24.0277143 22.3313404,24.5771162 21.9377456,24.9825281 C21.5441509,25.38794 21.009809,25.6161331 20.4523314,25.6168809 L14.9524899,25.6168809 C14.3948536,25.6163825 13.8602763,25.3882995 13.4664835,24.9828605 C13.0726906,24.5774215 12.8519776,24.0278771 12.852947,23.4552487 L12.852947,17.7793181 L12.8538662,17.7793181 Z M15.0523372,17.8752652 L15.0523372,23.3593016 L20.3524842,23.3593016 L20.3524842,17.8752652 L15.0532532,17.8752652 L15.0523372,17.8752652 Z M6.4544837,21.5532381 C7.06157469,21.5532381 7.55371917,22.0586145 7.55371917,22.6820278 L7.55371917,40.7426622 C7.55371917,42.404805 8.85814527,43.7424207 10.4538688,43.7424207 L37.4492599,43.7424207 C39.0449834,43.7424207 40.3484935,42.404805 40.3484935,40.7426622 L40.3484935,22.6820278 C40.3484935,22.0586145 40.840638,21.5532381 41.447729,21.5532381 C42.05482,21.5532381 42.5469644,22.0586145 42.5469644,22.6820278 L42.5469644,40.7426622 C42.5469644,43.639889 40.269715,46 37.4483439,46 L10.4547848,46 C7.63341374,46 5.35616425,43.6408296 5.35616425,40.7426622 L5.35616425,22.6820278 C5.35616425,22.0586145 5.84830874,21.5532381 6.45539973,21.5532381 L6.4544837,21.5532381 Z M12.8538662,30.6804431 C12.8529484,30.1078147 13.0736067,29.5582703 13.4673995,29.1528314 C13.8611923,28.7473924 14.3957696,28.5193093 14.953406,28.5188109 L20.4523314,28.5188109 C21.009809,28.5195587 21.5441509,28.7477518 21.9377456,29.1531637 C22.3313404,29.5585756 22.5519277,30.1079775 22.5509584,30.6804431 L22.5509584,36.3563738 C22.5516845,36.9286765 22.3309897,37.4778367 21.9374213,37.883045 C21.5438529,38.2882534 21.00965,38.5163173 20.4523314,38.5170653 L14.9524899,38.5170653 C14.3950125,38.5165667 13.8605743,38.2886127 13.4668078,37.8833773 C13.0730414,37.4781419 12.8522209,36.9288393 12.8529484,36.3563738 L12.8529484,30.6804431 L12.8538662,30.6804431 Z M15.0523372,30.7763902 L15.0523372,36.2604266 L20.3524842,36.2604266 L20.3524842,30.7763902 L15.0532532,30.7763902 L15.0523372,30.7763902 Z M25.3512543,30.6804431 C25.350285,30.1078147 25.570998,29.5582703 25.9647908,29.1528314 C26.3585836,28.7473924 26.8931609,28.5193093 27.4507973,28.5188109 L32.9497227,28.5188109 C33.5072003,28.5195587 34.0415422,28.7477518 34.4351369,29.1531637 C34.8287317,29.5585756 35.049319,30.1079775 35.0483497,30.6804431 L35.0483497,36.3563738 C35.0490758,36.9286765 34.828381,37.4778367 34.4348126,37.883045 C34.0412442,38.2882534 33.5070413,38.5163173 32.9497227,38.5170653 L27.4507973,38.5170653 C26.8933199,38.5165667 26.3588817,38.2886127 25.9651152,37.8833773 C25.5713487,37.4781419 25.3505283,36.9288393 25.3512543,36.3563738 L25.3512543,30.6804431 Z M27.5497285,30.7763902 L27.5497285,36.2604266 L32.8498755,36.2604266 L32.8498755,30.7763902 L27.5497285,30.7763902 Z" id="形状"></path>
            </g>
        </g>
    </g>
</svg>