<?xml version="1.0" encoding="UTF-8"?>
<svg width="46px" height="48px" viewBox="0 0 46 48" version="1.1" xmlns="http://www.w3.org/2000/svg" xmlns:xlink="http://www.w3.org/1999/xlink">
    <title>维护备份</title>
    <g id="手机显示" stroke="none" stroke-width="1" fill="none" fill-rule="evenodd">
        <g id="首页-手机版" transform="translate(-528.000000, -1031.000000)" fill="#000000" fill-rule="nonzero">
            <g id="维护备份" transform="translate(528.000000, 1031.000000)">
                <path d="M40.2111885,48 C38.9035076,48 37.7592868,47.5034483 36.7785261,46.5103448 L25.6632382,35.4206897 C25.4997781,35.2551724 25.336318,34.9241379 25.336318,34.7586207 C25.336318,34.4275862 25.4997781,34.262069 25.6632382,34.0965517 L29.7497411,29.9586207 C29.9132012,29.7931034 30.2401215,29.6275862 30.4035816,29.6275862 C30.7305018,29.6275862 30.8939619,29.7931034 31.057422,29.9586207 L42.1727099,41.0482759 C43.9707712,42.8689655 44.2976914,45.5172414 42.8265504,47.1724138 C42.0092498,47.5034483 41.1919492,48 40.2111885,48 L40.2111885,48 Z M27.6247596,34.5931034 L38.086207,45.0206897 C38.7400475,45.6827586 39.5573481,46.0137931 40.2111885,46.0137931 C40.7015689,46.0137931 41.0284891,45.8482759 41.3554094,45.5172414 C41.6823296,45.1862069 41.8457897,44.5241379 41.6823296,44.0275862 C41.5188695,43.3655172 41.1919492,42.8689655 40.7015689,42.3724138 L30.2401215,31.9448276 L27.6247596,34.5931034 L27.6247596,34.5931034 Z M5.55764394,46.1793103 C4.0865029,46.1793103 2.61536186,45.6827586 1.63460116,44.5241379 C0.490380348,43.3655172 -0.163460116,41.7103448 0.163460116,39.7241379 C0.326920232,37.9034483 1.30768093,36.2482759 2.61536186,34.7586207 L22.3940359,14.7310345 L22.3940359,14.4 C22.0671157,12.9103448 21.4132752,9.93103448 23.7017168,5.62758621 C25.336318,2.48275862 31.5478024,0.165517241 32.365103,0 L32.5285631,0 C33.0189434,0 33.3458637,0.165517241 33.5093238,0.662068966 C33.836244,1.32413793 33.5093238,1.82068966 32.5285631,2.97931034 C31.3843423,4.30344828 29.7497411,6.28965517 29.4228209,8.27586207 C29.2593608,9.76551724 29.586281,12.5793103 31.2208822,14.2344828 C32.6920232,15.7241379 35.1439249,16.5517241 36.7785261,16.5517241 L37.4323666,16.5517241 C38.9035076,16.2206897 41.0284891,14.5655172 42.8265504,13.0758621 C44.1342313,11.9172414 44.4611516,11.7517241 44.9515319,11.7517241 C45.2784521,11.7517241 45.6053724,11.9172414 45.7688325,12.2482759 C45.9322926,12.4137931 46.0957527,12.7448276 45.9322926,13.2413793 L45.9322926,13.4068966 C44.2976914,18.8689655 41.8457897,21.3517241 40.0477284,22.3448276 C38.4131273,23.337931 36.4516059,23.6689655 33.9997041,23.6689655 L31.057422,23.6689655 L11.278748,43.6965517 C9.64414685,45.3517241 7.51916534,46.1793103 5.55764394,46.1793103 Z M5.72110406,37.5724138 C4.24996302,37.5724138 2.94228209,38.8965517 2.94228209,40.3862069 C2.94228209,41.8758621 4.24996302,43.2 5.72110406,43.2 C7.19224511,43.2 8.49992603,41.8758621 8.49992603,40.3862069 C8.49992603,38.8965517 7.35570522,37.5724138 5.72110406,37.5724138 Z M27.9516798,4.13793103 C26.6439989,4.96551724 25.6632382,5.79310345 25.336318,6.62068966 C23.3747966,10.4275862 23.8651769,12.5793103 24.1920972,13.9034483 C24.3555573,14.7310345 24.5190174,15.3931034 24.0286371,15.8896552 L4.74034336,35.5862069 L5.88456418,35.5862069 C8.49992603,35.5862069 10.4614474,37.737931 10.4614474,40.3862069 L10.4614474,41.5448276 L11.278748,40.8827586 L29.7497411,22.0137931 C30.0766613,21.6827586 30.5670417,21.6827586 31.057422,21.6827586 L33.836244,21.6827586 C35.9612255,21.6827586 37.7592868,21.3517241 39.0669677,20.5241379 C40.2111885,19.862069 41.3554094,18.7034483 42.1727099,17.0482759 L41.5188695,16.3862069 C39.8842683,17.5448276 38.7400475,18.2068966 37.7592868,18.3724138 C37.4323666,18.3724138 37.1054463,18.537931 36.7785261,18.537931 C34.8170047,18.537931 31.7112625,17.7103448 29.7497411,15.5586207 C27.4612995,13.2413793 27.1343793,9.6 27.4612995,7.94482759 C27.6247596,6.95172414 27.9516798,5.95862069 28.7689804,4.8 L27.9516798,4.13793103 Z M6.70186476,10.7586207 L3.43266244,8.93793103 L0,3.97241379 L1.79806128,2.31724138 L6.37494452,5.79310345 L8.00954569,9.10344828 L16.9998521,18.2068966 L15.528711,19.6965517 L6.70186476,10.7586207 Z" id="形状"></path>
            </g>
        </g>
    </g>
</svg>