<?xml version="1.0" encoding="UTF-8"?>
<svg width="28px" height="26px" viewBox="0 0 28 26" version="1.1" xmlns="http://www.w3.org/2000/svg" xmlns:xlink="http://www.w3.org/1999/xlink">
    <title>首页</title>
    <g id="手机显示" stroke="none" stroke-width="1" fill="none" fill-rule="evenodd">
        <g id="首页-手机版-侧边栏" transform="translate(-32.000000, -42.000000)" fill="#999999" fill-rule="nonzero">
            <g id="首页" transform="translate(32.000000, 42.000000)">
                <path d="M27.4657907,11.362575 L15.0288495,0.390230601 C15.0266513,0.388297055 15.0243561,0.386533103 15.0221256,0.384565613 C15.0092919,0.37330346 14.9961997,0.362482329 14.9830751,0.351729022 C14.9779676,0.347522679 14.9728923,0.343282424 14.9676877,0.33917785 C14.9519124,0.326592734 14.9359431,0.314448638 14.9198122,0.30254196 C14.9172584,0.300642327 14.9147046,0.298742693 14.9121508,0.296876972 C14.893757,0.283477736 14.8751046,0.270587346 14.8562906,0.258070086 C14.8560643,0.257968317 14.8558704,0.257832636 14.8556764,0.257696955 C14.2760623,-0.126233517 13.5013255,-0.0810831722 12.9684555,0.3926052 L0.534262053,11.362575 C-0.115856147,11.9356213 -0.18160825,12.9322529 0.386239022,13.5878316 C0.954086294,14.2429693 1.94221034,14.3107118 2.59194064,13.7372585 L3.66353171,12.7918492 L3.66353171,22.0471581 C3.66353171,24.2262807 5.42115572,26 7.58088904,26 L9.91567034,26 C10.7787555,26 11.4784949,25.294013 11.4784949,24.4230628 L11.4784949,16.9778378 C11.4784949,16.5381055 11.8334075,16.1796505 12.2689747,16.1796505 L15.7293647,16.1796505 C16.1657724,16.1796505 16.5214932,16.5381055 16.5214932,16.9778378 L16.5214932,24.2380856 C16.5214932,24.3459918 16.5323872,24.4535249 16.5545632,24.559735 L16.5924498,24.7446784 C16.7436732,25.4755981 17.3825094,26 18.1226246,26 L20.4190667,26 C22.5792203,26 24.336812,24.2262467 24.336812,22.0471243 L24.336812,12.7921546 L25.4080151,13.7372246 C25.7044491,13.9983231 26.0714195,14.1265826 26.4364503,14.1265826 C26.8712094,14.1265826 27.3048047,13.9441834 27.6137167,13.5877977 C28.1815963,12.9322529 28.1158766,11.9355873 27.4657907,11.362575 Z" id="路径"></path>
            </g>
        </g>
    </g>
</svg>