<?xml version="1.0" encoding="UTF-8"?>
<svg width="28px" height="28px" viewBox="0 0 28 28" version="1.1" xmlns="http://www.w3.org/2000/svg" xmlns:xlink="http://www.w3.org/1999/xlink">
    <title>语言备份 2</title>
    <g id="手机显示" stroke="none" stroke-width="1" fill="none" fill-rule="evenodd">
        <g id="首页-手机版-选择语言" transform="translate(-308.000000, -41.000000)" fill="#999999" fill-rule="nonzero">
            <g id="语言备份-2" transform="translate(308.000000, 41.000000)">
                <path d="M12.5983892,17.6571777 C13.3974942,18.011877 13.8688413,17.5389446 14.0561315,17.1469086 C14.3183378,16.6055256 14.090468,15.9552436 13.5442049,15.6938862 C12.4766506,15.1836171 11.5058629,14.5675605 10.6287203,13.8550506 C11.587022,12.9060746 12.3830055,11.8139742 13.0073062,10.5911952 C14.2403002,8.1767512 14.461927,5.89920863 14.4962635,4.93778697 L16.7749613,4.93778697 C17.3774115,4.93778697 17.8674876,4.44929765 17.8674876,3.84879803 C17.8674876,3.24829842 17.3774115,2.7598091 16.7749613,2.7598091 L10.0044196,2.7598091 L10.0044196,1.08898893 C10.0044196,0.488489322 9.51434349,0 8.91189326,0 C8.30944304,0 7.81936695,0.488489322 7.81936695,1.08898893 L7.81936695,2.7566977 L1.09252632,2.7566977 C0.490076092,2.7566977 0,3.24518702 0,3.84568664 C0,4.44618625 0.490076092,4.93467557 1.09252632,4.93467557 L3.28070046,4.93467557 C3.38058858,5.66585386 3.71146798,7.47668688 4.68537716,9.58932542 C5.384594,11.1107985 6.28358709,12.4953702 7.35426288,13.708815 C5.64055731,14.8195837 3.51169174,15.5538734 0.983273688,15.8930156 C0.383944964,15.973912 -0.0343365415,16.5215178 0.0468225566,17.118906 C0.121738647,17.6665119 0.568113686,18.1207759 1.27669504,18.0523251 C4.29831069,17.6447321 6.8704298,16.7050903 8.93062229,15.2645135 C10.0262701,16.2134895 11.2561426,17.0131186 12.5983892,17.6571777 L12.5983892,17.6571777 Z M5.49384664,4.94089837 L12.3143324,4.94089837 C12.2799958,5.7280818 12.0833411,7.60736556 11.0657309,9.6048824 C10.5350752,10.644089 9.86707342,11.5588397 9.06172545,12.3522459 C8.12527431,11.3037051 7.33865536,10.1058173 6.71123311,8.75858243 C5.94022168,7.12198763 5.61870679,5.68141084 5.49384664,4.94089837 Z M27.8906362,26.3722006 L20.708056,11.6801842 C20.4677002,11.1854721 19.9745026,10.8774438 19.4219965,10.8774438 L19.4157535,10.8774438 C18.8663688,10.8774438 18.3731712,11.1823607 18.1296939,11.6739614 L10.8066461,26.4219829 C10.5381967,26.9602546 10.7598235,27.613648 11.2998436,27.8812281 C12.014668,28.217259 12.5734172,27.7723292 12.7638289,27.3896274 L15.2766395,22.3273846 L23.4768299,22.3273846 L25.9209673,27.3273995 C26.1862951,27.8687825 26.8386894,28.0928031 27.3818311,27.8283344 C27.9280942,27.5638656 28.1528425,26.9135837 27.8906362,26.3722006 L27.8906362,26.3722006 Z M16.3629228,20.1494067 L19.4126319,14.0043977 L22.4155186,20.1494067 L16.3629228,20.1494067 Z" id="形状"></path>
            </g>
        </g>
    </g>
</svg>