<?xml version="1.0" encoding="UTF-8"?>
<svg width="28px" height="28px" viewBox="0 0 28 28" version="1.1" xmlns="http://www.w3.org/2000/svg" xmlns:xlink="http://www.w3.org/1999/xlink">
    <title>首页_商城灰</title>
    <g id="手机显示" stroke="none" stroke-width="1" fill="none" fill-rule="evenodd">
        <g id="首页-手机版-侧边栏" transform="translate(-32.000000, -260.000000)" fill="#333333" fill-rule="nonzero">
            <g id="首页_商城灰" transform="translate(32.000000, 260.000000)">
                <path d="M5.66033382,16.5702297 L5.14080671,16.5702297 C3.69159949,16.433512 2.37910991,15.7225802 1.42208625,14.5468083 C0.465062586,13.3710364 0.000108817906,11.9218291 0.000108817906,10.4179348 C-0.00490018928,9.62561301 0.163074496,8.84173114 0.492406143,8.1210781 L2.81660641,3.14455516 C3.24995042,2.21297711 3.9309986,1.41842091 4.78534077,0.847698421 C5.62931826,0.291755963 6.61844449,-0.00307974153 7.62906818,2.42588194e-05 L20.3711544,2.42588194e-05 C21.3817781,-0.00307974153 22.3709043,0.291755963 23.2148818,0.847698421 C24.0625313,1.39456906 24.7461196,2.21487505 25.1836161,3.14455516 L27.5078164,8.1210781 C27.8286594,8.82522983 27.9964159,9.58945385 28,10.3632478 L28,10.5546525 C28,13.86322 25.4570515,16.5428862 22.3398887,16.5428862 C20.7266203,16.5428862 19.222726,15.8319543 18.1563282,14.5741518 C17.0899305,15.8046108 15.5860362,16.5428862 13.9727678,16.5428862 C12.3594993,16.5428861 10.855605,15.8319543 9.78920724,14.5741518 L9.43374133,14.9569613 C8.44937417,15.9960155 7.08219754,16.5702297 5.66033382,16.5702297 L5.66033382,16.5702297 Z M7.62906818,1.33986499 C6.88063792,1.33764332 6.14820487,1.55642203 5.52361614,1.96878326 C4.87106966,2.40287512 4.35073288,3.00835793 4.01972187,3.71876933 L1.72286513,8.6952923 C1.47094543,9.23464458 1.34005566,9.82264973 1.34005566,10.4179348 C1.34005566,11.6210503 1.75020866,12.7694786 2.4611405,13.6718152 C3.17207235,14.5741518 4.18378307,15.1210225 5.25018082,15.2303966 C6.31657858,15.3397707 7.62906818,14.9296177 8.53140475,14.0272812 C8.80564041,13.7578247 9.04453038,13.4546182 9.2423366,13.1249446 L9.81655077,12.1952645 L10.390765,13.1249446 C11.211071,14.4374341 12.5509041,15.2303966 14.0001113,15.2303966 C15.4493185,15.2303966 16.8164951,14.4374341 17.6094576,13.1249446 L18.1836718,12.1952645 L18.757886,13.1249446 C19.578192,14.4374341 20.9180251,15.2303966 22.3672323,15.2303966 C24.7461196,15.2303966 26.6875104,13.1249446 26.6875104,10.5546525 L26.6875104,10.3905913 C26.6777934,9.81397301 26.5473896,9.24578524 26.304701,8.72263583 L23.9531572,3.71876933 C23.6250348,2.98049396 23.1055076,2.37893623 22.4492629,1.96878326 C21.8246741,1.55642203 21.0922411,1.33764333 20.3438109,1.33986499 L7.62906818,1.33986499 Z" id="形状"></path>
                <path d="M20.9727121,27.9998263 L7.02751045,27.9998263 C4.15643951,27.9998263 1.80489572,25.5115649 1.80489572,22.4764328 L1.80489572,14.8749307 L3.14472882,14.8749307 L3.14472882,22.4764328 C3.14472882,24.800633 4.89471491,26.6873368 7.02751045,26.6873368 L20.9727121,26.6873368 C23.1055076,26.6873368 24.8554937,24.800633 24.8554937,22.4764328 L24.8554937,14.9843048 L26.1953268,14.9843048 L26.1953268,22.4764328 C26.1953268,25.5115649 23.843783,27.9998263 20.9727121,27.9998263 Z" id="路径"></path>
            </g>
        </g>
    </g>
</svg>