<?xml version="1.0" encoding="UTF-8"?>
<svg width="12px" height="12px" viewBox="0 0 24 24" version="1.1" xmlns="http://www.w3.org/2000/svg" xmlns:xlink="http://www.w3.org/1999/xlink">
    <title>电话备份</title>
    <g id="联系我们" stroke="none" stroke-width="1" fill="none" fill-rule="evenodd">
        <g id="首页-手机版" transform="translate(-32.000000, -508.000000)" fill="#116FEC" fill-rule="nonzero">
            <g id="电话备份" transform="translate(32.000000, 508.000000)">
                <path d="M21.6470394,16.5032817 C19.4207325,15.1059475 19.0778116,14.9312807 18.3062396,15.0186141 C17.5346675,15.1059475 17.2774768,15.2806143 16.1656629,16.9372195 C15.9942025,17.1118863 14.5367886,19.4671587 9.14114237,14.2326136 C5.20023095,10.04334 6.40045414,8.56140149 7.08629597,7.60073419 C7.77213779,6.98940045 8.45797961,6.64006688 8.62944007,5.59479536 C8.62944007,5.07079501 8.54370984,4.02279432 6.91483551,1.75485533 C5.80034255,0.0982500649 5.62888209,0.0109166739 4.85998911,0.0109166739 C4.17414729,-0.0764167171 2.97660316,0.360250238 1.77637997,1.32091754 C0.57615678,2.10691806 0.233235868,3.06758536 0.0644544822,4.20019027 C-0.107005974,5.59752453 -0.364196658,10.3954027 5.54583093,17.0272821 C11.4558585,23.6591615 19.0804907,25.1438291 21.8211789,23.2224945 C22.9356719,22.3491606 23.8760253,20.5178885 23.9617555,19.3825545 C24.133216,18.5092206 23.7902951,17.8978868 21.6470394,16.5032817 Z" id="路径"></path>
            </g>
        </g>
    </g>
</svg>
