<?xml version="1.0" encoding="UTF-8"?>
<svg width="56px" height="44px" viewBox="0 0 56 44" version="1.1" xmlns="http://www.w3.org/2000/svg" xmlns:xlink="http://www.w3.org/1999/xlink">
    <title>微信备份</title>
    <g id="手机显示" stroke="none" stroke-width="1" fill="none" fill-rule="evenodd">
        <g id="首页-手机版" transform="translate(-142.000000, -4429.000000)" fill="#666666" fill-rule="nonzero">
            <g id="微信备份" transform="translate(142.000000, 4429.000000)">
                <path d="M37.9089715,13.312683 C38.5532974,13.312683 39.1887356,13.3586315 39.8179854,13.4253081 C38.1035794,5.7236059 29.5655862,0 19.8208398,0 C8.9254314,0 0,7.16379657 0,16.2596768 C0,21.5092301 2.97007453,25.8208177 7.93139065,29.1649196 L5.94930007,34.9175322 L12.8774989,31.565216 C15.358157,32.0378568 17.3462385,32.5252576 19.8208398,32.5252576 C20.4425185,32.5252576 21.0580746,32.4957376 21.6706681,32.4483772 C21.2830324,31.1711883 21.0580746,29.8318148 21.0580746,28.4434125 C21.0581404,20.0913078 28.493992,13.312683 37.9089715,13.312683 Z M27.253663,8.12839449 C28.7462713,8.12839449 29.7342552,9.07662801 29.7342552,10.5153427 C29.7342552,11.9480892 28.7462713,12.9081949 27.253663,12.9081949 C25.7670457,12.9081949 24.2774658,11.9480892 24.2774658,10.5153427 C24.2774658,9.07662801 25.7671115,8.12839449 27.253663,8.12839449 Z M13.3821233,12.9081306 C11.895506,12.9081306 10.3967751,11.9480249 10.3967751,10.5152785 C10.3967751,9.07656379 11.895506,8.12833027 13.3821233,8.12833027 C14.8670947,8.12833027 15.8566587,9.07656379 15.8566587,10.5152785 C15.8566587,11.9480892 14.8670947,12.9081306 13.3821233,12.9081306 Z M56,28.2137341 C56,20.5698525 48.0701235,14.3394653 39.1644426,14.3394653 C29.7342552,14.3394653 22.3075547,20.5698526 22.3075547,28.2137341 C22.3075547,35.8687177 29.7342553,42.0857567 39.1644426,42.0857567 C41.1373821,42.0857567 43.1286237,41.6085596 45.1105827,41.128603 L50.5478191,44 L49.0565934,39.2231516 C53.036114,36.3428344 56,32.5252575 56,28.2137341 Z M33.6984363,25.8208177 C32.7120324,25.8208177 31.7164116,24.8740602 31.7164116,23.9079863 C31.7164116,22.9553247 32.7120324,21.996695 33.6984363,21.996695 C35.1971672,21.996695 36.1790944,22.9553247 36.1790944,23.9079863 C36.1790944,24.8740602 35.1971672,25.8208177 33.6984363,25.8208177 Z M44.5999015,25.8208177 C43.6211344,25.8208177 42.6315704,24.8740602 42.6315704,23.9079863 C42.6315704,22.9553247 43.6211344,21.996695 44.5999015,21.996695 C46.0865188,21.996695 47.0805596,22.9553247 47.0805596,23.9079863 C47.0805596,24.8740602 46.0865188,25.8208177 44.5999015,25.8208177 Z" id="形状"></path>
            </g>
        </g>
    </g>
</svg>