<?xml version="1.0" encoding="UTF-8"?>
<svg width="177px" height="80px" viewBox="0 0 177 80" version="1.1" xmlns="http://www.w3.org/2000/svg" xmlns:xlink="http://www.w3.org/1999/xlink">
    <title>知乎</title>
    <g id="联系我们" stroke="none" stroke-width="1" fill="none" fill-rule="evenodd">
        <g id="首页-手机版" transform="translate(-475.000000, -923.000000)" fill="#1296DB" fill-rule="nonzero">
            <g id="知乎" transform="translate(475.000000, 923.000000)">
                <path d="M9.59749583,6.15167455 C10.7461029,2.36347998 14.589519,0.784145238 18.1236946,0 C17.140752,3.67775156 15.8927463,7.278193 14.8104049,10.9228117 C23.3255594,11.2983178 31.9401126,10.3153752 40.3890014,11.3977165 C41.3498554,13.2531588 41.4934313,15.3736641 41.9793804,17.3726823 C37.1530218,17.6708783 32.3156188,17.5825239 27.4892602,17.5935683 C27.4229944,24.1980591 27.2573299,30.8025499 26.7934693,37.3959963 C31.7634038,37.5727051 36.755427,37.1971989 41.7143172,37.6389709 C43.1942533,39.3839701 43.0065002,41.9020703 43.5476709,44.0115314 C37.8598569,44.1330187 32.1609986,44.0777972 26.4621404,44.0667529 C25.9209697,47.7555488 25.2141346,51.4112118 24.3305907,55.0226975 C25.7332166,54.1833308 27.1358426,53.3329197 28.5384686,52.5045973 C31.6860938,56.1713046 35.0987822,59.6171259 38.0034328,63.4936748 C40.4442229,66.6523443 39.3287486,70.8712665 39.0084639,74.4937966 C33.4200487,69.225666 29.0354619,62.8531054 23.977173,57.0990257 C21.6578703,63.7808266 19.2170802,70.7939564 14.1146141,75.8964225 C10.3374638,79.4637311 4.82635862,79.2318008 0,79.3643324 L0,78.867339 C10.7792358,70.4294946 18.4550236,57.9163038 19.4931877,44.0998858 C13.4188233,44.0557086 7.35550312,44.1551073 1.28113869,44.0004871 C2.28616986,41.9020703 2.45183437,38.9090653 4.76009285,37.7494139 C9.84047038,37.0757116 14.998158,37.605838 20.1006242,37.4622621 C20.3325544,30.8246384 20.5534405,24.1759704 20.5203075,17.5383468 C17.913853,17.5714797 15.2963541,17.6156569 12.6898995,17.7040112 C11.6075582,20.2883772 10.6798371,23.126762 8.43784441,24.9601157 C6.3946491,26.6940706 3.66670729,27.1358426 1.17069568,27.8205891 C4.34040952,20.7411934 7.04626271,13.4740447 9.59749583,6.15167455 L9.59749583,6.15167455 Z M100.017172,8.61455319 C123.640927,7.0793956 147.375126,5.80930126 170.789039,2.29721421 C173.251918,4.87053586 171.506919,8.54828742 170.777995,11.4750266 C160.606196,11.9499315 150.434396,12.5352793 140.262597,13.1979373 L140.262597,40.7755518 C152.289839,40.7424189 164.328124,40.5104887 176.355366,40.5436215 C176.156569,42.3659308 176.145524,44.2324174 175.538088,45.9774166 C175.041094,47.8991247 172.66657,47.2364667 171.241856,47.4242198 C160.915436,47.3910869 150.589017,47.4021312 140.262597,47.4021312 C140.207375,54.4373497 140.350951,61.4615238 140.21842,68.4856979 C140.21842,72.1524052 138.650129,75.951644 135.480416,77.9617065 C128.809659,82.0922743 118.682037,79.8061044 115.40188,72.3622469 C119.631847,72.2407596 123.872857,72.7929746 128.102824,72.516867 C130.863899,72.4395569 133.51453,70.1423428 133.558708,67.303958 C133.790638,60.6773786 133.558708,54.0397549 133.636018,47.4021312 C123.685104,47.3469097 113.734191,47.5015299 103.783278,47.3469097 C99.9840387,47.5125742 97.5984701,44.144063 96.6044832,40.8859948 C108.952009,40.6319759 121.288491,40.8418176 133.636018,40.7755518 C133.602885,31.6419166 133.702283,22.5193257 133.580796,13.3967347 C124.391939,13.4298675 115.203083,14.8324935 106.036314,14.1698355 C102.855556,14.0925254 101.000114,11.2872735 100.017172,8.61455319 L100.017172,8.61455319 Z M46.4081443,9.86255899 C57.8058608,9.84047038 69.2146217,9.85151465 80.6233825,9.85151465 L80.6233825,69.4907292 C76.2387958,69.5680393 71.8431648,69.2919318 67.4585781,69.6122165 C63.2286116,71.4345257 59.6613031,74.5269295 55.5196909,76.5590805 C54.7907672,74.1845563 54.0618435,71.8210763 53.3108311,69.4575962 C51.0136169,69.4796848 48.7053584,69.4796848 46.4081443,69.4907292 L46.4081443,9.86255899 M53.0126351,16.4891384 C52.9905465,31.9180241 52.9905465,47.3579541 53.0126351,62.7868397 C54.4042168,62.8641498 55.7847541,62.9525042 57.1763358,63.0408586 C57.6181078,64.5539275 58.0598797,66.0669965 58.5237403,67.5690211 C61.174372,66.1111737 63.6151621,64.2336429 66.3983255,63.0298142 C68.9164256,62.7205738 71.4676587,62.8641497 73.9968031,62.8420612 L73.9968031,16.478094 C67.0057618,16.478094 60.0036764,16.478094 53.0126351,16.4891384 Z" id="形状"></path>
                <path d="M159.51281,20.2883772 C161.511828,17.5825239 164.902428,19.9018268 167.166509,20.9289466 C163.278916,26.5836277 159.037905,31.9842899 154.697496,37.2855533 C152.952497,35.9602375 151.218542,34.6238773 149.506675,33.2654285 C152.897275,28.9802405 156.0449,24.5072995 159.51281,20.2883772 L159.51281,20.2883772 Z M106.279289,21.5474273 C108.46606,20.6749277 111.436977,19.1287258 113.435995,21.205054 C117.157924,24.9380271 120.007353,29.4330567 122.900959,33.8176434 C121.100738,35.0104277 119.300518,36.2142563 117.489252,37.3959963 C113.844634,32.0395113 109.934952,26.8818237 106.279289,21.5474273 Z" id="形状"></path>
            </g>
        </g>
    </g>
</svg>