<?xml version="1.0" encoding="UTF-8"?>
<svg width="24px" height="24px" viewBox="0 0 24 24" version="1.1" xmlns="http://www.w3.org/2000/svg" xmlns:xlink="http://www.w3.org/1999/xlink">
    <title>加号1备份</title>
    <g id="个人中心-实名认证" stroke="none" stroke-width="1" fill="none" fill-rule="evenodd">
        <g id="实名认证" transform="translate(-1180.000000, -647.000000)" fill="#116FEC" fill-rule="nonzero">
            <g id="加号1备份" transform="translate(1180.000000, 647.000000)">
                <path d="M23.0036374,10.9584594 L13.0825129,10.9615785 L13.0825129,1.00044275 C13.0825129,0.448190621 12.6343223,6.76988785e-16 12.0820702,6.76988785e-16 C11.529818,6.76988785e-16 11.0816812,0.448190621 11.0816812,1.00044275 L11.0816812,10.9545873 L1.00346947,10.9490481 C1.00244767,10.9490481 1.00147967,10.9490481 1.00045787,10.9490481 C0.449227511,10.9490481 0.0020586895,11.3942271 6.76988785e-16,11.9464793 C-0.00299647438,12.4987314 0.444226119,12.9478901 0.996424475,12.9498799 L11.0816274,12.955419 L11.0816274,22.9335488 C11.0816274,23.486769 11.529818,23.9339916 12.0820164,23.9339916 C12.6342148,23.9339916 13.0824591,23.4868228 13.0824591,22.9335488 L13.0824591,12.9624103 L22.9955707,12.9592911 C22.9975604,12.9592911 22.9985822,12.9592911 22.9995503,12.9592911 C23.5507806,12.9592911 23.9979495,12.5141121 24,11.9618599 C24.0020366,11.4096078 23.5548678,10.9604492 23.0036374,10.9584594 Z" id="路径"></path>
            </g>
        </g>
    </g>
</svg>