<?xml version="1.0" standalone="no"?><!DOCTYPE svg PUBLIC "-//W3C//DTD SVG 1.1//EN" "http://www.w3.org/Graphics/SVG/1.1/DTD/svg11.dtd"><svg t="1640938048210" class="icon" viewBox="0 0 1024 1024" version="1.1" xmlns="http://www.w3.org/2000/svg" p-id="6693" data-spm-anchor-id="a313x.7781069.0.i6" xmlns:xlink="http://www.w3.org/1999/xlink" width="21" height="21"><defs><style type="text/css"></style></defs><path d="M689.152 881.664H336.384v11.776c0 12.8-4.608 24.576-13.824 33.792-9.216 9.216-20.992 13.824-33.792 13.824s-24.576-5.12-33.792-13.824c-9.216-8.192-13.824-20.992-13.824-33.792v-11.776h-23.552c-85.504 0-154.624-63.488-154.624-141.824V365.568c0-78.336 69.12-141.824 154.624-141.824h169.472L296.96 142.848c-16.384-14.848-17.408-30.208-3.072-47.104 14.848-16.384 30.208-17.408 47.104-3.072l146.432 130.56h49.152l146.432-130.56c16.384-14.848 32.256-13.824 47.104 3.072 14.848 16.384 13.824 32.256-3.072 47.104l-91.136 81.408h170.496c43.52 0 85.504 16.896 114.176 46.592 25.6 25.088 39.936 59.392 39.424 95.744v374.272c0 78.336-69.12 141.824-154.624 141.824h-23.04v11.776c0 12.8-4.608 24.576-13.824 33.792-9.216 9.216-20.992 13.824-33.792 13.824s-24.576-4.608-33.792-13.824c-9.216-9.216-13.824-20.992-13.824-33.792v-12.288l2.048-0.512z m-126.464-163.84c7.168 0 14.336-2.048 19.968-6.656l42.496-31.744c6.656-3.584 9.728-10.752 9.728-18.432-0.512-7.68-5.12-13.824-12.288-16.384-7.168-3.072-14.848-1.536-20.48 3.584l-37.888 28.16-27.648-33.792c-6.144-7.68-15.36-12.288-25.6-12.288s-19.456 4.096-25.6 11.776l-28.16 33.28-32.768-27.136c-5.12-4.608-12.8-6.144-19.456-3.584-6.656 2.048-11.264 8.192-12.288 14.848-1.024 7.168 2.048 14.336 7.168 18.432l36.864 30.72c14.336 11.264 34.816 9.728 46.592-4.096l27.136-32.256 26.624 32.768c5.632 7.68 15.36 12.8 25.6 12.8zM397.312 499.2c16.384-3.584 27.136-19.968 23.04-35.84-1.536-8.192-6.144-14.848-13.312-19.456-6.656-4.096-14.848-5.632-23.04-4.096l-148.992 34.304c-16.384 3.072-27.136 19.968-23.04 35.84 3.072 16.384 19.968 27.136 35.84 23.04-0.512 0 149.504-33.792 149.504-33.792z m230.912 0l148.992 34.304c10.24 2.048 21.504-1.536 28.672-9.728 7.168-8.192 9.728-19.456 6.144-29.696-3.072-10.24-11.776-17.92-23.04-20.48L640 439.296c-8.192-2.048-16.384-0.512-23.04 4.096-6.656 4.096-11.264 11.264-13.312 19.456-2.56 15.872 8.704 32.256 24.576 36.352z" fill="#ffffff" p-id="6694"></path></svg>