<?xml version="1.0" encoding="UTF-8"?>
<svg width="14px" height="12px" viewBox="0 0 14 12" version="1.1" xmlns="http://www.w3.org/2000/svg" xmlns:xlink="http://www.w3.org/1999/xlink">
    <title>评论 (1)备份 3</title>
    <g id="插件详情页未登录" stroke="none" stroke-width="1" fill="none" fill-rule="evenodd">
        <g id="插件详情页-未登录或未购买" transform="translate(-762.000000, -3424.000000)" fill="#666666" fill-rule="nonzero">
            <g id="评论-(1)备份-3" transform="translate(762.000000, 3424.000000)">
                <path d="M4.23255814,12 C4.10129815,11.9994358 3.9832067,11.918229 3.93305018,11.7940404 C3.88289366,11.6698518 3.91048299,11.5269733 4.00302326,11.4316667 L5.63093023,9.765 C5.69170819,9.70240204 5.77425493,9.6670388 5.86046512,9.66666667 L12.0465116,9.66666667 C12.7635518,9.66122185 13.343519,9.06744586 13.3488372,8.33333333 L13.3488372,2.00833333 C13.343519,1.27422081 12.7635518,0.680444816 12.0465116,0.675 L1.96162791,0.675 C1.24143055,0.68048853 0.660175943,1.27930187 0.659302326,2.01666667 L0.659302326,8.33333333 C0.664663215,9.07067825 1.24955066,9.66577225 1.96976744,9.66666667 L3.58139535,9.66666667 C3.76120899,9.66666667 3.90697674,9.81590508 3.90697674,10 C3.90697674,10.1840949 3.76120899,10.3333333 3.58139535,10.3333333 L1.96162791,10.3333333 C0.882157388,10.3315206 0.00625894881,9.43848844 0,8.33333333 L0,2.00833333 C0.00179244384,0.899922483 0.878994053,0.00183512107 1.96162791,0 L12.0465116,0 C13.1259655,0.0064079714 13.9982295,0.903161135 14,2.00833333 L14,8.33333333 C13.9937759,9.43525256 13.1228048,10.3269611 12.0465116,10.3333333 L5.9955814,10.3333333 L4.46209302,11.9016667 C4.40131507,11.9642646 4.31876832,11.9996279 4.23255814,12 Z" id="路径"></path>
                <path d="M3.90697674,6 C3.54734947,6 3.25581395,5.70152317 3.25581395,5.33333333 C3.25581395,4.9651435 3.54734947,4.66666667 3.90697674,4.66666667 C4.26660402,4.66666667 4.55813953,4.9651435 4.55813953,5.33333333 C4.55813953,5.70152317 4.26660402,6 3.90697674,6 L3.90697674,6 Z M7,6 C6.64037272,6 6.34883721,5.70152317 6.34883721,5.33333333 C6.34883721,4.9651435 6.64037272,4.66666667 7,4.66666667 C7.35962728,4.66666667 7.65116279,4.9651435 7.65116279,5.33333333 C7.65116279,5.70152317 7.35962728,6 7,6 Z M10.0930233,6 C9.73339598,6 9.44186047,5.70152317 9.44186047,5.33333333 C9.44186047,4.9651435 9.73339598,4.66666667 10.0930233,4.66666667 C10.4526505,4.66666667 10.744186,4.9651435 10.744186,5.33333333 C10.744186,5.70152317 10.4526505,6 10.0930233,6 L10.0930233,6 Z" id="形状"></path>
            </g>
        </g>
    </g>
</svg>