<svg xmlns="http://www.w3.org/2000/svg" viewBox="0 0 203.85 164.726"><defs><style>.cls-1{fill:#2295f4;}</style></defs><g id="图层_2" data-name="图层 2"><g id="图层_1-2" data-name="图层 1"><path class="cls-1" d="M90.982,16.194c10.939.026,21.057.994,30.945,3.755a78.054,78.054,0,0,1,35.581,20.925c9.648,9.907,16.315,21.523,19.119,35.12,4.377,21.227-.454,40.258-14.225,57a64.851,64.851,0,0,1-13.7,12.316,75.813,75.813,0,0,1-28.863,11.852,77.545,77.545,0,0,1-23.082.859,89.277,89.277,0,0,1-26.945-7.552A147.4,147.4,0,0,1,21.8,116.053a91.436,91.436,0,0,1-17.462-26A49.432,49.432,0,0,1,0,70.184,36.221,36.221,0,0,1,5.923,50.4c5.171-8.052,12.366-13.919,20.59-18.567C38.836,24.869,52.156,20.779,66.06,18.416A157.774,157.774,0,0,1,90.982,16.194Zm14.965,1.71c9.42,1.156,19.278,3.1,27.9,7.171,13.264,6.266,24.639,14.6,32.727,26.871A68.834,68.834,0,0,1,178,85.443a63.978,63.978,0,0,1-5.123,30.276,67.3,67.3,0,0,1-27.251,31.25,76.176,76.176,0,0,1-31.5,10.749A79.383,79.383,0,0,1,84.4,155.383a116.362,116.362,0,0,1-25.159-10.4,3.712,3.712,0,0,0-1.635-.691,77.785,77.785,0,0,0,8.839,7.356,71.562,71.562,0,0,0,31.565,12.347,76.711,76.711,0,0,0,22.307-.164A80.182,80.182,0,0,0,148.205,154a87.1,87.1,0,0,0,26.579-24.142c14.9-20.043,24.668-42.286,28.206-67.117a76.629,76.629,0,0,0-.276-24.628,47.219,47.219,0,0,0-6.482-17.382c-5.965-9.281-14.541-14.973-25.033-18C161.705-.006,152.018-.435,142.252.35a135.32,135.32,0,0,0-31.24,6.49A163.777,163.777,0,0,0,88.059,16.928,150.4,150.4,0,0,1,105.947,17.9ZM89.953,16.2a3.473,3.473,0,0,0-1.577.407c-4.3,2.468-8.682,4.82-12.844,7.508a90.354,90.354,0,0,0-19.9,17.07,79.969,79.969,0,0,0-16,28.992,75.293,75.293,0,0,0-1.135,40.879,71.669,71.669,0,0,0,15.572,29.654,20.08,20.08,0,0,0,6.6,5.222c3,1.431,5.943,2.969,8.969,4.334a89.091,89.091,0,0,0,28.794,7.846,77.5,77.5,0,0,0,21.51-1.007,75.662,75.662,0,0,0,28.852-11.839,65.952,65.952,0,0,0,13.771-12.392c11.641-14.053,16.919-30.168,15.453-48.386a68.306,68.306,0,0,0-13.58-35.609,77.357,77.357,0,0,0-38.4-27.748c-9.95-3.369-20.261-4.612-31.091-4.95C93.536,16.183,91.743,16.153,89.953,16.2Z"/><path d="M174.308,84.892a64.508,64.508,0,0,0-12.822-33.621,73.045,73.045,0,0,0-36.254-26.2c-9.394-3.18-19.13-4.353-29.355-4.673-1.332,0-3.024-.028-4.715.018a3.284,3.284,0,0,0-1.489.384c-4.062,2.331-8.2,4.552-12.127,7.089A85.288,85.288,0,0,0,58.757,44.007,75.492,75.492,0,0,0,43.65,71.38a71.067,71.067,0,0,0-1.072,38.6,67.656,67.656,0,0,0,14.7,28,18.982,18.982,0,0,0,6.231,4.931c2.829,1.35,5.612,2.8,8.468,4.092A84.124,84.124,0,0,0,99.165,154.4a73.189,73.189,0,0,0,20.31-.95,71.408,71.408,0,0,0,27.24-11.179,62.223,62.223,0,0,0,13-11.7C170.708,117.308,175.692,102.092,174.308,84.892ZM99.96,69.866h.191c2.068,0,4.137.021,6.2-.014.552-.01.763.167.925.692q3.019,9.749,6.094,19.482l0,.006a.371.371,0,0,0,.7.008c.04-.1.075-.2.106-.3q3.1-9.584,6.189-19.173a.852.852,0,0,1,.988-.721c1.325.046,2.652.015,3.979.015h5a.373.373,0,0,1,.357.482c-.051.165-.1.313-.15.458q-3.673,10.352-7.352,20.7c-1.112,3.132-2.213,6.269-3.346,9.393-.085.234-.386.556-.587.556-2.358,0-4.717-.055-7.076-.079a.641.641,0,0,1-.68-.5c-.333-.931-.688-1.854-1.048-2.774q-5.319-13.586-10.639-27.169c-.073-.185-.137-.375-.2-.581A.371.371,0,0,1,99.96,69.866Zm60.6,35.99a2.7,2.7,0,0,1-2.7,2.7H77.954c-.65.033-1.3.052-1.955.051q-10.549-.014-21.1-.039v-4.9H74.449a.243.243,0,0,1,.04,0h2.958a9.6,9.6,0,0,0,5.377-2.076,11.365,11.365,0,0,0,3.69-6.2,24.363,24.363,0,0,0,.575-8.885,14.59,14.59,0,0,0-3.895-9.164,8.933,8.933,0,0,0-7.325-2.877c-.915.059-.927.086-.933.981q-.078,12.535-.157,25.07c0,.26,0,.52,0,.773a.136.136,0,0,1-.138.136H64.734a.137.137,0,0,1-.137-.138V75.107a.144.144,0,0,0-.135-.14l-3.091-.137a.135.135,0,0,1-.13-.136V69.863a.139.139,0,0,1,.126-.137c.2-.019.363-.039.527-.041,4.742-.053,9.485-.118,14.227-.148a34.8,34.8,0,0,1,8.621.934A16.63,16.63,0,0,1,97.617,83.247a20.921,20.921,0,0,1-2.79,16.546,18.189,18.189,0,0,1-2.914,3.641.136.136,0,0,0,.094.236l58.389.021,0-.007c-2.431-6.555-5.915-15.632-8.394-22.122-.038-.1-.069-.2-.111-.3a.369.369,0,0,0-.694.024q-3.06,9.738-6.094,19.483a.8.8,0,0,1-.925.692c-2.068-.035-4.136-.014-6.205-.014a.509.509,0,0,1-.483-.67c.047-.138.093-.269.144-.4Q132.948,86.788,138.27,73.2c.36-.921.715-1.844,1.048-2.774a.643.643,0,0,1,.681-.5c2.358-.024,4.717-.081,7.076-.078.2,0,.5.322.586.555,1.133,3.125,2.234,6.261,3.347,9.393,2.817,7.15,6.243,15.245,8.73,21.671A10.7,10.7,0,0,1,160.559,105.856Z"/></g></g></svg>