<?xml version="1.0" encoding="UTF-8"?>
<svg width="60px" height="47px" viewBox="0 0 60 47" version="1.1" xmlns="http://www.w3.org/2000/svg" xmlns:xlink="http://www.w3.org/1999/xlink">
    <title>网约车平台_多平台</title>
    <g id="页面-1" stroke="none" stroke-width="1" fill="none" fill-rule="evenodd">
        <g id="首页" transform="translate(-394.000000, -1315.000000)" fill="#000000" fill-rule="nonzero">
            <g id="网约车平台_多平台" transform="translate(394.000000, 1315.000000)">
                <path d="M21.2563712,11.5904897 L37.4644433,11.5904897 C39.531702,11.5904897 41.060328,12.5082108 41.9821399,14.3968344 C42.3230467,15.0950114 42.4485004,15.857279 42.438955,16.6468191 C42.428046,21.0513347 42.438955,25.4626685 42.438955,29.8658205 L42.438955,36.9839541 C42.438955,39.943025 40.4071506,42.0116473 37.4821704,42.0116473 C26.6686073,42.0225564 15.8454988,42.0116473 5.03057199,42.0116473 C2.83104142,42.0116473 1.04196265,40.8048374 0.326058403,38.871214 C0.111745071,38.2901593 0.00276718817,37.6755426 0.0042423939,37.0562264 C0.0042423939,30.2380907 -0.00530299237,23.4295005 0.0042423939,16.6100012 C0.0042423939,13.7054754 2.11513718,11.5904897 5.00466305,11.5904897 L21.2563712,11.5904897 Z M21.2740983,39.4521192 C26.6863344,39.4521192 32.1067523,39.4343921 37.5189883,39.4617279 C38.9412514,39.47121 40.0144259,38.3993991 40.0062907,36.9375908 C39.9871534,30.1549094 39.9953352,23.3831371 39.9953352,16.6018194 C39.9953352,15.0309209 39.048978,14.0695638 37.4917158,14.0695638 L5.00466305,14.0695638 C3.49376417,14.0695638 2.53649797,15.0131938 2.53649797,16.548638 C2.52831619,23.3476828 2.53649797,30.1576367 2.53649797,36.9566816 C2.53649797,37.346679 2.56377052,37.7271309 2.74240564,38.0912194 C3.22512966,39.0348494 3.98466996,39.4617279 5.0319356,39.4521192 C10.4523534,39.4439374 15.8645895,39.4521192 21.275462,39.4521192 L21.2740983,39.4521192 Z" id="形状"></path>
                <path d="M59.9983815,23.2167746 L59.9983815,42.3648268 C59.9983815,43.7107267 59.5592936,44.8602644 58.4220286,45.6729862 C57.7732331,46.1317687 56.9951893,46.3720119 56.20068,46.3588906 C52.7016128,46.3670724 49.2080001,46.3588906 45.7075693,46.3588906 C45.1703002,46.3588906 44.9548471,46.1352558 44.9371199,45.5911686 C44.9289381,45.2625344 44.9289381,44.9229912 44.9371199,44.5929935 C44.9548471,44.0857242 45.1784819,43.8620894 45.6980239,43.8539076 C46.4139281,43.8443622 47.1298324,43.8539076 47.8471002,43.8539076 L56.0138631,43.8539076 C57.0338562,43.8539076 57.4647624,43.4270923 57.4729441,42.4002811 C57.4729441,40.6521111 57.4647623,38.9053047 57.4824895,37.1584984 C57.4824895,36.8557732 57.3843084,36.7835009 57.096583,36.7835009 C53.337063,36.79441 49.5761794,36.79441 45.8139322,36.7944099 C45.0434828,36.7944099 44.8648477,36.6239565 44.8648477,35.8480527 C44.8648477,35.5889635 44.8566659,35.3230563 44.8648477,35.0639671 C44.8743931,34.5294253 45.0980279,34.3057904 45.635297,34.2976087 L45.9216587,34.2976087 C49.6389063,34.2976087 53.3452448,34.2976087 57.0624924,34.3057904 C57.3761266,34.3057904 57.4824895,34.2444272 57.4824895,33.9048841 C57.4729441,23.9558606 57.4729441,14.0095643 57.4729441,4.05917709 C57.4729441,3.70190679 57.4552169,3.3460001 57.2315821,3.03236583 C57.0003657,2.68731683 56.6076375,2.48579881 56.1924982,2.49918762 L37.2462629,2.49918762 C36.1089979,2.49918762 35.6426374,2.96282086 35.6426374,4.10281315 L35.6426374,8.13505856 C35.6426374,8.77596332 35.4367297,8.99005278 34.7835523,8.99959816 C34.4521909,8.99959816 34.1112841,9.00777994 33.7799228,8.99005278 C33.3503802,8.96278023 33.1349271,8.75823616 33.1349271,8.33005725 C33.1267453,6.72506811 33.0817457,5.12144263 33.1621997,3.51645349 C33.2590172,1.51873973 34.8994606,0.013295374 36.9312651,0.013295374 C43.3525852,-0.00443179134 49.7807235,-0.00443179134 56.20068,0.013295374 C58.4220286,0.0214771531 59.9806544,1.71510202 59.9806544,4.04281357 C60.007927,10.4341339 59.9983816,16.8254543 59.9983815,23.2181382 L59.9983815,23.2167746 L59.9983815,23.2167746 Z M21.2618257,46.2866184 L0.988781149,46.2866184 C0.184241126,46.2866184 0.00424234862,46.1093469 0.0042423939,45.2979887 C0.0042423939,45.0402632 -0.00393938517,44.7716286 0.0042423939,44.5139031 C0.0315149455,44.0229974 0.25378618,43.8089079 0.747419142,43.7816354 L41.4721434,43.7816354 C41.5798699,43.7816354 41.6875965,43.7734536 41.7939594,43.7816354 C42.2153202,43.8184533 42.438955,44.013452 42.4566822,44.4334491 C42.4839547,44.8343555 42.4744093,45.2448073 42.4566822,45.6457137 C42.438955,46.04662 42.223502,46.2348006 41.8212319,46.2784366 C41.6780511,46.2866184 41.5348703,46.2866184 41.3916894,46.2866184 L21.2618257,46.2866184 Z" id="形状"></path>
                <path d="M48.2930063,40.5716571 C48.2712354,41.3665721 47.6276591,42.0035384 46.8325616,42.0171019 C46.0402943,42.0171019 45.3734806,41.3557427 45.3652988,40.5716571 C45.3652988,39.7793897 46.048476,39.112576 46.8489251,39.1193942 C47.6474792,39.1246378 48.2922743,39.7730862 48.2930063,40.5716571 L48.2930063,40.5716571 Z" id="路径"></path>
            </g>
        </g>
    </g>
</svg>