<?xml version="1.0" encoding="UTF-8"?>
<svg width="58px" height="55px" viewBox="0 0 58 55" version="1.1" xmlns="http://www.w3.org/2000/svg" xmlns:xlink="http://www.w3.org/1999/xlink">
    <title>仓库库存</title>
    <g id="页面-1" stroke="none" stroke-width="1" fill="none" fill-rule="evenodd">
        <g id="首页" transform="translate(-1293.000000, -1312.000000)" fill="#000000" fill-rule="nonzero">
            <g id="仓库库存" transform="translate(1293.000000, 1312.000000)">
                <path d="M25.8843013,1.11897451 C27.7044488,-0.372991504 30.3246051,-0.372991504 32.1447526,1.11897451 L57.5274738,21.9026547 C58.0829042,22.3705549 58.1595564,23.1978053 57.6995545,23.7597945 C57.2395526,24.3217837 56.4134684,24.4101222 55.8450328,23.9581106 L30.4612048,3.17553721 C29.6199088,2.48508982 28.4080382,2.48508982 27.5667422,3.17553721 L2.1840211,23.9570037 C1.81767565,24.2656168 1.31353989,24.353069 0.864656128,24.1858733 C0.415772361,24.0186776 0.0916856782,23.6227375 0.0164944819,23.1496653 C-0.0586967145,22.6765931 0.126656869,22.1996813 0.501580135,21.9015479 L25.8843013,1.12008138 L25.8843013,1.11897451 Z M15.531755,20.9208619 C15.5306443,20.247052 15.7972747,19.600405 16.2731077,19.1233264 C16.7489407,18.6462478 17.3948883,18.3778632 18.0686989,18.3772768 L24.7132338,18.3772768 C25.3868525,18.3781567 26.0325157,18.6466707 26.5081093,19.1237175 C26.9837029,19.6007643 27.250246,20.2472436 27.2490747,20.9208619 L27.2490747,27.5997097 C27.250246,28.273328 26.9837029,28.9198073 26.5081093,29.3968541 C26.0325157,29.8739009 25.3868525,30.1424149 24.7132338,30.1432948 L18.067592,30.1432948 C17.3937814,30.1427084 16.7478339,29.8743239 16.2720009,29.3972452 C15.7961678,28.9201666 15.529473,28.2735196 15.5306443,27.5997097 L15.5306443,20.9208619 L15.531755,20.9208619 Z M18.1882407,21.0337625 L18.1882407,27.4868091 L24.5925851,27.4868091 L24.5925851,21.0337625 L18.1893476,21.0337625 L18.1882407,21.0337625 Z M7.7991678,25.3616205 C8.53273608,25.3616205 9.12741067,25.9562951 9.12741067,26.6898634 L9.12741067,47.9417492 C9.12741067,49.8975868 10.7035922,51.4715546 12.6317581,51.4715546 L45.2511891,51.4715546 C47.179355,51.4715546 48.7544296,49.8975868 48.7544296,47.9417492 L48.7544296,26.6898634 C48.7544296,25.9562951 49.3491042,25.3616205 50.0826725,25.3616205 C50.8162408,25.3616205 51.4109154,25.9562951 51.4109154,26.6898634 L51.4109154,47.9417492 C51.4109154,51.3509059 48.6592389,54.1280403 45.2500822,54.1280403 L12.632865,54.1280403 C9.22370827,54.1280403 6.47203181,51.3520127 6.47203181,47.9417492 L6.47203181,26.6898634 C6.47203181,25.9562951 7.06670639,25.3616205 7.80027467,25.3616205 L7.7991678,25.3616205 Z M15.531755,36.1015709 C15.530646,35.4277611 15.7972747,34.7811141 16.2731077,34.3040355 C16.7489407,33.8269568 17.3948883,33.5585723 18.0686989,33.5579859 L24.7132338,33.5579859 C25.3868525,33.5588658 26.0325157,33.8273798 26.5081093,34.3044266 C26.9837029,34.7814734 27.250246,35.4279527 27.2490747,36.1015709 L27.2490747,42.7804188 C27.2499521,43.4538454 26.9832792,44.1000403 26.5077174,44.5768476 C26.0321556,45.0536549 25.3866604,45.3220169 24.7132338,45.322897 L18.067592,45.322897 C17.3939735,45.3223103 16.748194,45.0540777 16.2723928,44.5772386 C15.7965917,44.1003995 15.529767,43.454037 15.530646,42.7804188 L15.530646,36.1015709 L15.531755,36.1015709 Z M18.1882407,36.2144716 L18.1882407,42.6675182 L24.5925851,42.6675182 L24.5925851,36.2144716 L18.1893476,36.2144716 L18.1882407,36.2144716 Z M30.6327656,36.1015709 C30.6315943,35.4277611 30.8982892,34.7811141 31.3741222,34.3040355 C31.8499552,33.8269568 32.4959028,33.5585723 33.1697134,33.5579859 L39.8142483,33.5579859 C40.487867,33.5588658 41.1335301,33.8273798 41.6091238,34.3044266 C42.0847174,34.7814734 42.3512604,35.4279527 42.3500892,36.1015709 L42.3500892,42.7804188 C42.3509666,43.4538454 42.0842937,44.1000403 41.6087319,44.5768476 C41.1331701,45.0536549 40.4876749,45.3220169 39.8142483,45.322897 L33.1697134,45.322897 C32.4960948,45.3223103 31.8503153,45.0540777 31.3745142,44.5772386 C30.898713,44.1003995 30.6318883,43.454037 30.6327656,42.7804188 L30.6327656,36.1015709 Z M33.2892552,36.2144716 L33.2892552,42.6675182 L39.6935996,42.6675182 L39.6935996,36.2144716 L33.2892552,36.2144716 Z" id="形状"></path>
            </g>
        </g>
    </g>
</svg>