<?xml version="1.0" encoding="UTF-8"?>
<svg width="25px" height="25px" viewBox="0 0 25 25" version="1.1" xmlns="http://www.w3.org/2000/svg" xmlns:xlink="http://www.w3.org/1999/xlink">
    <title>gitee-fill-round</title>
    <g id="页面-1" stroke="none" stroke-width="1" fill="none" fill-rule="evenodd">
        <g id="首页" transform="translate(-1448.000000, -3476.000000)" fill="#ffffff" fill-rule="nonzero">
            <g id="gitee-fill-round" transform="translate(1448.000000, 3476.000000)">
                <path d="M12.5,25 C5.625,25 0,19.375 0,12.5 C0,5.625 5.625,0 12.5,0 C19.375,0 25,5.625 25,12.5 C25,19.375 19.375,25 12.5,25 Z M18.828125,11.09375 L11.71875,11.09375 C11.40625,11.09375 11.09375,11.40625 11.09375,11.71875 L11.09375,13.28125 C11.09375,13.59375 11.40625,13.90625 11.71875,13.90625 L16.015625,13.90625 C16.328125,13.90625 16.640625,14.21875 16.640625,14.53125 L16.640625,14.84375 C16.640625,15.859375 15.78125,16.71875 14.765625,16.71875 L8.90625,16.71875 C8.59375,16.71875 8.28125,16.40625 8.28125,16.09375 L8.28125,10.15625 C8.28125,9.140625 9.140625,8.28125 10.15625,8.28125 L18.828125,8.28125 C19.140625,8.28125 19.453125,7.96875 19.453125,7.65625 L19.453125,6.09375 C19.453125,5.78125 19.140625,5.46875 18.828125,5.46875 L10.15625,5.46875 C7.578125,5.46875 5.546875,7.578125 5.546875,10.078125 L5.546875,18.75 C5.546875,19.0625 5.859375,19.375 6.171875,19.375 L15.3125,19.375 C17.578125,19.375 19.453125,17.5 19.453125,15.234375 L19.453125,11.71875 C19.453125,11.40625 19.140625,11.09375 18.828125,11.09375 Z" id="形状"></path>
            </g>
        </g>
    </g>
</svg>
