<?xml version="1.0" encoding="UTF-8"?>
<svg width="18px" height="18px" viewBox="0 0 18 18" version="1.1" xmlns="http://www.w3.org/2000/svg" xmlns:xlink="http://www.w3.org/1999/xlink">
    <title>注意</title>
    <g id="插件详情页未登录" stroke="none" stroke-width="1" fill="none" fill-rule="evenodd">
        <g id="插件详情页-未登录或未购买" transform="translate(-989.000000, -2302.000000)" fill="#666666" fill-rule="nonzero">
            <g id="注意" transform="translate(989.000000, 2302.000000)">
                <path d="M9,0 C6.57,0 4.32,0.9 2.61,2.61 C0.99,4.32 0,6.57 0,8.91 C0,13.95 3.96,18 8.91,18 C13.95,18 18,14.04 18,9.09 C18,4.05 14.04,0 9,0 Z M9,16.83 C4.59,16.83 1.08,13.32 1.17,8.91 C1.17,4.59 4.68,1.08 9,1.17 C13.32,1.17 16.83,4.68 16.83,9 C16.83,13.41 13.41,16.83 9,16.83 Z M8.1,7.47 L8.1,10.35 C8.1,10.98 8.46,11.16 9.09,11.16 C9.72,11.16 9.72,10.8 9.72,10.35 C9.81,8.64 9.81,6.93 9.9,5.22 C9.99,4.59 9.9,4.14 9,4.14 C8.1,4.14 8.01,4.5 8.01,5.22 L8.1,7.47 Z M10.17,13.41 C10.08,14.13 9.63,14.49 9,14.49 C8.37,14.49 7.92,14.13 7.83,13.5 C7.74,12.78 8.19,12.42 8.91,12.42 C9.63,12.33 9.99,12.78 10.17,13.41 L10.17,13.41 Z" id="形状"></path>
            </g>
        </g>
    </g>
</svg>