<?xml version="1.0" encoding="UTF-8"?>
<svg width="32px" height="42px" viewBox="0 0 32 42" version="1.1" xmlns="http://www.w3.org/2000/svg" xmlns:xlink="http://www.w3.org/1999/xlink">
    <title>编组备份</title>
    <g id="页面-1" stroke="none" stroke-width="1" fill="none" fill-rule="evenodd">
        <g id="首页" transform="translate(-360.000000, -3217.000000)" fill-rule="nonzero">
            <g id="编组备份" transform="translate(360.000000, 3217.000000)">
                <path d="M5.17330102,38.0076279 L5.17330102,41.9999991 L6.15256886,41.9999991 L6.15256886,38.0076279 L5.17330102,38.0076279 Z M21.2851,24.0425279 C13.5629416,24.0515642 7.30515271,30.2986622 7.29610099,38.0076279 L7.29610099,41.9999991 L11.2915138,41.9999991 L11.2915138,38.0076279 L11.2915138,38.0076279 C11.2984769,32.5015347 15.7683196,28.0398926 21.2838365,28.0336377 L21.2838365,28.0336377 L25.28304,28.0336377 L25.28304,24.0425279 L21.2851,24.0425279 Z M21.2851,21.0000005 L21.2851,21.8186573 L25.2843035,21.8186573 L25.2843035,21.0025233 L21.2851,21.0000005 Z M21.2851,22.5136957 L21.2851,23.3323525 L25.2843035,23.3323525 L25.2843035,22.5162185 L21.2851,22.5136957 Z M27.9971913,7.21275966 L27.9971913,7.98726706 L31.9951313,7.98726706 L31.9951313,7.21275966 L27.9971913,7.21275966 Z M12.7951637,9.25061293e-07 C8.94811743,-0.00164033438 5.43491959,2.18079644 3.73705017,5.6270007 C2.03918074,9.07320496 2.45214924,13.1833743 4.80181103,16.224292 C1.69010478,19.9997019 -0.00761834805,24.7389614 0.000212528251,29.6280633 L0.000212528251,42.0000009 L3.99817962,42.0000009 L3.99817962,38.0076279 L3.99817962,38.0076279 L3.99817962,29.6255405 C4.00503801,28.2771883 4.16785369,26.9341374 4.48339104,25.623078 L4.46949175,25.6369535 C4.62934496,24.9682213 4.82978025,24.3098105 5.06968817,23.6653655 L5.08864174,23.614909 C5.72721375,21.8830812 6.65094801,20.2698409 7.82174669,18.8417233 C8.643261,19.3072316 9.52631174,19.6550076 10.4449209,19.8748203 L10.5649602,19.9000486 L10.5877045,19.9000486 L10.6786816,19.9202312 L10.7898759,19.9416752 L10.8303102,19.9505051 L10.8543181,19.9505051 C11.0804973,19.9933931 11.2738238,20.0261899 11.4203981,20.0463725 L11.4658866,20.0463725 L11.6427866,20.0703393 L11.6642673,20.0703393 L11.7021745,20.0703393 L11.7084923,20.0703393 C12.0694344,20.1088384 12.4321673,20.1282072 12.7951637,20.1283643 L21.2851,20.1283643 L21.2851,20.1283643 L25.2843035,20.1283643 L25.2843035,16.1599599 L12.8772959,16.1599599 C12.7787373,16.1599599 12.7105045,16.1599599 12.6106823,16.1599599 C12.4527132,16.1577028 12.2949713,16.1471766 12.1381066,16.1284246 L12.0698738,16.1284246 C11.9637338,16.1158105 11.8601209,16.1006735 11.7577716,16.0842752 L11.5619181,16.0451714 C11.5000031,16.0325573 11.4355609,16.0186817 11.3787002,16.0022833 C11.2523431,15.9732709 11.1499938,15.942997 11.0779702,15.9240758 L11.0400631,15.9114616 L10.9730938,15.8925404 C13.817393,13.840222 17.3364394,12.626743 21.1637972,12.5006017 L32.0001856,12.5006017 L32.0001856,8.4981392 L20.7645086,8.4981392 L20.7645086,8.4981392 C15.9723787,8.58164022 11.3516971,10.2923046 7.66380027,13.348271 C6.46060708,11.4763362 6.37732276,9.09793172 7.44664028,7.14669229 C8.51595781,5.19545286 10.5672019,3.98281843 12.7951637,3.98480457 L18.3826765,3.98480457 L18.3826765,3.99237304 L27.8139735,3.99237304 L32.0001856,3.99237304 L32.0001856,9.25061293e-07 L12.7951637,9.25061293e-07 Z M27.9971913,5.37235854 L31.9951313,5.37235854 L31.9951313,4.6041582 L27.9971913,4.6041582 L27.9971913,5.37235854 Z M27.9971913,6.69558046 L31.9951313,6.69558046 L31.9951313,5.92233447 L27.9971913,5.92233447 L27.9971913,6.69558046 Z" id="形状" fill="#000000"></path>
                <path d="M4.56288873,16.5041057 C1.45176537,20.2276945 -0.00758183067,24.9975048 0,29.8166077 L0,42 L4.00731486,42 L4.00731486,38.0597757 L4.00731486,29.805428 C4.01479998,28.477663 4.17756853,27.1551504 4.49241176,25.8639615 L4.47851576,25.8776255 C4.63849718,25.2176378 4.83845084,24.5676421 5.07730725,23.931115 C5.08362362,23.9137243 5.08993998,23.8975758 5.09499308,23.8814274 C5.73414406,22.1760657 6.42798676,20.7127915 7.60045238,19.0973529 C8.57047959,18.0454768 9.62043851,16.9643147 10.7466924,16.075614 C13.5915836,14.0545721 17.3373427,12.6248206 21.1637972,12.5006017 L32.0001812,12.5006017 L32.0001812,8.4981392 L20.7645086,8.4981392 C15.8482577,8.4981392 10.9780563,10.3871544 7.49129004,13.5192454 C7.49129004,13.5192454 5.67962223,15.1886273 4.56288873,16.5041057 Z" id="路径" fill="#FFCE05"></path>
            </g>
        </g>
    </g>
</svg>