<?xml version="1.0" encoding="UTF-8"?>
<svg width="60px" height="16px" viewBox="0 0 60 16" version="1.1" xmlns="http://www.w3.org/2000/svg" xmlns:xlink="http://www.w3.org/1999/xlink">
    <title>Paypal (1)</title>
    <g id="插件购买弹窗" stroke="none" stroke-width="1" fill="none" fill-rule="evenodd">
        <g id="插件详情页-微信支付" transform="translate(-818.000000, -671.000000)" fill-rule="nonzero">
            <g id="Paypal-(1)" transform="translate(818.000000, 671.000000)">
                <path d="M40.4801304,0.0209698587 L35.8059922,0.0209698587 C35.4915883,0.0209698587 35.2191049,0.251638264 35.1562242,0.566186105 L33.2698007,12.5399738 C33.2278802,12.7706422 33.4165225,12.9803408 33.6470854,12.9803408 L36.0365551,12.9803408 C36.267118,12.9803408 36.4557603,12.8125819 36.4767206,12.6028834 L37.0216874,9.2057667 C37.0636079,8.89121886 37.3360913,8.66055046 37.6714555,8.66055046 L39.1386737,8.66055046 C42.2198321,8.66055046 43.980494,7.17169069 44.4416197,4.21494102 C44.6512224,2.93577982 44.4416197,1.90825688 43.8547324,1.19528179 C43.2259246,0.419397114 42.05215,0.0209698587 40.4801304,0.0209698587 Z M41.0250972,4.38269987 C40.7735741,6.06028834 39.4949982,6.06028834 38.2583428,6.06028834 L37.5456939,6.06028834 L38.0487402,2.93577982 C38.0697004,2.74705111 38.2373825,2.60026212 38.4260249,2.60026212 L38.7404288,2.60026212 C39.5788392,2.60026212 40.3753291,2.60026212 40.7945343,3.08256881 C41.0460575,3.37614679 41.1089383,3.7955439 41.0250972,4.38269987 L41.0250972,4.38269987 Z" id="形状" fill="#1296DB"></path>
                <path d="M7.21619645,0.0209698587 L2.54205829,0.0209698587 C2.22765437,0.0209698587 1.95517098,0.251638264 1.89229019,0.566186105 L0.00586671687,12.5399738 C-0.0360538106,12.7706422 0.152588543,12.9803408 0.383151404,12.9803408 L2.60493906,12.9803408 C2.91934297,12.9803408 3.19182636,12.7496724 3.25470715,12.4351245 L3.7577534,9.2057667 C3.79967393,8.89121886 4.07215732,8.66055046 4.4075215,8.66055046 L5.87473975,8.66055046 C8.9558981,8.66055046 10.71656,7.17169069 11.1776858,4.21494102 C11.3872884,2.93577982 11.1776858,1.90825688 10.5907984,1.19528179 C9.96199062,0.419397114 8.78821601,0.0209698587 7.21619645,0.0209698587 Z M7.76116323,4.38269987 C7.5096401,6.06028834 6.23106418,6.06028834 4.9944088,6.06028834 L4.28175993,6.06028834 L4.78480618,2.93577982 C4.80576645,2.74705111 4.97344854,2.60026212 5.16209089,2.60026212 L5.4764948,2.60026212 C6.31490523,2.60026212 7.11139515,2.60026212 7.53060037,3.08256881 C7.78212349,3.37614679 7.84500428,3.7955439 7.76116323,4.38269987 L7.76116323,4.38269987 Z M21.1547699,4.31979029 L18.912022,4.31979029 C18.7233796,4.31979029 18.5556976,4.46657928 18.5347373,4.65530799 L18.429936,5.28440367 L18.2832142,5.05373524 C17.8011282,4.36173001 16.7321549,4.11009174 15.6422213,4.11009174 C13.1689105,4.11009174 11.0728845,5.97640891 10.6536792,8.59764088 C10.4440766,9.89777194 10.7375203,11.1559633 11.4920897,12.0366972 C12.1837783,12.8335518 13.1479503,13.1690695 14.3007646,13.1690695 C16.2919894,13.1690695 17.381923,11.8899083 17.381923,11.8899083 L17.2771217,12.5190039 C17.2352011,12.7496723 17.4238435,12.9593709 17.6544064,12.9593709 L19.6665914,12.9593709 C19.9809953,12.9593709 20.2534787,12.7287025 20.3163595,12.4141546 L21.5320546,4.76015726 C21.5739752,4.5504587 21.4062931,4.31979029 21.1547699,4.31979029 L21.1547699,4.31979029 Z M18.0526513,8.68152032 C17.8430487,9.96068152 16.8159959,10.8204456 15.53742,10.8204456 C14.8876519,10.8204456 14.3636454,10.610747 14.0282812,10.2123198 C13.6929171,9.81389253 13.5671555,9.26867626 13.6719568,8.6395806 C13.8815594,7.38138926 14.9086122,6.47968546 16.1662278,6.47968546 C16.7950357,6.47968546 17.3190422,6.68938402 17.6544064,7.08781128 C18.0107308,7.50720839 18.1574526,8.05242464 18.0526513,8.68152032 L18.0526513,8.68152032 Z" id="形状" fill="#13227A"></path>
                <path d="M54.4187039,4.31979029 L52.175956,4.31979029 C51.9873136,4.31979029 51.8196315,4.46657928 51.7986713,4.65530799 L51.69387,5.28440367 L51.5471481,5.05373524 C51.0650621,4.36173001 49.9960889,4.11009174 48.9061553,4.11009174 C46.4328445,4.11009174 44.3368184,5.97640891 43.9176132,8.59764088 C43.7080106,9.89777194 44.0014542,11.1559633 44.7560236,12.0366972 C45.4477123,12.8335518 46.4118843,13.1690695 47.5646986,13.1690695 C49.5559234,13.1690695 50.6458569,11.8899083 50.645857,11.8899083 L50.5410556,12.5190039 C50.4991351,12.7496723 50.6877775,12.9593709 50.9183403,12.9593709 L52.9305254,12.9593709 C53.2449293,12.9593709 53.5174127,12.7287025 53.5802935,12.4141546 L54.7959886,4.76015726 C54.8379091,4.5504587 54.670227,4.31979029 54.4187039,4.31979029 L54.4187039,4.31979029 Z M51.3165853,8.68152032 C51.1069827,9.96068152 50.0799299,10.8204456 48.801354,10.8204456 C48.1515859,10.8204456 47.6275794,10.610747 47.2922152,10.2123198 C46.956851,9.81389253 46.8310895,9.26867626 46.9358908,8.6395806 C47.1454934,7.38138926 48.1725462,6.47968546 49.4301618,6.47968546 C50.0589696,6.47968546 50.5829762,6.68938402 50.9183403,7.08781128 C51.2746648,7.50720839 51.4213866,8.05242464 51.3165853,8.68152032 L51.3165853,8.68152032 Z" id="形状" fill="#1296DB"></path>
                <path d="M33.0601981,4.31979029 L30.8174502,4.31979029 C30.6078475,4.31979029 30.398245,4.42463956 30.2724834,4.61336827 L27.1703648,9.18479685 L25.8498683,4.80209698 C25.7660273,4.52948886 25.5145042,4.34076015 25.2210605,4.34076015 L23.0202331,4.34076015 C22.7477497,4.34076015 22.5591074,4.61336827 22.6429484,4.86500656 L25.1162592,12.1205767 L22.7896703,15.3918742 C22.6010279,15.6435124 22.7896703,16 23.1040742,16 L25.3468221,16 C25.5564247,16 25.7660273,15.8951507 25.8708286,15.7273919 L33.3326815,4.94888597 C33.5632443,4.67627785 33.374602,4.31979029 33.0601981,4.31979029 Z" id="路径" fill="#13227A"></path>
                <path d="M57.0596968,0.335517679 L55.152313,12.5190039 C55.1103925,12.7496723 55.2990349,12.9593709 55.5295977,12.9593709 L57.4579417,12.9593709 C57.7723456,12.9593709 58.044829,12.7287025 58.1077098,12.4141546 L59.9941333,0.440366972 C60.0360538,0.209698567 59.8474115,0 59.6168486,0 L57.4579417,0 C57.2483391,0.0209698587 57.080657,0.146788991 57.0596968,0.335517679 L57.0596968,0.335517679 Z" id="路径" fill="#1296DB"></path>
            </g>
        </g>
    </g>
</svg>