<?xml version="1.0" encoding="UTF-8"?>
<svg width="14px" height="14px" viewBox="0 0 14 14" version="1.1" xmlns="http://www.w3.org/2000/svg" xmlns:xlink="http://www.w3.org/1999/xlink">
    <title>修改</title>
    <g id="首页" stroke="none" stroke-width="1" fill="none" fill-rule="evenodd">
        <g id="社区-已登陆" transform="translate(-1459.000000, -128.000000)" fill="#FFFFFF" fill-rule="nonzero">
            <g id="修改" transform="translate(1459.000000, 128.000000)">
                <path d="M10.2142208,0.204545569 C10.5303389,-0.0766238395 11.0526763,-0.0675538586 11.3861914,0.229488016 L13.1865794,1.83298505 C13.517973,2.12813734 13.5315512,2.59448554 13.2150088,2.87678869 L4.35097291,10.7714512 C4.19312603,10.911658 3.89143481,11.0681152 3.6703643,11.1217792 L0.812147664,11.8171445 C0.376371468,11.9233388 0.113717639,11.6912985 0.224040735,11.3043126 L0.96490271,8.70425143 C1.02006425,8.51038058 1.19488393,8.23752532 1.3506092,8.0988302 L10.2146451,0.204167659 L10.2142208,0.204545569 Z M1.95059707,8.63358116 C1.89288962,8.68497772 1.78935563,8.84748155 1.76898829,8.91739598 L1.18979207,10.9505834 L3.41662121,10.4090299 C3.50487967,10.3874887 3.68776141,10.2930098 3.75098502,10.2367003 L12.6150209,2.34203773 L10.814633,0.738918604 L1.95059707,8.63358116 L1.95059707,8.63358116 Z M10.1862157,1.29823411 L11.9866036,2.90173114 L11.3861914,3.4364821 L9.58622779,1.83298505 L10.1862157,1.29861202 L10.1862157,1.29823411 Z M2.98551251,7.71184435 L4.78547614,9.31534139 L4.18548827,9.84971443 L2.38510031,8.2465953 L2.9850882,7.71184435 L2.98551251,7.71184435 Z M0,13.6220707 C0,13.4134611 0.187549245,13.2441548 0.426865484,13.2441548 L13.5756804,13.2441548 C13.8100257,13.2441548 14,13.4133535 14,13.6220707 C14,13.8307878 13.8100257,13.9999933 13.5756804,13.9999933 L0.426865484,13.9999933 C0.313888471,14.0005903 0.205305927,13.9610409 0.125179087,13.8901024 C0.0450522477,13.8191639 0,13.7226943 0,13.6220707 Z" id="形状"></path>
            </g>
        </g>
    </g>
</svg>