<?xml version="1.0" encoding="UTF-8"?>
<svg width="20px" height="12px" viewBox="0 0 20 12" version="1.1" xmlns="http://www.w3.org/2000/svg" xmlns:xlink="http://www.w3.org/1999/xlink">
    <title>返回 (3)备份</title>
    <g id="登陆弹窗" stroke="none" stroke-width="1" fill="none" fill-rule="evenodd">
        <g id="社区-忘记密码-验证码错误备份" transform="translate(-988.000000, -363.000000)" fill="#ffffff" fill-rule="nonzero">
            <g id="返回-(3)备份" transform="translate(998.000000, 369.000000) rotate(-270.000000) translate(-998.000000, -369.000000) translate(992.000000, 359.000000)">
                <path d="M0.245929384,9.46623244 L10.7857493,0.181218575 C11.0871059,-0.0831234564 11.5493564,-0.0551642031 11.8175127,0.244762333 C12.0831151,0.544688869 12.0550225,1.00474567 11.7536659,1.27162946 L1.21384597,10.5541016 C0.912489357,10.8184436 0.450238954,10.7904843 0.182082644,10.4905578 C-0.0835197975,10.193173 -0.0554272316,9.73057447 0.245929384,9.46623244 Z" id="路径"></path>
                <path d="M11.7536659,18.7283705 L1.21384597,9.44589843 C0.912489357,9.1815564 0.450238954,9.20951566 0.182082644,9.50944219 C-0.0835197975,9.80936873 -0.0554272316,10.2694255 0.245929384,10.5363093 L10.7883032,19.8187814 C11.0896598,20.0831235 11.5519102,20.0551642 11.8200665,19.7552377 C12.0831151,19.4553111 12.0550225,18.9927126 11.7536659,18.7283705 Z" id="路径"></path>
            </g>
        </g>
    </g>
</svg>
