<?xml version="1.0" encoding="UTF-8"?>
<svg width="16px" height="14px" viewBox="0 0 16 14" version="1.1" xmlns="http://www.w3.org/2000/svg" xmlns:xlink="http://www.w3.org/1999/xlink">
    <title>钱包收益</title>
    <g id="个人中心-我的插件" stroke="none" stroke-width="1" fill="none" fill-rule="evenodd">
        <g id="社区-个人中心-我的插件" transform="translate(-1152.000000, -341.000000)" fill="#666666" fill-rule="nonzero">
            <g id="钱包收益" transform="translate(1152.000000, 341.000000)">
                <path d="M15.5972028,5.6793302 L15.1272727,5.6793302 L15.1272727,3.20446432 C15.1272727,2.00970147 14.2321678,1.02828914 13.1132867,1.02828913 L11.8377623,1.02828913 L11.3902098,0.494912864 C10.965035,0.00420669434 10.248951,-0.145138653 9.64475526,0.15355206 L7.87692308,1.02828913 L2.01398601,1.02828913 C0.895104893,1.02828913 0,2.00970147 0,3.20446432 L0,11.8238248 C0,13.0185877 0.895104893,14 2.01398601,14 L13.1132867,14 C14.2321678,14 15.1272727,13.0185877 15.1272727,11.8238248 L15.1272727,9.7116548 L15.5972028,9.7116548 C15.820979,9.7116548 16,9.5409744 16,9.32762389 L16,6.04202606 C15.9776224,5.82867555 15.7986014,5.6793302 15.5972028,5.6793302 Z M13.1132867,1.77501592 C13.6727273,1.77501592 14.1426574,2.22305198 14.2769231,2.8204334 L13.3370629,2.8204334 L12.4643357,1.77501592 L13.1132867,1.77501592 Z M10.0251748,0.814938632 C10.2713287,0.686928321 10.606993,0.750933486 10.786014,0.964283979 L12.3300699,2.8204334 L6.01958044,2.8204334 L10.0251748,0.814938632 L10.0251748,0.814938632 Z M14.3216783,11.8238248 C14.3216783,12.6132217 13.7846154,13.2319382 13.1132867,13.2319382 L2.01398601,13.2319382 C1.34265735,13.2319382 0.805594406,12.5918867 0.805594406,11.8238248 L0.805594406,3.20446432 C0.805594406,2.41506743 1.34265735,1.79635095 2.01398601,1.79635095 L6.40000001,1.79635095 L4.31888112,2.8204334 L2.01398601,2.8204334 C1.79020979,2.8204334 1.61118881,2.99111381 1.61118881,3.20446432 C1.61118881,3.41781483 1.79020979,3.58849523 2.01398601,3.58849523 L14.3216783,3.58849523 L14.3216783,5.6793302 L12.4419581,5.6793302 C11.2783217,5.6793302 10.3160839,6.59673738 10.3160839,7.70616003 C10.3160839,8.81558268 11.2783217,9.73298985 12.4419581,9.73298985 L14.3216783,9.73298985 L14.3216783,11.8238248 Z M15.1944056,8.96492803 L12.4419581,8.96492803 C11.7034965,8.96492803 11.0993007,8.38888166 11.0993007,7.68482497 C11.0993007,6.98076829 11.7034965,6.40472192 12.4419581,6.40472192 L15.1944056,6.40472192 L15.1944056,8.96492803 Z" id="形状"></path>
                <path d="M12.1062937,7.70616003 C12.1062937,7.95360352 12.3166886,8.1541961 12.5762238,8.1541961 C12.835759,8.1541961 13.0461539,7.95360352 13.0461539,7.70616003 C13.0461539,7.45871654 12.835759,7.25812396 12.5762238,7.25812396 C12.3166886,7.25812396 12.1062937,7.45871654 12.1062937,7.70616003 Z" id="路径"></path>
            </g>
        </g>
    </g>
</svg>