<?xml version="1.0" encoding="UTF-8"?>
<svg width="22px" height="20px" viewBox="0 0 22 20" version="1.1" xmlns="http://www.w3.org/2000/svg" xmlns:xlink="http://www.w3.org/1999/xlink">
    <title>微信</title>
    <g id="插件购买弹窗" stroke="none" stroke-width="1" fill="none" fill-rule="evenodd">
        <g id="插件详情页-微信支付" transform="translate(-769.000000, -525.000000)" fill="#09BB07" fill-rule="nonzero">
            <g id="微信" transform="translate(769.000000, 525.000000)">
                <path d="M8.00148496,12.6510427 C7.65118943,12.8336885 7.22342588,12.699246 7.03170293,12.3462483 L6.98359422,12.2371955 L4.98115319,7.70977671 C4.95856931,7.65992639 4.94651867,7.60570229 4.94579888,7.5506934 C4.94569277,7.40769155 5.02398728,7.27689397 5.14805652,7.21280495 C5.27212576,7.14871593 5.42068559,7.16232996 5.53183006,7.24797399 L7.89475076,8.98152097 C8.18431187,9.17743348 8.5469269,9.22012616 8.87191692,9.09656818 L19.9852521,4.00013833 C17.9933278,1.58114978 14.7127615,0 11.0001119,0 C4.92454154,0 0,4.22861886 0,9.44516813 C0,12.2916066 1.48152443,14.8528479 3.80058788,16.5843199 C3.99387869,16.7260637 4.10861218,16.955453 4.10848361,17.1999032 C4.10848361,17.2840559 4.09103022,17.3606004 4.06977288,17.4408337 L3.57436508,19.3456834 C3.55131765,19.4353695 3.5150683,19.528514 3.5150683,19.6221195 C3.51519173,19.8307644 3.67931677,20 3.88181328,20 C3.96124859,20 4.02636316,19.9693361 4.09371536,19.9296806 L6.50205962,18.4972391 C6.68308262,18.3891086 6.87484616,18.322478 7.08607695,18.322478 C7.19818143,18.322478 7.30692948,18.3404613 7.40941222,18.3725086 C8.57694365,18.7171967 9.78559984,18.8915789 11.0001119,18.8905668 C17.0750109,18.8905668 22,14.6617174 22,9.44539869 C22,7.86540169 21.5457643,6.37716578 20.7471598,5.06853263 L8.08159155,12.6033177 L8.00148496,12.6510427 Z" id="路径"></path>
            </g>
        </g>
    </g>
</svg>
