<?xml version="1.0" encoding="UTF-8"?>
<svg width="100px" height="45px" viewBox="0 0 100 45" version="1.1" xmlns="http://www.w3.org/2000/svg" xmlns:xlink="http://www.w3.org/1999/xlink">
    <title>知乎</title>
    <g id="联系我们" stroke="none" stroke-width="1" fill="none" fill-rule="evenodd">
        <g transform="translate(-803.000000, -661.000000)" fill="#1296DB" fill-rule="nonzero" id="知乎">
            <g transform="translate(803.000000, 661.000000)">
                <path d="M5.3985914,3.46031693 C6.04468288,1.32945749 8.20660442,0.441081696 10.1945782,0 C9.641673,2.06873525 8.93966978,4.09398356 8.33085275,6.14408156 C13.1206272,6.35530379 17.9663133,5.80239856 22.7188133,6.41121553 C23.2592937,7.45490181 23.3400551,8.64768607 23.6134015,9.77213378 C20.8985747,9.93986906 18.1775356,9.89016972 15.4627088,9.89638216 C15.4254343,13.6114082 15.3322481,17.3264343 15.0713265,21.0352479 C17.8669147,21.1346466 20.6749277,20.9234244 23.4643034,21.1719211 C24.2967675,22.1534832 24.1911564,23.5699145 24.4955649,24.7564864 C21.2961695,24.824823 18.0905617,24.7937609 14.884954,24.7875485 C14.5805455,26.8624962 14.1829507,28.9188066 13.6859573,30.9502673 C14.4749344,30.4781235 15.2639115,29.9997674 16.0528886,29.533836 C17.8234278,31.5963589 19.743065,33.5346333 21.3769309,35.7151921 C22.7498754,37.4919437 22.1224211,39.8650874 21.942261,41.9027606 C18.7987774,38.9394371 16.3324473,35.3548718 13.4871598,32.1182019 C12.182552,35.8767149 10.8096076,39.8216005 7.93947045,42.6917377 C5.8148234,44.6983487 2.71482673,44.567888 0,44.642437 L0,44.3628782 C6.06332012,39.6165907 10.3809508,32.5779209 10.9649181,24.8061858 C7.54808809,24.7813361 4.1374705,24.8372479 0.720640513,24.750274 C1.28597055,23.5699145 1.37915683,21.8863492 2.67755223,21.2340453 C5.53526459,20.8550878 8.43646389,21.1532839 11.3066011,21.0725224 C11.4370619,17.3388591 11.5613103,13.5989834 11.542673,9.86532007 C10.0765423,9.88395731 8.60419917,9.90880701 7.13806849,9.95850631 C6.52925152,11.4122122 6.00740838,13.0088036 4.74628748,14.0400651 C3.59699012,15.0154147 2.06252285,15.2639115 0.658516322,15.6490814 C2.44148036,11.6669213 3.96352278,7.57915014 5.3985914,3.46031693 L5.3985914,3.46031693 Z M56.259659,4.84568617 C69.5480215,3.98216003 82.8985081,3.26773196 96.0688346,1.29218299 C97.4542039,2.73967642 96.4726418,4.80841167 96.0626222,6.45470248 C90.3409851,6.72183645 84.619348,7.05109461 78.8977108,7.42383971 L78.8977108,22.9362479 C85.6630342,22.9176107 92.43457,22.7871499 99.1998934,22.8057871 C99.0880699,23.8308361 99.0818575,24.8807348 98.7401745,25.8622968 C98.4606156,26.9432576 97.1249458,26.5705125 96.3235438,26.6761237 C90.5149328,26.6574864 84.7063218,26.6636988 78.8977108,26.6636988 C78.8666487,30.6210092 78.9474101,34.5721072 78.8728611,38.5232051 C78.8728611,40.5857279 77.9906977,42.7227998 76.2077338,43.8534599 C72.4554332,46.1769043 66.7586457,44.8909337 64.9135575,40.7037639 C67.2929137,40.6354273 69.6784822,40.9460482 72.0578384,40.7907377 C73.610943,40.7472508 75.1019233,39.4550678 75.126773,37.8584764 C75.2572338,34.1310255 75.126773,30.3973622 75.1702599,26.6636988 C69.5728711,26.6326367 63.9754823,26.7196105 58.3780936,26.6326367 C56.2410218,26.725823 54.8991394,24.8310354 54.3400218,22.9983721 C61.2855053,22.8554865 68.2247764,22.9735224 75.1702599,22.9362479 C75.1516226,17.7985781 75.2075344,12.6671207 75.1391978,7.53566325 C69.9704659,7.55430049 64.8017339,8.3432776 59.6454269,7.9705325 C57.8562505,7.92704555 56.8125642,6.34909134 56.259659,4.84568617 L56.259659,4.84568617 Z M26.1045812,5.54768943 C32.5157967,5.53526459 38.9332247,5.54147699 45.3506527,5.54147699 L45.3506527,39.0885352 C42.8843227,39.1320221 40.4117802,38.9767116 37.9454502,39.1568718 C35.566094,40.1819207 33.559483,41.9213978 31.2298262,43.0644828 C30.8198066,41.7288129 30.409787,40.3993554 29.9873425,39.0698979 C28.6951595,39.0823227 27.3967641,39.0823227 26.1045812,39.0885352 L26.1045812,5.54768943 M29.8196072,9.27514034 C29.8071824,17.9538885 29.8071824,26.6388492 29.8196072,35.3175973 C30.6023719,35.3610843 31.3789242,35.4107836 32.1616889,35.4604829 C32.4101856,36.3115842 32.6586823,37.1626855 32.9196039,38.0075744 C34.4105843,37.1875352 35.7835287,36.1314241 37.3490581,35.4542705 C38.7654894,35.2803228 40.200558,35.3610842 41.6232018,35.3486594 L41.6232018,9.26892789 C37.690741,9.26892789 33.752068,9.26892789 29.8196072,9.27514034 Z" id="形状"></path>
                <path d="M89.7259557,11.4122122 C90.8504034,9.89016972 92.7576158,11.1947776 94.0311615,11.7725324 C91.8443903,14.9532906 89.4588217,17.991163 87.0173414,20.9731237 C86.0357793,20.2276336 85.0604296,19.475931 84.0975048,18.7118036 C86.0047172,16.3013853 87.7752564,13.7853559 89.7259557,11.4122122 L89.7259557,11.4122122 Z M59.7821001,12.1204278 C61.0121589,11.6296468 62.6832994,10.7599083 63.8077471,11.9278429 C65.901332,14.0276402 67.5041359,16.5560944 69.1317895,19.0224244 C68.1191653,19.6933656 67.1065411,20.3705192 66.0877045,21.0352479 C64.0376065,18.0222251 61.8384105,15.1210258 59.7821001,12.1204278 Z" id="形状"></path>
            </g>
        </g>
    </g>
</svg>