<?xml version="1.0" encoding="UTF-8"?>
<svg width="16px" height="18px" viewBox="0 0 16 18" version="1.1" xmlns="http://www.w3.org/2000/svg" xmlns:xlink="http://www.w3.org/1999/xlink">
    <title>收益 (1)</title>
    <g id="个人中心-我的钱包" stroke="none" stroke-width="1" fill="none" fill-rule="evenodd">
        <g id="个人中心-更新插件" transform="translate(-858.000000, -410.000000)" fill="#E96902" fill-rule="nonzero">
            <g id="收益-(1)" transform="translate(858.000000, 410.000000)">
                <path d="M4.95252451,4.24769945 L11.0565185,4.23010214 C11.3398643,4.19784041 12.3767897,3.02468617 12.6179352,1.78700844 C12.8470234,0.616787098 12.1537302,0.244310606 10.4174831,0.244310606 C8.67822155,0.244310606 9.0369254,1.88672653 8.68726452,1.88672656 C8.48229091,1.88672656 8.29841749,0.62558577 7.50565183,0.0888676955 C6.93896004,-0.295340326 6.15523735,0.690109234 5.40467218,0.698907873 C4.52750564,0.707706545 3.38809345,0.599189754 3.38809345,1.85153194 C3.39110777,2.89270632 4.65410701,4.24769945 4.95252451,4.24769945 L4.95252451,4.24769945 Z M8.012,7.108 L8.012,8.08 C8.53200342,8.14402979 8.95000354,8.34602954 9.266,8.686 C9.58200012,9.02601294 9.76800012,9.5160127 9.824,10.156 L9.824,10.156 L8.996,10.156 C8.94000012,9.39600024 8.612,8.956 8.012,8.836 L8.012,8.836 L8.012,11.464 L8.216,11.5 C8.77599988,11.6039999 9.20199988,11.8199999 9.494,12.148 C9.78600012,12.4760001 9.932,12.9360001 9.932,13.528 C9.932,14.1440001 9.76200012,14.6360001 9.422,15.004 C9.08199988,15.3720001 8.612,15.5880001 8.012,15.652 L8.012,15.652 L8.012,16.708 L7.316,16.708 L7.316,15.664 C6.74,15.6000001 6.28800012,15.3839999 5.96,15.016 C5.63199988,14.6480001 5.444,14.14 5.396,13.492 L5.396,13.492 L6.224,13.492 C6.26400122,13.9159999 6.37600134,14.242 6.56,14.47 C6.74399994,14.698 6.99599994,14.8400001 7.316,14.896 L7.316,14.896 L7.316,12.136 L7.232,12.124 C6.67199994,12.0119999 6.248,11.8019999 5.96,11.494 C5.672,11.1860001 5.528,10.744 5.528,10.168 C5.528,9.57600024 5.69,9.09799976 6.014,8.734 C6.338,8.37000024 6.77200006,8.15599976 7.316,8.092 L7.316,8.092 L7.316,7.108 L8.012,7.108 Z M8.012,12.28 L8.012,14.908 C8.372,14.86 8.642,14.7239999 8.822,14.5 C9.002,14.2759999 9.092,13.972 9.092,13.588 C9.092,13.204 9.00600012,12.9119999 8.834,12.712 C8.66199988,12.5120001 8.38800012,12.3680001 8.012,12.28 L8.012,12.28 Z M7.316,8.848 C7.004,8.90400024 6.76799994,9.04200024 6.608,9.262 C6.44799988,9.48199976 6.368,9.76399976 6.368,10.108 C6.368,10.444 6.446,10.7099999 6.602,10.906 C6.758,11.1020001 6.99599994,11.2400001 7.316,11.32 L7.316,11.32 Z M11.3760362,4.42953835 C11.6171816,4.42953835 11.810098,4.58498129 11.810098,4.77561885 C11.810098,4.96625642 11.6171816,5.12169936 11.3760362,5.12169936 L11.3760362,5.12169936 L4.70233608,5.12169936 C4.46119066,5.12169936 4.26827431,4.96918931 4.26827431,4.77561885 C4.26827431,4.58791418 4.46119063,4.42953835 4.70233608,4.42953835 L4.70233608,4.42953835 Z M11.7407687,5.73173957 L4.40391862,5.73173957 C2.02260738,7.09846423 0,9.75859148 0,13.2604569 C0,17.1201343 3.77995479,18 8.09344385,18 C12.4069329,18 16,17.076141 16,13.2135307 C15.9969857,9.97269211 14.2516956,7.16885348 11.7407687,5.73173957 Z" id="形状"></path>
            </g>
        </g>
    </g>
</svg>
