<?xml version="1.0" encoding="UTF-8"?>
<svg width="20px" height="20px" viewBox="0 0 20 20" version="1.1" xmlns="http://www.w3.org/2000/svg" xmlns:xlink="http://www.w3.org/1999/xlink">
    <title>总金额备份</title>
    <g id="个人中心-我的钱包" stroke="none" stroke-width="1" fill="none" fill-rule="evenodd">
        <g id="个人中心-更新插件" transform="translate(-1004.000000, -204.000000)" fill="#FDC200" fill-rule="nonzero">
            <g id="总金额备份" transform="translate(1004.000000, 204.000000)">
                <path d="M17.0611313,2.92922577 C13.155597,-0.97640859 6.84440304,-0.97640859 2.93886868,2.92922577 C-0.966665685,6.83476013 -0.986065359,13.1641538 2.919469,17.0695881 C6.82510336,20.9758225 13.1743966,20.9758225 17.080531,17.0695881 C20.9860654,13.1641538 20.9666657,6.83476013 17.0611313,2.92922577 Z M14.6315722,9.66401258 C14.6315722,10.2436028 13.3060944,10.6868954 11.6409224,10.6868954 C9.97565041,10.6868954 8.65027268,10.2436028 8.65027268,9.66401258 C8.65027268,9.08422232 10.0098498,8.64092977 11.6409224,8.64092977 C13.3060944,8.64092977 14.6315722,9.08422232 14.6315722,9.66401258 Z M8.3103784,5.06018995 C9.97545041,5.06018995 11.3010281,5.5035825 11.3010281,6.08327276 C11.3010281,6.66296302 9.97545041,7.10625557 8.3103784,7.10625557 C6.64520638,7.10625557 5.28572923,6.66296302 5.28572923,6.08327276 C5.28572923,5.53758193 6.64520638,5.06018995 8.3103784,5.06018995 Z M8.27637897,13.0742553 C6.57720753,13.0742553 5.21783037,12.4601656 5.21783037,11.7099782 L5.21783037,10.7209948 C5.21783037,10.5845971 5.2518298,10.4820988 5.31982866,10.3801005 C5.62572352,10.9937902 6.84920295,11.4370828 8.27647897,11.4370828 L8.27637897,13.0742553 L8.27637897,13.0742553 Z M8.27637897,11.0621891 C6.57720753,11.0621891 5.21783037,10.4482994 5.21783037,9.69801201 L5.21783037,8.70902863 C5.21783037,8.60673035 5.2518298,8.47033264 5.31982866,8.36803436 C5.62572352,8.98182404 6.84920295,9.42521659 8.27647897,9.42521659 L8.27637897,11.0621891 L8.27637897,11.0621891 Z M8.3103784,9.11832175 C6.61120695,9.11832175 5.21773037,8.50443207 5.21773037,7.75424468 L5.21773037,6.7653613 C5.21773037,6.62896359 5.2517298,6.52656531 5.28572923,6.42426703 C5.35372809,7.00395729 6.67910581,7.41325041 8.3103784,7.44724984 C9.94165098,7.44724984 11.2331293,7.00395729 11.3010281,6.45836646 C11.3349276,6.56066474 11.369027,6.66296302 11.369027,6.7652613 L11.369027,7.72014525 C11.369027,7.92464181 11.2670287,8.12923837 11.0629321,8.29983551 C9.80575326,8.36803436 8.75217097,8.6749292 8.48027554,9.11832175 C8.41237668,9.11832175 8.37837725,9.11832175 8.3103784,9.11832175 Z M14.7335704,13.2446524 C14.7335704,13.9949398 13.3401939,14.6088295 11.6409224,14.6088295 C9.94165098,14.6088295 8.5482744,13.9949398 8.5482744,13.2446524 L8.5482744,12.2896684 C8.5482744,12.1533707 8.58227383,12.0511725 8.65027268,11.9487742 C8.99016697,12.5283644 10.2136464,12.971857 11.6409224,12.971857 C13.1022979,12.971857 14.3256773,12.5281644 14.6315722,11.9146748 C14.699471,12.0511725 14.7335704,12.1533707 14.7335704,12.255669 L14.7335704,13.2446524 Z M14.8015693,11.3008851 C14.8015693,12.0512725 13.4080927,12.6651621 11.7089213,12.6651621 C10.0097498,12.6651621 8.61617326,12.0512725 8.61617326,11.3008851 L8.61617326,10.3118017 C8.61617326,10.2097034 8.61617326,10.1074051 8.68417211,10.0051068 C8.75227097,10.5506977 10.0437493,10.9937902 11.6748219,10.9937902 C13.3060944,10.9937902 14.5975727,10.5504977 14.6654716,10.0051068 C14.699371,10.1074051 14.7334704,10.2096034 14.8013693,10.3118017 L14.8015693,11.3008851 L14.8015693,11.3008851 Z" id="形状"></path>
            </g>
        </g>
    </g>
</svg>