<?xml version="1.0" encoding="UTF-8"?>
<svg width="107px" height="120px" viewBox="0 0 107 120" version="1.1" xmlns="http://www.w3.org/2000/svg" xmlns:xlink="http://www.w3.org/1999/xlink">
    <title>缺省页_暂无记录</title>
    <g id="个人中心-我的订单" stroke="none" stroke-width="1" fill="none" fill-rule="evenodd">
        <g id="个人中心-我的订单-缺省页" transform="translate(-1066.000000, -368.000000)" fill="#116FEC" fill-rule="nonzero">
            <g id="缺省页_暂无记录" transform="translate(1066.000000, 368.000000)">
                <path d="M90,89 C90,95.627417 84.627417,101 78,101 L24.5454545,101 C20.9454545,101 18,97.8090909 18,93.9090909 L18,93.9090909 L18,30.0909091 C18,26.1909091 20.9454545,23 24.5454545,23 L24.5454545,23 L83.4545455,23 C87.0545455,23 90,26.1909091 90,30.0909091 L90,30.0909091 L90,89 Z M52.9624296,73.7847144 L28.7978278,73.7847144 C28.2426951,73.7847144 27.8181818,74.7065326 27.8181818,75.9119871 C27.8181818,77.1174417 28.2426951,78.0392599 28.7978278,78.0392599 L28.7978278,78.0392599 L52.9624296,78.0392599 C53.5175623,78.0392599 53.9420756,77.1174417 53.9420756,75.9119871 C53.9420756,74.7065326 53.5175623,73.7847144 52.9624296,73.7847144 L52.9624296,73.7847144 Z M68.9075623,56.5280772 L29.4190668,56.5280772 C28.5118986,56.5280772 27.8181818,57.4498954 27.8181818,58.65535 C27.8181818,59.8608045 28.5118986,60.7826227 29.4190668,60.7826227 L29.4190668,60.7826227 L68.9075623,60.7826227 C69.8147305,60.7826227 70.5084473,59.8608045 70.5084473,58.65535 C70.5084473,57.4498954 69.8147305,56.5280772 68.9075623,56.5280772 L68.9075623,56.5280772 Z M78.2181818,37.8909091 L29.7818182,37.8909091 C28.6690909,37.8909091 27.8181818,38.8127273 27.8181818,40.0181818 C27.8181818,41.2236364 28.6690909,42.1454545 29.7818182,42.1454545 L29.7818182,42.1454545 L78.2181818,42.1454545 C79.3309091,42.1454545 80.1818182,41.2236364 80.1818182,40.0181818 C80.1818182,38.8127273 79.3309091,37.8909091 78.2181818,37.8909091 L78.2181818,37.8909091 Z" id="形状结合" opacity="0.2"></path>
                <path d="M1,112.5 C1,116.642136 24.5050506,120 53.5,120 C82.4949494,120 106,116.642136 106,112.5 C106,108.357864 82.4949494,105 53.5,105 C24.5050506,105 1,108.357864 1,112.5 Z" id="路径" opacity="0.1"></path>
                <path d="M101.646736,94.9263158 C101.646736,96.1342105 102.495424,97.0578947 103.605247,97.0578947 C104.71507,97.0578947 105.563758,96.1342105 105.563758,94.9263158 C105.563758,93.7184211 104.71507,92.7947368 103.605247,92.7947368 C102.495424,92.7947368 101.646736,93.7894737 101.646736,94.9263158 Z M107,104.092105 C104.519219,104.802632 103.996949,105.371053 103.409396,108 C102.756559,105.3 102.234289,104.731579 99.8187919,104.092105 C102.234289,103.381579 102.821843,102.813158 103.409396,100.184211 C103.996949,102.813158 104.519219,103.452632 107,104.092105 Z M9.40085418,17.1236842 C6.20195241,18.0473684 5.54911531,18.7578947 4.70042709,22.2394737 C3.85173887,18.7578947 3.19890177,18.0473684 0,17.1236842 C3.19890177,16.2 3.85173887,15.4184211 4.70042709,12.0078947 C5.4838316,15.4894737 6.20195241,16.2 9.40085418,17.1236842 Z M104.71507,16.9815789 C102.756559,17.55 102.364857,17.9763158 101.842587,20.1078947 C101.320317,17.9763158 100.928615,17.55 98.9701037,16.9815789 C100.928615,16.4131579 101.320317,15.9868421 101.842587,13.8552632 C102.299573,15.9868421 102.756559,16.4131579 104.71507,16.9815789 Z M103.344112,8.17105263 C98.2519829,9.59210526 97.2074436,10.8 95.8364857,16.3421053 C94.5308115,10.8 93.4209884,9.66315789 88.3288591,8.17105263 C93.4209884,6.75 94.4655278,5.54210526 95.8364857,0 C97.1421599,5.47105263 98.2519829,6.67894737 103.344112,8.17105263 Z" id="形状" opacity="0.5"></path>
                <path d="M56.7904412,110 L25.0514706,110 C16.7404412,110 10,102.653676 10,93.5955882 L10,29.4044118 C10,20.3463235 16.7404412,13 25.0514706,13 L83.9485294,13 C92.2595588,13 99,20.3463235 99,29.4044118 L99,63.9963235 C99,65.2088235 98.1492647,66.1360294 97.0367647,66.1360294 C95.9242647,66.1360294 95.0735294,65.2088235 95.0735294,63.9963235 L95.0735294,29.4044118 C95.0735294,22.7 90.1,17.2794118 83.9485294,17.2794118 L25.0514706,17.2794118 C18.9,17.2794118 13.9264706,22.7 13.9264706,29.4044118 L13.9264706,93.5955882 C13.9264706,100.3 18.9,105.720588 25.0514706,105.720588 L56.7904412,105.720588 C57.9029412,105.720588 58.7536765,106.647794 58.7536765,107.860294 C58.7536765,109.072794 57.9029412,110 56.7904412,110 Z" id="路径" opacity="0.5"></path>
            </g>
        </g>
    </g>
</svg>