<?xml version="1.0" encoding="UTF-8"?>
<svg width="206px" height="56px" viewBox="0 0 206 56" version="1.1" xmlns="http://www.w3.org/2000/svg" xmlns:xlink="http://www.w3.org/1999/xlink">
    <title>编组 6</title>
    <g id="首页-网页" stroke="none" stroke-width="1" fill="none" fill-rule="evenodd">
        <g id="首页-添加合作伙伴" transform="translate(-359.000000, -3464.000000)" fill-rule="nonzero">
            <g id="编组-6" transform="translate(360.000000, 3464.000000)">
                <g id="OSCHINA">
                    <path d="M37.7221488,31.8160773 C36.2025301,35.5600292 32.5933809,38.2479946 28.3193986,38.2479946 C22.7158045,38.2479946 18.2043271,33.6880532 18.2043271,28.0240709 C18.2043271,22.3600885 22.7157499,17.8000919 28.3193986,17.8000919 C32.7357906,17.8000919 36.5349467,20.6800549 37.8646131,24.7120583 L53.5833333,19.2401286 C49.9741842,8.63209944 40.0015769,1 28.3193986,1 C13.5504401,0.952142978 1.58333328,13.0480978 1.58333328,27.9760715 C1.58333328,42.9040451 13.5504401,55 28.3193986,55 C39.5741842,55 49.1668867,47.9920349 53.1559405,38.0560523 L37.7221488,31.8160773 Z" id="路径" fill="#3BAC56"></path>
                    <path d="M27.6562442,56 C12.1874839,56 -0.416666722,43.4392656 -0.416666722,27.9762109 C-0.416666722,12.5607344 12.1874839,0 27.6562442,0 C39.6397414,0 50.2865012,7.56497656 54.2013926,18.8411016 L54.5833333,19.9829766 L36.5364737,26.2158203 L36.1545331,25.0739453 C34.913226,21.4579531 31.4757054,19.0314141 27.6562442,19.0314141 C22.691016,19.0314141 18.6805296,23.0280313 18.6805296,27.9762109 C18.6805296,32.9243906 22.6909611,36.9210078 27.6562442,36.9210078 C31.3324228,36.9210078 34.6267157,34.7324141 36.0113053,31.3067344 L36.4409886,30.2124375 L54.1536501,37.3015781 L53.7239669,38.395875 C49.4270798,49.1011719 39.2100581,56 27.6562442,56 Z M27.6562442,2.37890625 C13.4765885,2.37890625 1.97051711,13.8453437 1.97051711,27.9762109 C1.97051711,42.1070781 13.4765885,53.5735156 27.6562442,53.5735156 C37.8255234,53.5735156 46.8489806,47.7213516 51.0503275,38.5862422 L37.7300382,33.3050156 C35.7725924,37.0161094 31.9531312,39.3474922 27.6562442,39.3474922 C21.4019115,39.3474922 16.2934006,34.2566328 16.2934006,27.9762109 C16.2934006,21.7434219 21.4019115,16.6525078 27.6562442,16.6525078 C32.0963041,16.6525078 36.1067905,19.2217266 37.9687511,23.1707656 L51.5277533,18.5081094 C47.6606593,8.80200781 38.207464,2.37890625 27.6562442,2.37890625 Z" id="形状" fill="#08633B"></path>
                </g>
                <g id="开源中国" transform="translate(73.500000, 16.333333)" fill="#000000">
                    <path d="M104.384403,14.9936592 L104.384403,14.2915105 C104.384403,10.7660057 104.384403,7.24058973 104.384403,3.71526272 C104.380139,3.42728403 104.390945,3.13927745 104.416774,2.85251621 C104.564496,1.45302079 105.376837,0.680710604 106.701452,0.666666667 C108.044821,0.653232901 108.905975,1.44875241 109.057808,2.85705137 C109.079751,3.12210709 109.087556,3.38822043 109.081186,3.65417152 C109.082385,9.33040685 109.082385,15.0064643 109.081186,20.682344 C109.081186,20.8597485 109.081186,21.0371531 109.077076,21.2142909 C109.046761,22.1888157 108.732049,23.0208832 107.826193,23.4341158 C106.966165,23.8459096 105.954265,23.7029645 105.231427,23.0675686 C104.981707,22.8598788 104.75823,22.6202899 104.566294,22.3544822 C101.486829,18.2392294 98.4108758,14.1209531 95.3384333,9.99965342 C95.1853937,9.777754 94.9858065,9.59485759 94.7547395,9.46477192 L94.7547395,10.1383758 C94.7547395,13.5970094 94.7547395,17.0561765 94.7547395,20.5158771 C94.7547395,20.7597084 94.7573085,21.0040732 94.7452339,21.2473709 C94.6666202,22.8410776 93.8344968,23.6750126 92.3531681,23.6467346 C90.9144861,23.6200572 90.0970065,22.7621126 90.0923821,21.1857461 C90.0774815,16.4638497 90.0857025,11.7419532 90.0849318,7.01792252 C90.0849318,5.79849942 90.0813351,4.57880955 90.0849318,3.35938645 C90.0898131,1.93321365 90.5494206,1.15316703 91.5860423,0.7938227 C92.6663924,0.465171364 93.8288929,0.879776766 94.4867849,1.82837154 C96.1566837,4.07514059 97.8129664,6.33391446 99.474901,8.5878864 C101.058136,10.7354156 102.641628,12.8828559 104.225378,15.0302072 L104.384403,14.9936592 Z" id="路径"></path>
                    <path d="M0.0833332783,12.036333 C0.189679705,5.69659536 4.55984541,0.314486413 11.3157077,0.684699631 C16.233545,0.954302888 20.2069663,4.90481592 20.9185161,10.0854429 C21.4166258,13.7011134 20.8303506,17.0547788 18.5465175,19.884434 C15.8001895,23.2860463 12.202592,24.2643734 8.16342024,23.3332073 C4.35686569,22.4557521 1.94775799,19.8370111 0.789901928,15.987894 C0.407104602,14.7203133 0.310720369,13.3563147 0.0833332783,12.036333 Z M16.3610611,12.5786836 C16.3590687,10.7724203 16.1080214,9.37776714 15.4764182,8.06616956 C14.6336801,6.30902281 12.9866037,5.13578794 11.1228044,4.96503137 C9.25900508,4.7942748 7.44393608,5.65031668 6.32514628,7.22775321 C4.4517556,9.86142857 4.48687233,14.652192 6.39861747,17.2481386 C8.46303324,20.0515933 12.7701881,20.0848679 14.8637432,17.3005396 C15.8472637,15.9450828 16.374046,14.2838523 16.3610611,12.5786836 L16.3610611,12.5786836 Z" id="形状"></path>
                    <path d="M64.9461703,9.86751434 L75.152092,9.86751434 C75.1643838,9.61883778 75.1857608,9.38640241 75.186028,9.15423329 C75.189769,7.14059217 75.1614444,5.1266848 75.1993886,3.11410867 C75.2327902,1.34674787 76.638329,0.321955503 78.3490247,0.772715045 C79.1797437,0.95012958 79.8192464,1.61218586 79.9653942,2.44608996 C80.0429057,2.83640595 80.0804191,3.23355857 80.0773564,3.63143046 C80.0843039,9.31779892 80.0851946,15.0040786 80.0800285,20.6902696 C80.0833333,20.977647 80.0675179,21.2649243 80.0329991,21.5502538 C79.8475534,22.9368786 79.000222,23.6490946 77.5789177,23.626996 C76.1819297,23.6059623 75.3076098,22.8466202 75.2231705,21.4480142 C75.1499543,20.2131514 75.1943116,18.9718986 75.191105,17.7322433 C75.1878985,16.6070751 75.191105,15.4819068 75.191105,14.3074825 L64.9480408,14.3074825 L64.9480408,15.0186336 C64.9480408,16.9888761 64.9881227,18.9591186 64.9239917,20.9253674 C64.9108976,21.5799413 64.7331131,22.2207697 64.4069351,22.7891104 C63.8896113,23.621671 62.6214199,23.8618276 61.567533,23.5095802 C60.6823634,23.191637 60.0951695,22.3514373 60.1029402,21.4139343 C60.0716763,20.3755633 60.0871747,19.3345297 60.0871747,18.2945612 C60.0871747,13.2499415 60.077555,8.20532188 60.0930534,3.1609685 C60.0970615,1.38136024 61.4475545,0.358431615 63.1871091,0.760733841 C64.1938228,0.952808854 64.9156905,1.83896499 64.8972704,2.86010714 C64.9576605,4.9158156 64.9341457,6.9739203 64.9453687,9.03122626 C64.9480408,9.29135152 64.9461703,9.55147678 64.9461703,9.86751434 Z" id="路径"></path>
                    <path d="M127.807987,23.6658989 C126.764528,23.6876084 126.051081,23.249711 125.667119,22.2534547 C125.328159,21.3742182 125.049202,20.4703599 124.77235,19.5686195 C124.751547,19.4192756 124.672554,19.2843881 124.552787,19.1936998 C124.43302,19.1030114 124.282316,19.0639703 124.133906,19.085185 C121.484686,19.1028351 118.83459,19.1028351 116.183616,19.085185 C116.024127,19.0612266 115.861761,19.1028015 115.733064,19.200552 C115.604367,19.2983024 115.520155,19.4440144 115.499381,19.6048903 C115.236213,20.4878334 114.951992,21.3668052 114.625928,22.2280387 C114.240914,23.2446808 113.403778,23.7323513 112.291896,23.6576916 C111.180013,23.583032 110.313666,22.9606034 110.129712,21.9736134 C110.042461,21.5016691 110.078738,21.015009 110.234979,20.561434 C112.386285,14.7591612 114.558908,8.96474264 116.752847,3.17817834 C117.488137,1.24735265 119.17162,0.336875543 121.025371,0.774772937 C122.409106,1.1014751 123.134659,2.11917618 123.60257,3.36112096 C124.329965,5.2911524 125.027622,7.23256811 125.736332,9.16974781 C127.093224,12.8796971 128.456431,16.5872637 129.79569,20.3033023 C129.98584,20.7691818 130.083556,21.267985 130.083333,21.7716088 C130.020172,22.9261859 129.109087,23.6388943 127.807987,23.6658989 Z M123.162291,14.7117709 L120.209552,5.6599499 L120.057705,5.69383797 C119.066616,8.67837081 118.075264,11.6626389 117.062596,14.7117709 L123.162291,14.7117709 Z" id="形状"></path>
                    <path d="M30.5048103,23.6666667 C28.4921468,23.5407061 26.4389458,23.3982477 24.5747446,22.3811361 C23.4402194,21.7618084 22.9055974,20.7428637 23.1359245,19.6453573 C23.3752013,18.5054277 24.3520512,17.7638056 25.4989483,18.0013237 C26.8003618,18.2707902 28.0580791,18.767038 29.3652837,18.9846538 C30.2684968,19.0959216 31.1834883,19.0694295 32.0786678,18.9060921 C32.5227135,18.7882722 32.9204628,18.539387 33.2195106,18.1922285 C34.3424536,17.0441808 34.0423704,15.3972666 32.5664347,14.7617028 C31.5877422,14.3408742 30.5437685,14.0711459 29.5313824,13.7270458 C28.4987276,13.3758752 27.4371174,13.0870302 26.4434207,12.6476086 C22.8634805,11.0648531 22.6571074,7.77233405 23.6231649,5.27459709 C24.6663489,2.57731353 26.8501125,1.26795257 29.6195648,0.801034458 C31.5937965,0.467409287 33.502747,0.779037194 35.3553661,1.47064165 C36.7786556,2.0022422 37.4725322,2.94341085 37.3672399,4.11555078 C37.3430735,4.66652459 37.0947025,5.18402689 36.6792097,5.54912064 C36.2637169,5.91421439 35.7168376,6.095499 35.1642605,6.05131001 C34.5995672,6.00075728 34.0441701,5.87552647 33.5127498,5.67892776 C32.5085239,5.32880464 31.4916629,5.03472217 30.4329483,5.2416012 C29.8994958,5.33803359 29.3969615,5.55998988 28.9672786,5.88894925 C28.0364941,6.65309231 28.1557377,7.98235555 29.2528841,8.45843919 C30.6079968,9.04660413 32.0528712,9.42736629 33.4498376,9.92492346 C34.2164476,10.1791372 34.9666606,10.4798948 35.6962501,10.8255019 C40.1324805,13.0474875 39.8068639,18.6884763 37.0429394,21.3074601 C35.2166434,23.0386972 32.9920791,23.6276477 30.5048103,23.6666667 Z" id="路径"></path>
                    <path d="M40.083563,12.0895659 C40.0537131,7.09212855 42.9351816,2.91853087 47.705406,1.32917424 C50.708079,0.309255229 54.0122676,0.472139867 56.8890257,1.78189373 C57.9764912,2.25553613 58.7660059,3.02445311 58.7484794,4.28479696 C58.7600572,4.89456159 58.4736067,5.47469014 57.9736195,5.85406702 C57.4736324,6.23344389 56.8171553,6.36878364 56.1978238,6.22016623 C55.5181185,6.04176051 54.8482505,5.83078224 54.190764,5.58803278 C52.9802778,5.17881102 51.6780338,5.08244922 50.415991,5.30871192 C48.1791696,5.70467801 46.7159794,7.01131381 45.9177015,8.99375963 C45.1235952,10.9386109 45.0723039,13.0884748 45.7728339,15.0658499 C46.912605,18.4088081 50.2574308,19.9712264 53.812027,18.8508046 C54.5664887,18.613068 55.2856235,18.2754245 56.0398113,18.0361187 C57.1899888,17.6731062 58.1136909,17.962627 58.6819334,18.8066049 C59.312256,19.7098742 59.1896373,20.9120803 58.3886381,21.6821975 C57.3972946,22.6705435 56.101428,23.0526482 54.7464093,23.3272614 C51.8025026,23.9243489 48.9234987,23.7961961 46.232631,22.4380377 C42.7328052,20.6710978 40.8862225,17.7675208 40.2747115,14.0999961 C40.1638015,13.4364783 40.1449058,12.7598836 40.083563,12.0895659 Z" id="路径"></path>
                    <path d="M83.0895164,12.2147209 C83.0895164,9.1784892 83.0719089,6.14199083 83.0961193,3.10602574 C83.1106454,1.26994146 84.4208643,0.223912039 85.8455319,0.84758342 C86.6057361,1.18035036 86.9715322,1.87068179 87.0538473,2.8004561 C87.0814568,3.24232736 87.0896852,3.68566271 87.0784978,4.12859083 C87.0798183,9.60360252 87.0798183,15.0778143 87.0784978,20.5512261 C87.0784978,20.8613287 87.0784978,21.1722311 87.0635314,21.4815337 C86.9928813,22.8557972 86.2458827,23.6709162 85.0694809,23.6666667 C83.8930792,23.6623838 83.1194492,22.8413986 83.1064637,21.4562029 C83.0774113,18.3759756 83.0974398,15.2952149 83.0974398,12.2147209 L83.0895164,12.2147209 Z" id="路径"></path>
                </g>
            </g>
        </g>
    </g>
</svg>