<?xml version="1.0" encoding="UTF-8"?>
<svg width="183px" height="42px" viewBox="0 0 183 42" version="1.1" xmlns="http://www.w3.org/2000/svg" xmlns:xlink="http://www.w3.org/1999/xlink">
    <title>geek+全</title>
    <g id="首页-网页" stroke="none" stroke-width="1" fill="none" fill-rule="evenodd">
        <g id="首页-添加合作伙伴" transform="translate(-1023.000000, -3471.000000)" fill-rule="nonzero">
            <g id="geek+全" transform="translate(1023.000000, 3471.000000)">
                <path d="M153.636364,17 C151.181818,17 149,19.0454545 149,21.5 C149,23.9545455 151.181818,26 153.636364,26 L161,26 L161,17 L153.636364,17 Z" id="路径" fill="#6FB92C"></path>
                <path d="M178.6,17 L171,17 L171,26 L178.6,26 C181,26 183,23.9230769 183,21.4307692 C183,19.0769231 181,17 178.6,17 L178.6,17 Z" id="路径" fill="#FFE100"></path>
                <path d="M170,9.5 C170,7.0454545 167.954545,5 165.5,5 C163.045455,5 161,7.04545454 161,9.5 L161,17 L169.863636,17 L169.863636,9.5 L170,9.5 Z" id="路径" fill="#008BD5"></path>
                <path d="M162,34.6 C162,37 164.045455,39 166.5,39 C168.954545,39 171,37 171,34.6 L171,27 L162.136364,27 L162.136364,34.6 L162,34.6 Z" id="路径" fill="#E7380D"></path>
                <polygon id="路径" fill="#F6AA00" points="161 17 170 17 170 26 161 26"></polygon>
                <path d="M38.7121212,7.5986842 L33.3200757,12.8486842 C30.0018939,9.39473685 25.9924243,7.5986842 21.5681818,7.5986842 C17.5587121,7.5986842 14.3787879,8.84210524 11.6136364,11.4671053 C8.98674245,14.0921053 7.60416669,17.2697369 7.60416665,21 C7.60416665,24.8684211 8.98674241,28.1842106 11.751894,30.8092105 C14.5170455,33.4342105 17.9734849,34.8157895 21.9829545,34.8157895 C24.6098485,34.8157895 26.8219697,34.2631579 28.6193182,33.1578948 C30.4166666,32.0526316 31.9375,30.256579 33.0435606,27.9078947 L21.4299242,27.9078947 L21.4299242,20.7236842 L41.6155303,20.7236842 L41.6155303,22.381579 C41.6155303,25.8355263 40.6477273,29.1513158 38.8503788,32.3289474 C37.0530303,35.5065789 34.7026515,37.8552632 31.7992424,39.5131579 C28.8958333,41.1710527 25.5776515,42 21.7064394,42 C17.5587121,42 13.8257576,41.0328947 10.6458333,39.2368421 C7.32765153,37.4407895 4.83901514,34.8157895 2.90340909,31.5 C0.967803045,28.3223684 0,24.7302631 0,20.8618421 C0,15.6118421 1.79734846,10.9144737 5.25378789,7.04605263 C9.40151516,2.34868422 14.7935606,0 21.4299242,0 C24.8863636,0 28.2045455,0.690789472 31.2462121,1.93421051 C33.873106,3.17763156 36.3617424,4.97368421 38.7121212,7.5986842 Z M75.2121212,20.1710526 L54.1969697,31.6381579 C55.4412879,33.2960527 57.1003788,34.4013158 59.0359848,34.6776316 C60.9715909,35.0921052 62.907197,34.6776316 64.9810606,33.5723684 C67.469697,32.1907895 68.9905303,30.256579 69.8200757,27.6315789 L76.7329546,27.2171053 C76.4564394,29.8421053 75.626894,32.1907895 74.1060606,34.2631579 C72.7234848,36.1973684 70.6496212,37.9934211 68.0227273,39.375 C63.875,41.5855263 59.8655303,42.1381579 55.9943182,40.8947369 C51.9848485,39.6513158 48.9431818,37.1644737 46.8693182,33.2960526 C44.6571969,29.2894737 44.2424242,25.2828947 45.3484849,21.2763158 C46.4545455,17.2697369 48.9431818,14.2302632 52.8143939,12.1578947 C56.9621212,9.94736842 60.9715909,9.39473685 64.9810606,10.6381579 C68.9905303,11.8815789 72.1704545,14.6447368 74.5208333,18.9276316 L75.2121212,20.1710526 L75.2121212,20.1710526 Z M65.9488636,18.6513158 C64.7045455,17.4078948 63.1837121,16.7171053 61.5246212,16.4407895 C59.7272727,16.1644737 58.0681818,16.5789474 56.4090909,17.5460526 C54.6117424,18.5131579 53.2291666,19.8947368 52.3996212,21.6907895 C51.8465909,22.7960526 51.7083333,24.3157895 51.8465909,26.3881579 L65.9488636,18.6513158 Z M111.020833,19.3421053 L90.4204545,32.0526316 C91.8030303,33.7105263 93.6003788,34.6776316 95.5359848,34.9539474 C97.4715909,35.2302632 99.5454545,34.8157895 101.481061,33.5723684 C103.831439,32.0526316 105.49053,29.9802632 106.181818,27.2171053 L113.232955,26.3881579 C113.094697,29.1513158 112.265151,31.5 111.020833,33.5723684 C109.638258,35.6447368 107.702652,37.4407895 105.214015,39.0986842 C101.204545,41.5855263 97.1950757,42.2763158 93.0473485,41.3092105 C88.8996212,40.3421052 85.719697,37.9934211 83.3693182,34.125 C81.0189394,30.2565789 80.1893939,26.25 81.1571969,22.1052632 C82.125,17.9605263 84.4753787,14.7828947 88.2083333,12.4342105 C92.217803,9.94736842 96.3655303,9.25657895 100.513258,10.2236842 C104.660985,11.1907895 107.979167,13.8157895 110.606061,18.0986842 L111.020833,19.3421053 L111.020833,19.3421053 Z M101.481061,18.2368421 C100.236742,17.131579 98.5776515,16.4407895 96.780303,16.3026316 C94.9829546,16.1644737 93.1856061,16.5789474 91.6647727,17.6842105 C89.8674243,18.7894737 88.6231061,20.3092105 87.9318182,22.1052632 C87.5170455,23.2105263 87.3787879,24.868421 87.655303,26.9407895 L101.481061,18.2368421 L101.481061,18.2368421 Z M116.827651,0.55263157 L124.293561,0.55263157 L124.293561,24.1776316 L135.215909,12.0197368 L144.479167,12.0197368 L131.75947,26.25 L146,41.7236842 L136.875,41.7236842 L124.293561,28.0460526 L124.293561,41.7236842 L116.827651,41.7236842 L116.827651,0.55263157 L116.827651,0.55263157 Z" id="形状" fill="#008BD5"></path>
            </g>
        </g>
    </g>
</svg>