<?xml version="1.0" encoding="UTF-8"?>
<svg width="171px" height="64px" viewBox="0 0 171 64" version="1.1" xmlns="http://www.w3.org/2000/svg" xmlns:xlink="http://www.w3.org/1999/xlink">
    <title>编组 4</title>
    <g id="首页-网页" stroke="none" stroke-width="1" fill="none" fill-rule="evenodd">
        <g id="首页-添加合作伙伴" transform="translate(-1389.000000, -3460.000000)" fill-rule="nonzero">
            <g id="编组-4" transform="translate(1389.000000, 3460.000000)">
                <g id="gitee" fill="#B32225">
                    <path d="M32,0 C14.4,0 0,14.4 0,32 C0,49.6 14.4,64 32,64 C49.6,64 64,49.6 64,32 C64,14.4 49.6,0 32,0 Z M49.8,19.6 C49.8,20.4 49,21.2 48.2,21.2 L26,21.2 C23.4,21.2 21.2,23.4 21.2,26 L21.2,41.2 C21.2,42 22,42.8 22.8,42.8 L37.8,42.8 C40.4,42.8 42.6,40.6 42.6,38 L42.6,37.2 C42.6,36.4 41.8,35.6 41,35.6 L30,35.6 C29.2,35.6 28.4,34.8 28.4,34 L28.4,30 C28.4,29.2 29.2,28.4 30,28.4 L48.2,28.4 C49,28.4 49.8,29.2 49.8,30 L49.8,39 C49.8,44.8 45,49.6 39.2,49.6 L15.8,49.6 C15,49.6 14.2,48.8 14.2,48 L14.2,25.8 C14.2,19.4 19.4,14 26,14 L48.2,14 C49,14 49.8,14.8 49.8,15.6 L49.8,19.6 L49.8,19.6 Z" id="形状"></path>
                </g>
                <g id="gitee-(1)" transform="translate(80.000000, 12.000000)" fill="#333333">
                    <path d="M8.73617769,39 C12.3019429,39 15.1489489,38.3080628 17.2761378,36.9236623 C19.4038556,35.5397879 20.467979,33.7475917 20.467979,31.5475998 C20.467979,27.9989881 17.8050262,26.2246822 12.4801783,26.2246822 L9.19948391,26.2246822 C8.10627168,26.2246822 7.32193029,26.1183923 6.84593073,25.9052861 C6.37098901,25.69218 6.13298926,25.3375293 6.13298926,24.8408079 C6.13298926,24.3440865 6.28742465,23.9299765 6.59682433,23.5990043 C6.71529531,23.4569335 6.8702596,23.4095766 7.06013051,23.4569335 C7.82067193,23.6695135 8.54630678,23.7763296 9.23544828,23.7763296 C11.6842013,23.7763296 13.6749371,23.1906824 15.2081844,22.019388 C16.7414317,20.8486197 17.5083198,19.1153565 17.5083198,16.8206509 C17.5083198,15.9692787 17.3533555,15.2120942 17.0444847,14.5496236 C17.0206847,14.5022666 17.0265025,14.4491216 17.0624669,14.3896624 C17.0948814,14.3325144 17.1568294,14.2983424 17.2227201,14.3012628 L18.042497,14.3012628 C18.6374964,14.3012628 19.1362381,14.100259 19.5408377,13.6977252 C19.9449084,13.2957176 20.1469437,12.7989962 20.1469438,12.2075609 L20.1469438,11.7108395 C20.1469438,11.1425565 19.9449084,10.6521493 19.5408377,10.2375131 C19.1362381,9.82392941 18.6374964,9.61661132 18.0430259,9.61661132 L12.8012135,9.61661132 C12.6207536,9.61490948 12.441182,9.59123022 12.2665074,9.54610214 C11.3393662,9.26196064 10.3286605,9.11988989 9.23544828,9.11988989 C7.69003651,9.11988989 6.27578911,9.38614102 4.99217708,9.91864324 C3.70856505,10.4506193 2.64444169,11.3025176 1.8008648,12.473812 C0.956759019,13.6445803 0.534706103,15.0347689 0.534706103,16.6433255 C0.534706103,17.7551607 0.796505834,18.772282 1.31904755,19.6952157 C1.84264701,20.6176232 2.49582414,21.3632316 3.28069439,21.9309884 C3.32829434,21.9546669 3.35156541,21.9899215 3.35156546,22.0372784 C3.35156546,22.0846353 3.32776549,22.1319922 3.28069439,22.1793491 C2.61482397,22.6523921 2.08011782,23.2264632 1.67604718,23.8999838 C1.27144759,24.5745568 1.06941225,25.266494 1.06941225,25.9763215 C1.06941225,27.4901643 1.67604718,28.6614587 2.88825924,29.4896786 C2.93585919,29.5133571 2.95965917,29.5543997 2.95965917,29.613859 C2.95885538,29.6744995 2.93303913,29.7321467 2.88825924,29.7732939 C1.93731801,30.2468631 1.21802985,30.8256699 0.730394801,31.5123452 C0.243817502,32.1984943 0,32.9551526 0,33.7833725 C0,34.966243 0.404070686,35.9596859 1.21221211,36.7642273 C2.02035348,37.5687687 3.06067686,38.1423136 4.33265331,38.484862 C5.6041009,38.8284627 7.07229495,39 8.73617769,39 L8.73617769,39 Z M9.23544828,19.8730673 C8.45110688,19.8730673 7.81485418,19.5941877 7.32774803,19.0385331 C6.84011298,18.4828786 6.59682433,17.6841253 6.59682433,16.6433255 C6.59682433,15.6262042 6.84011298,14.8395532 7.32774803,14.2833724 C7.81485418,13.7277179 8.45110688,13.4493645 9.23544828,13.4493645 C10.0197897,13.4493645 10.6555135,13.7214037 11.1431486,14.2654821 C11.6302547,14.8095604 11.8740723,15.6019995 11.8740723,16.6433255 C11.8740723,17.6841253 11.6307836,18.4828786 11.1431486,19.0385331 C10.6555135,19.5947138 10.0197897,19.8725411 9.23544828,19.8725411 L9.23544828,19.8730673 Z M9.73471891,34.9541407 C8.37970695,34.9541407 7.30394806,34.7710273 6.50744222,34.4042743 C5.71093639,34.0375213 5.3132123,33.4876548 5.3132123,32.7541488 C5.3132123,32.1627135 5.58611867,31.607059 6.13298926,31.0861329 C6.20438919,31.0156237 6.31122463,30.9798429 6.45402448,30.9798429 L6.56085992,30.9798429 C7.15533041,31.0982352 8.05867173,31.1571683 9.27088384,31.1571683 L11.2320018,31.1571683 C12.278143,31.1571683 13.0450311,31.2639844 13.5326661,31.4765644 C14.0192434,31.6896705 14.2630609,32.080102 14.2630609,32.6478588 C14.2630609,33.3103295 13.841008,33.8601959 12.9974311,34.2979843 C12.1533253,34.7357727 11.0659309,34.9541407 9.73419001,34.9541407 L9.73471891,34.9541407 Z M26.9934034,6.63628267 C28.0628157,6.63628267 28.942357,6.32846271 29.6320274,5.71334898 C30.3211688,5.09823525 30.6660041,4.30579614 30.6660041,3.33603173 C30.6660041,2.36574112 30.3211689,1.56751396 29.6320274,0.940297863 C28.942357,0.313608005 28.0628156,0 26.9928745,0 C25.8996623,0 25.0021388,0.313608051 24.3008328,0.940297863 C23.5995269,1.56751392 23.2488739,2.36626727 23.2488739,3.33603173 C23.2488739,4.30579619 23.5995269,5.09876145 24.3013617,5.71334898 C25.0021388,6.32898891 25.8996623,6.63628267 26.9934034,6.63628267 Z M28.0987801,30.19898 C28.6689217,30.19898 29.1623745,29.9921881 29.5786097,29.5780782 C29.9943159,29.1639683 30.2026979,28.6730349 30.2026979,28.1052781 L30.2026979,11.6040233 C30.2026979,11.0362665 29.9943159,10.5453331 29.5786097,10.1317494 C29.1623745,9.71763944 28.6689217,9.51084756 28.0987801,9.51084756 L25.8520624,9.51084756 C25.2575919,9.51084756 24.7588502,9.71763944 24.3542506,10.1317494 C23.9501799,10.5453331 23.7481445,11.0367927 23.7481445,11.6040233 L23.7481445,28.1052781 C23.7481445,28.6735611 23.9501799,29.1639683 24.3542506,29.5786044 C24.7588502,29.9921881 25.2575918,30.1995062 25.8520624,30.1995062 L28.0987801,30.1995062 L28.0987801,30.19898 Z M43.6100175,30.6962276 C44.5133587,30.6962276 45.4045356,30.6130899 46.284077,30.4473407 C46.8552764,30.3526269 47.2942537,30.0453331 47.6036534,29.5249332 C47.8178531,29.1702825 47.9246886,28.8035295 47.9246886,28.4252004 C47.9246886,28.2594511 47.9125242,28.0815996 47.8887242,27.8926981 L47.7459244,27.3244151 C47.6274534,26.8282199 47.3302181,26.4314741 46.8547475,26.1357565 C46.3792769,25.8400389 45.8445707,25.6806039 45.2501002,25.6569254 C43.6100175,25.5858901 42.7897117,24.5214118 42.7897117,22.4629645 L42.7897117,14.8332389 C42.7897117,14.6680159 42.8727471,14.5848782 43.039347,14.5848782 L45.5711355,14.5848782 C46.141806,14.5848782 46.6347299,14.3780863 47.0509651,13.9639763 C47.4672002,13.5498664 47.6750533,13.058933 47.6750533,12.4911762 L47.6750533,11.6040233 C47.6750533,11.0362665 47.4672002,10.5453331 47.0509651,10.1317494 C46.63473,9.71763944 46.1412771,9.51084756 45.5711355,9.51084756 L43.039347,9.51084756 C42.8727471,9.51084756 42.7897117,9.42770985 42.7897117,9.26196064 L42.7897117,6.17534202 C42.7897117,5.58390676 42.5818585,5.08718532 42.1656234,4.68465148 C41.7499172,4.28264388 41.2564643,4.08164008 40.6857938,4.08164008 L39.4735817,4.08164008 C38.8791112,4.08164008 38.3560407,4.27632964 37.90437,4.66728726 C37.4609785,5.0431311 37.1696993,5.56625251 37.0845931,6.13956124 L36.6921579,9.26248684 C36.6683579,9.42823605 36.5615225,9.52294988 36.3711227,9.54662834 L35.5513457,9.61766372 C34.9756913,9.65582346 34.4379849,9.9168814 34.053534,10.3448555 C33.6576513,10.7616332 33.440284,11.3152977 33.4474279,11.888691 L33.4474279,12.4917024 C33.4474279,13.0599854 33.655281,13.5503926 34.0715161,13.9650287 C34.4872224,14.3786125 34.9806752,14.5859305 35.5513457,14.5859305 L36.014652,14.5859305 C36.1812518,14.5859305 36.2642872,14.6685421 36.2642872,14.8337651 L36.2642872,22.534526 C36.2642872,25.1128471 36.8587577,27.1181494 38.0471699,28.5493807 C39.2361109,29.980612 41.0898645,30.6962276 43.6100175,30.6962276 L43.6100175,30.6962276 Z M61.0469374,30.6962276 C62.9488199,30.6962276 64.8263735,30.2584393 66.680656,29.3828624 C67.2042555,29.1460778 67.5363974,28.7324941 67.6791972,28.1410588 C67.7505972,27.9516312 67.7860327,27.7622035 67.7860327,27.5727758 C67.7860327,27.2181252 67.6791972,26.8634745 67.4655263,26.5088237 L67.358162,26.2957176 C67.0730912,25.7989962 66.6568561,25.4674978 66.1099855,25.3022748 C65.8545028,25.2319974 65.5907116,25.1960728 65.3256441,25.1954586 C65.0167733,25.1954586 64.7195381,25.2428155 64.4344673,25.3375293 C63.6263259,25.6216708 62.7938556,25.7637416 61.9381142,25.7637416 C59.1334193,25.7637416 57.4335722,24.5214118 56.8396306,22.0372784 C56.8149709,21.9706294 56.8285321,21.8959202 56.8750661,21.8420626 C56.9167358,21.7857338 56.983004,21.752671 57.0533015,21.7531369 L66.8588914,21.7531369 C67.4776908,21.7531369 68.0240324,21.5584473 68.4995031,21.1680159 C68.9749737,20.7775844 69.2240801,20.286651 69.248409,19.6946895 L69.248409,19.0211689 C69.248409,16.0397879 68.4873386,13.6266898 66.9662558,11.7818748 C65.444644,9.93653361 63.2338907,9.01412571 60.3339959,9.01412571 C59.0756392,9.01374934 57.8309374,9.27356739 56.6788485,9.77709864 C55.5067563,10.282553 54.4418984,11.0050235 53.540954,11.9060552 C52.6259771,12.8163604 51.8887068,13.9639763 51.3302007,15.3478507 C50.7711657,16.7317251 50.4919127,18.240306 50.4919127,19.8730673 C50.4919127,23.2085728 51.4846361,25.8463531 53.469554,27.785882 C55.454472,29.725937 57.9804428,30.6957014 61.0469374,30.6957014 L61.0469374,30.6962276 Z M63.4713615,17.565733 L56.9459371,17.565733 C56.7798662,17.565733 56.6963018,17.5068 56.6963018,17.3884077 C56.6963018,16.4186433 57.1601369,15.5551688 58.0872782,14.7979843 C58.7526197,14.2302275 59.5491256,13.946086 60.4762669,13.946086 C61.546208,13.946086 62.3485316,14.2481178 62.8832377,14.8511293 C63.4179438,15.4546669 63.7093613,16.2649964 63.7569612,17.2821177 L63.7569612,17.3173723 C63.7569612,17.4831215 63.6617613,17.565733 63.4713615,17.565733 Z M82.7985284,30.6962276 C84.7004109,30.6962276 86.5779645,30.2584393 88.432247,29.3828624 C88.9558465,29.1460778 89.2879884,28.7324941 89.4307883,28.1410588 C89.5021882,27.9516312 89.5376237,27.7622035 89.5376237,27.5727758 C89.5376237,27.2181252 89.4307883,26.8634745 89.2171174,26.5088237 L89.109753,26.2957176 C88.8241533,25.7989962 88.4084471,25.4674978 87.8615765,25.3022748 C87.6060938,25.2319974 87.3423026,25.1960728 87.0772351,25.1954586 C86.7683643,25.1954586 86.4711291,25.2428155 86.1860582,25.3375293 C85.3779169,25.6216708 84.5454466,25.7637416 83.6897053,25.7637416 C80.8844815,25.7637416 79.1851632,24.5214118 78.5906927,22.0372784 C78.566033,21.9706294 78.5795942,21.8959202 78.6261282,21.8420626 C78.6679076,21.7855828 78.7344091,21.7525018 78.8048925,21.7531369 L88.6104825,21.7531369 C89.2287529,21.7531369 89.7756235,21.5584473 90.2510941,21.1680159 C90.7265647,20.7775844 90.9756711,20.286651 91,19.6946895 L91,19.0211689 C91,16.0397879 90.2389297,13.6266898 88.7178467,11.7818748 C87.196235,9.93653361 84.9854817,9.01412571 82.0855869,9.01412571 C80.8272302,9.01374934 79.5825285,9.27356739 78.4304395,9.77709864 C77.2583473,10.282553 76.1934894,11.0050235 75.292545,11.9060552 C74.3775681,12.8163604 73.6402978,13.9639763 73.0817917,15.3478507 C72.5227567,16.7317251 72.2435036,18.240306 72.2435036,19.8730673 C72.2435036,23.2085728 73.2362271,25.8463531 75.221145,27.785882 C77.206063,29.725937 79.7315049,30.6957014 82.7985284,30.6957014 L82.7985284,30.6962276 Z M85.2229526,17.565733 L78.6975282,17.565733 C78.5314572,17.565733 78.4478929,17.5068 78.4478929,17.3884077 C78.4478929,16.4186433 78.911728,15.5551688 79.8388692,14.7979843 C80.5042107,14.2302275 81.3007166,13.946086 82.2278579,13.946086 C83.297799,13.946086 84.1001226,14.2481178 84.6342998,14.8511293 C85.1695348,15.4546669 85.4609523,16.2649964 85.5085523,17.2821177 L85.5085523,17.3173723 C85.5085523,17.4831215 85.4133524,17.565733 85.2229526,17.565733 Z" id="形状"></path>
                </g>
            </g>
        </g>
    </g>
</svg>