<?xml version="1.0" encoding="UTF-8"?>
<svg width="187px" height="54px" viewBox="0 0 187 54" version="1.1" xmlns="http://www.w3.org/2000/svg" xmlns:xlink="http://www.w3.org/1999/xlink">
    <title>编组 5</title>
    <g id="首页-网页" stroke="none" stroke-width="1" fill="none" fill-rule="evenodd">
        <g id="首页-添加合作伙伴" transform="translate(-699.000000, -3465.000000)" fill="#000000" fill-rule="nonzero">
            <g id="编组-5" transform="translate(699.000000, 3465.000000)">
                <g id="github-fill">
                    <path d="M28.0031281,0 C12.5313373,-0.00619460371 0,12.4000477 0,27.7126474 C0,39.8214374 7.83912412,50.1145285 18.7563401,53.8946523 C20.2265669,54.2602708 20.0013406,53.2253845 20.0013406,52.5189351 L20.0013406,47.7163188 C11.511563,48.7016298 11.1674673,43.1367918 10.5981455,42.2072532 C9.44698916,40.261419 6.72550553,39.7656651 7.53882248,38.8361264 C9.4720143,37.8508155 11.4427438,39.0840034 13.7262876,42.4241456 C15.3779466,44.8471429 18.599933,44.4381459 20.2328231,44.0353458 C20.5894313,42.5790687 21.352698,41.2777146 22.4037538,40.2676159 C13.6074182,38.705991 9.94123562,33.38903 9.94123562,27.0681673 C9.94123562,24.0006898 10.9610099,21.1810893 12.9630209,18.9068181 C11.6867389,15.157679 13.0818903,11.9476722 13.2695788,11.4705091 C16.9044799,11.148269 20.6832756,14.0484295 20.977321,14.2777157 C23.0418948,13.7261895 25.4005139,13.434934 28.0406658,13.434934 C30.6933304,13.434934 33.0582058,13.7385833 35.1415484,14.2963065 C35.8485085,13.763371 39.3520277,11.2722075 42.7304212,11.5758568 C42.9118534,12.0530199 44.2757234,15.1886636 43.0745168,18.8882274 C45.1015529,21.1686955 46.1338398,24.0130837 46.1338398,27.0867581 C46.1338398,33.4200147 42.4426321,38.7431726 33.6212714,40.2800098 C35.0914982,41.7176962 36.0049157,43.7131058 36.0049157,45.9192108 L36.0049157,52.8907506 C36.0549659,53.4484737 36.0049157,54 36.9433583,54 C48.0232376,50.3004362 56,39.932982 56,27.7188444 C56,12.4000477 43.4624064,0 28.0031281,0 Z" id="路径"></path>
                </g>
                <g id="github" transform="translate(72.000000, 11.000000)">
                    <path d="M16.4995451,18.8004047 C15.435732,18.8004047 14.5429142,18.7660614 13.6543643,18.8099757 C12.7700821,18.8536085 12.3191209,18.5501495 12.3455811,17.6161263 C12.3780161,16.4918078 12.3652128,15.3655189 12.3387526,14.2406374 C12.3196899,13.424282 12.6497309,13.0372169 13.5106826,13.043973 C16.2587479,13.0653671 19.0071926,13.0653671 21.7560166,13.043973 C22.6664745,13.0366539 23.0056201,13.4042953 23,14.3107314 C22.9714779,18.7649354 23.0150092,23.2197025 22.9492855,27.6730621 C22.8897084,28.2439341 22.5688324,28.7562505 22.0786602,29.0631183 C16.820766,31.5327342 11.4587382,31.6988203 6.1857646,29.2258264 C2.95591533,27.7124723 1.38082323,24.7879494 0.656724712,21.4563748 C-0.330222736,17.1400411 -0.203022787,12.6473366 1.02659822,8.39243607 C2.60311291,3.02306942 6.39573895,0.0433721372 12.0658998,0.000583853121 C14.7819094,-0.0191212777 17.5070236,0.464217431 20.2162048,0.805679198 C21.4379254,0.959942222 22.0319992,1.60598901 21.5494565,2.96592454 C21.1303614,4.14823239 20.9138431,5.39866369 20.5920532,6.68174921 C18.8564929,6.43515357 17.2011667,6.12887954 15.5310455,5.97546102 C10.141135,5.48058074 7.08228108,7.99720744 6.79264167,13.3195633 C6.67655829,15.4505324 6.68111058,17.6665151 7.13719307,19.7344279 C8.24681359,24.7654293 11.6610306,25.3000013 15.9088855,24.6764747 C16.1453201,24.6415684 16.4614197,24.0954548 16.4728004,23.7779207 C16.5308421,22.1905317 16.4995451,20.5989201 16.4995451,18.8004047 Z" id="路径"></path>
                    <path d="M65.4704374,18.0442203 L57.0815835,18.0442203 C57.0815835,21.7200096 57.0815835,25.3021811 57.0815835,28.8852142 C57.0815835,30.9815627 57.0815835,30.9815627 55.0889083,30.9815627 C51.0278869,30.9858703 51.0284474,30.9858703 51.0281671,26.8356745 C51.0281671,18.8411199 51.0494672,10.8465654 51,2.85258517 C50.9920131,1.51207076 51.3330941,0.88718658 52.7338522,1.01670072 C53.8060524,1.09591613 54.8823217,1.09889069 55.9549233,1.02560302 C57.0224478,0.971614865 57.455175,1.36130596 57.4330342,2.51372334 C57.3730577,5.62292418 57.4125749,8.73442238 57.4125749,11.9671068 L65.5550771,11.9671068 L65.5550771,4.90126336 C65.5550771,1.04685368 65.5550771,1.06236091 69.3106111,1.03393098 C72.355116,1.0109573 71.9854481,1.02330565 71.9862889,3.72242624 C71.988531,12.1956949 71.9890915,20.6687721 71.9879705,29.1416579 C71.9879705,30.9183851 71.9179045,30.9829986 70.1477588,30.9855831 C69.0732277,30.9873062 67.997015,30.9448048 66.9247259,30.9962085 C65.8933554,31.0456019 65.5234073,30.6148453 65.5362994,29.5603533 C65.5788995,26.0663432 65.5550771,22.5714717 65.5497521,19.0768873 C65.5511534,18.7500867 65.502948,18.4270193 65.4704374,18.0442203 Z" id="路径"></path>
                    <path d="M100.91141,29.5146955 C100.909447,30.5313216 99.9792417,30.4926333 98.9873403,30.4768191 C95.7146548,30.4251406 96.0074298,30.8391334 96.006308,27.4210105 C96.0038776,19.2386763 96.0049059,11.0561539 96.0093928,2.87344317 C96.0093928,1.07175577 96.0522995,1.02741957 97.7839904,1.01838289 C98.8115071,1.01301737 99.8412673,1.0621543 100.865419,1.00623986 C101.987162,0.944677501 102.454929,1.33014824 102.421837,2.5416277 C102.345839,5.30910992 102.39772,8.07659214 102.39772,10.8954705 C103.49815,10.5565951 104.491734,10.1406256 105.526542,9.94972577 C110.770691,8.98138939 114.241925,11.2769876 114.848788,16.5978958 C115.146838,19.5800489 115.003752,22.5902333 114.424208,25.5300859 C113.674323,29.53644 110.873891,31.3991249 106.845151,30.928653 C104.896403,30.7010417 102.998974,30.0275269 100.91141,29.5146955 Z M102.114199,20.2876838 C102.114199,21.2290043 102.114199,22.1691952 102.114199,23.1082565 C102.114199,25.0652618 102.293398,25.355565 104.221113,25.6441739 C105.54449,25.8418512 107.207474,26.1714075 107.844063,24.6399732 C108.99385,21.8758798 109.094807,18.9513853 107.74535,16.1864446 C107.119417,14.9043661 105.597492,14.7623209 103.586207,15.2398527 C102.097373,15.5934127 102.010438,16.537463 102.10186,17.7500721 C102.165239,18.5916126 102.114199,19.441625 102.114199,20.2876838 Z" id="形状"></path>
                    <path d="M88.2551726,29.0891832 C85.3760726,30.6569506 82.5970399,31.2996467 79.5499081,30.8693744 C76.2410399,30.401985 74.186771,28.5566962 74.0838117,25.2812587 C73.9363139,20.5753869 74.0334889,15.8623772 74.0097736,11.1527937 C74.0057246,10.3616293 74.3689742,10.0270048 75.1443501,10.0335717 C76.4458016,10.0444213 77.749856,10.0938155 79.0469694,10.0227221 C80.206418,9.95905203 80.5685108,10.4492827 80.5572315,11.5336718 C80.5193448,15.1026196 80.5283104,18.6715674 80.5485552,22.2388021 C80.5546286,23.3631634 80.3435043,24.663688 81.5680255,25.313522 C82.9640492,26.05415 84.4173367,25.6458624 85.7101119,24.95263 C86.0736506,24.7579082 86.3223725,24.0389794 86.3284459,23.5584562 C86.3784795,19.6100579 86.4059546,15.6599465 86.3336517,11.7121192 C86.3090688,10.3716224 86.7882921,9.90908677 88.1013121,10.0175828 C89.1103874,10.1043803 90.1251972,10.1043803 91.1342725,10.0175828 C92.5305854,9.8916703 93.0141469,10.437291 92.9996863,11.8069104 C92.9456038,16.6606794 92.9777063,21.5127353 92.9791523,26.3656478 C92.9791523,27.3169865 92.9765494,28.2683252 92.9976619,29.220806 C93.0144361,29.9631472 92.7446019,30.3988443 91.9220845,30.3997009 C91.2970986,30.3997009 90.671245,30.4408151 90.0477051,30.4893528 C89.0849202,30.5618739 88.2592215,30.4550909 88.2551726,29.0891832 Z" id="路径"></path>
                    <path d="M44.5663402,9.53920473 C45.792699,9.53920473 46.8239553,9.43136375 47.8167485,9.59050206 C48.2325956,9.65724688 48.5667783,10.2882623 48.9316201,10.6689118 C48.9550324,10.6931032 48.9380306,10.7627626 48.9358009,10.8111453 C48.8677937,12.2008366 49.2872641,14.0664854 48.5924204,14.8449807 C47.9123487,15.6071541 46.0973377,15.2623544 44.6362984,15.4188696 C44.6362984,18.2081618 44.5354025,21.0548721 44.679221,23.8878837 C44.7500153,25.2831127 46.0126074,25.6153795 47.1040668,25.4830557 C48.5993883,25.3017663 49.0208098,25.8097847 48.9751001,27.3586143 C48.8725319,30.8220584 48.8335114,30.9406834 45.4543355,30.99781 C40.5263242,31.0814596 38.273726,28.7713311 38.2720537,23.6308141 C38.2720537,20.9202166 38.2720537,18.2096191 38.2720537,15.2591483 C37.6432661,15.2591483 37.1070129,15.2128059 36.5805147,15.2684751 C35.3371542,15.3996331 34.9725911,14.8091309 35.0015778,13.5637133 C35.0785039,10.2355077 34.7855714,10.9697007 37.4010603,10.1710945 C37.6597105,10.0921083 37.9172458,10.0096245 38.2843173,9.89449702 L38.2843173,4.0116261 C40.1999455,4.0116261 41.9951675,3.96411778 43.7834216,4.06117466 C44.0607459,4.07633069 44.5039074,4.73882403 44.5292707,5.12646861 C44.6215264,6.52053181 44.5663402,7.92537911 44.5663402,9.53920473 Z" id="路径"></path>
                    <path d="M31.9762413,20.1402397 C31.9780754,22.9721611 31.9380314,25.8046403 31.9991672,28.6351671 C32.0217875,29.687446 31.5852777,30.039972 30.4817761,29.996464 C29.1108052,29.9420791 27.7349435,29.9702477 26.3612215,29.9844714 C25.415756,29.9942328 24.9957529,29.6411491 25,28.7322233 C25.0265246,22.9294898 25.0278492,17.1266634 25.0040062,11.3237439 C25,10.3565287 25.4594681,9.98503772 26.4731001,10.0023293 C27.8462107,10.0263145 29.2208497,10.0327291 30.5936546,10.0009349 C31.6635316,9.97639191 31.9997786,10.4351777 31.9884685,11.3675308 C31.9493415,14.2906515 31.9741016,17.2157245 31.9762413,20.1402397 Z" id="路径"></path>
                    <path d="M31.9995719,5.46561023 C32.0193425,6.72504303 31.3531327,7.8967972 30.2576606,8.52934735 C29.1621885,9.1618975 27.8084613,9.15650024 26.7181261,8.51523536 C25.627791,7.87397048 24.9710531,6.69694177 25.0009809,5.43770711 C25.024074,3.52703141 26.59246,1.99236668 28.5141959,2 C30.4359318,2.00769045 31.9918898,3.55481183 31.9995719,5.46561023 L31.9995719,5.46561023 Z" id="路径"></path>
                </g>
            </g>
        </g>
    </g>
</svg>